<svg xmlns="http://www.w3.org/2000/svg" width="165" height="347" viewBox="0 0 165 347">
    <g fill="#FFF" fill-rule="nonzero">
        <path d="M163.074 54.982c-8.84 5.58-16.852 12.121-26.449 16.521-9.04 4.145-18.34 7.743-26.906 12.782-9.375 5.514-17.066 13.177-23.047 21.958 1.206-3.466 2.4-6.937 3.64-10.391 3.286-7.43 7.128-14.708 12.027-21.207 7.04-9.335 16.191-17.124 23.798-26.032 7.536-8.824 13.536-18.858 19.915-28.464 2.066-3.108 4.385-6.052 6.449-9.164 1.964-2.961 2.943-5.946 4.26-9.158.468-1.142-.864-1.98-1.877-1.804-7.806 1.352-14.591 5.823-20.543 10.653-7.207 5.846-13.353 12.91-18.805 20.277-4.758 6.425-9.195 13.498-11.83 21.006-2.272 6.475-3.594 13.394-5.597 20.042-6.522 10.979-11.034 23.091-15.643 34.888-7.065 18.079-14.835 35.847-20.226 54.485.32-10.591-.048-21.2-.466-31.783-.956-24.23-1.223-48.449-1.63-72.692-.019-1.207-1.968-1.533-2.239-.292-2.397 11.015-5.855 21.795-8.177 32.854-2.425 11.553-4.105 23.284-4.71 35.06-.448 8.733.368 17.323 1.689 25.86-3.234-1.362-6.991-.777-9.884 1.53-8.34 6.65-8.194 16.651-5.248 25.797.406 6.69 4.586 16.495 12.425 16.145.408 5.908 1.626 11.673 3.595 17.267-3.45.995-6 4.062-7.467 7.482-1.74 4.052-2.148 8.758-1.446 13.24.093.88.21 1.748.334 2.593.714 4.915 2.436 10.16 6.028 13.846a9.677 9.677 0 0 0 2.13 1.648c-1.223 10.921-2.167 21.868-2.376 32.773-.021 1.096-.023 2.195-.031 3.293a1.287 1.287 0 0 0-.148-.237c-.53-3.99-1.231-7.963-1.976-11.916-1.97-10.437-4.154-20.776-8.514-30.563-.11-.249-.229-.492-.34-.74-.573-4.762.048-9.703.123-14.453.097-6.192-.26-12.38-.794-18.548-1.08-12.5-3.315-24.892-5.513-37.245-2.236-12.567-5.254-24.883-8.321-37.28-3.081-12.455-6.105-25.18-6.714-38.01-.052-1.111-1.734-1.39-2.049-.267-2.76 9.851-4.646 20.017-6.505 30.057a246.567 246.567 0 0 0-3.648 29.544c-1.073 17.236.102 34.952 4.827 51.656 3.686 13.027 9.492 27.318 20.33 36.366.96.801 1.99 1.548 3.021 2.274.979 2.425 1.834 4.887 2.802 7.335 1.427 3.61 2.897 7.09 4.036 10.805.152.62.31 1.24.457 1.86a297.716 297.716 0 0 1 2.84 13.611c.095.195.176.407.237.638 1.548 5.906 2.175 11.954 2.928 17.986.054.435.784 3.848.798 4.285.444 14.932-2.37 26.585-2.884 34.557.967 1.05 3.361 2.452 5.6 3.966.142-.964.3-1.927.412-2.881.368-3.142.64-6.35.575-9.51-.12-5.922-.53-11.895-.198-17.814.664-11.733 2.322-23.964 6.676-34.989.011-.03.06-.018.048.013-2.034 5.927-3.66 12.255-4.063 18.494-.383 5.893-.24 11.767-.098 17.666.14 5.938-.375 11.884-.25 17.817.065 3.17.178 6.34.255 9.51.034 1.426.117 2.898.016 4.341.603.61 1.047 1.215 1.233 1.802.133.425.444.711.814.875.367-11.395-.68-22.795-.119-34.19.302-6.13.881-12.34 1.609-18.437a36.661 36.661 0 0 1 1.492-6.836c.165-1.348.326-2.696.463-4.046a71.762 71.762 0 0 1 1.656-2.963c2.637-4.455 5.741-8.683 9.033-12.711 1.536-1.88 3.141-3.711 4.763-5.526.183-.204.37-.404.558-.601.701.19 1.46.06 2.122-.248.26-.12.486-.285.688-.478.088-.02.173-.045.256-.079 1.452.7 3.25.953 5.441.567 8.225-1.45 15.328-11.414 17.213-18.645 1.11-4.25 1.177-8.544-1.585-12.232-2.437-3.258-7.111-4.746-10.583-2.926-2.712.53-5.246 2.507-7.09 4.314-3.686 3.612-6.115 8.563-7.608 13.358-.912 2.93-1.066 6.62-.182 9.748-.593.117-1.142.513-1.23 1.087-.15.985-.125 2.02.17 2.952-.226.25-.454.502-.692.756a120.66 120.66 0 0 0-5.474 6.31 102.639 102.639 0 0 0-5.047 6.743c.366-1.104.72-2.21 1.065-3.32.33-.029.654-.25.7-.663.107-.92.218-1.838.335-2.757.762-2.613 1.475-5.24 2.147-7.87 1.241-4.87 2.454-9.742 3.847-14.569 6.218-12.786 16.292-22.88 26.7-32.795 10.737-10.227 21.949-20 31.864-30.992 4.81-5.332 9.228-10.97 13.142-16.94 4.523-6.9 8.114-14.416 12.277-21.524.528-.904-.558-2.071-1.528-1.468-11.263 7.005-23.215 12.94-34.296 20.221-11.275 7.41-20.34 16.705-28.22 27.382-8.285 11.227-15.09 23.829-19.412 36.969-.193.587-.369 1.178-.548 1.77-.817-5.83-3.426-11.247-8.907-14.007.464-3.352.946-6.7 1.466-10.043 3.876-6.47 7.086-13.149 11.602-19.28.532.823 1.965.971 2.476-.002l.25-.481a1.94 1.94 0 0 0 .657-.301c.995.533 2.13.883 3.403.991 7.098.599 13.31-3.838 17.608-8.82 5.925-6.865 11.877-18.609 9.234-27.849-.919-3.211-3.239-4.71-5.955-5.084-5.19-3.362-13.632 3.323-17.562 7.204-6.889 6.806-13.176 15.225-11.913 25.221.084.674.228 1.342.412 1.995a9.72 9.72 0 0 0-.68 1.213c-.583 1.198-1.134 2.783-.49 4.029-2.071 2.368-4.497 4.892-6.63 7.578 3-15.12 7.06-30.046 12.243-44.61 1.282-3.602 2.691-7.155 4.14-10.692 5.12-5.94 11.671-10.066 19.26-13.325 10.419-4.473 20.52-8.417 29.685-15.137 8.705-6.382 16.052-14.217 22.64-22.58 3.566-4.527 6.852-9.253 10.04-14.03 1.519-2.272 2.974-4.581 4.425-6.89.969-1.542 2.907-3.55 2.889-5.413-.008-.896-1.095-1.59-1.926-1.066zm-10.288-51.49c-.977 2.288-1.994 4.468-3.482 6.662-2.178 3.209-4.618 6.242-6.783 9.46-6.934 10.302-13.446 20.876-21.727 30.25-4.303 4.873-8.992 9.485-13.37 14.327.507-.897 1.016-1.793 1.53-2.685 4.43-7.688 8.722-15.441 13.968-22.655 4.42-6.075 9.197-11.95 13.73-17.956 4.599-6.096 9.415-12.304 15.435-17.194.234-.07.465-.144.7-.208zm-47.323 53.382c2.358-8.056 6.477-15.266 11.295-22.197 5.098-7.335 11.018-14.171 17.75-20.173 4.919-4.386 10.68-8.606 17.154-10.671-6.149 3.59-10.76 8.949-15.167 14.415-4.919 6.102-10.061 12.01-15.066 18.044-5.492 6.621-10.121 14.078-14.457 21.434-1.137 1.929-2.269 3.862-3.403 5.792.63-2.199 1.243-4.416 1.894-6.644zm-75.38 177.884c-3.23-6.535-6.566-13.012-9.13-19.843-4.048-10.795-6.467-22.597-8.432-33.895-.02-.117-.23-.09-.214.028 1.487 10.842 3.085 21.474 6.026 32.07 2.085 7.512 5.267 14.575 8.52 21.641-1.734-2.769-3.56-5.49-5.112-8.3-3.313-5.998-5.035-12.96-6.638-19.532-3.345-13.727-6.073-28.056-6.57-42.173-.274-7.797.49-15.58.227-23.374-.27-7.925-.95-16.009.896-23.808.102-.433-.566-.614-.692-.184-2.08 7.104-1.838 14.415-1.673 21.72.175 7.747-.656 15.51-.835 23.256-.327 14.172 1.356 28.592 4.191 42.493 1.325 6.501 3.17 12.903 5.578 19.11 2.51 6.473 7.055 11.996 10.26 18.145-5.41-4.518-9.518-10.53-12.89-16.525C5.815 211.757 3 194.954 2.023 179.47c-1.315-20.796 1.74-41.612 5.95-61.96.968-4.676 1.872-9.36 2.962-14.006 2.1 22.752 9.582 44.54 13.231 67.102 2.093 12.936 4.11 25.879 5.245 38.931.573 6.582.805 13.193.768 19.798-.01 1.794-.068 3.607-.096 5.423zm42.34 9.972c2.021-6.504 6.556-14.092 13.87-15.68a7.777 7.777 0 0 1 2.884.236c2.935.805 4.774 3.545 5.342 6.271.712 3.429-.965 6.784-2.473 9.771-2.697 5.336-7.871 11.644-14.163 13.124-1.444.34-2.58.223-3.47-.212a3.85 3.85 0 0 1-1.296-1.041 1.292 1.292 0 0 0-.239-.507 1.353 1.353 0 0 0-.297-.294c-1.747-3.233-.962-9.085-.158-11.668zm59.248-86.462c-11.5 6.783-22.916 14.156-32.206 23.662-4.677 4.785-8.163 10.058-11.61 15.69-3.708 6.058-8.748 11.396-12.95 17.148-1.957 2.68-3.86 5.447-5.584 8.309 4.436-11.574 10.192-22.665 17.48-32.98 7.788-11.023 17.08-20.338 28.47-27.94 9.533-6.364 19.82-11.594 29.421-17.854-7.088 13.007-15.14 25.18-25.358 36.23-10.287 11.125-21.782 21.14-32.626 31.748-5.304 5.189-10.44 10.537-15.218 16.183a53.217 53.217 0 0 0-2.649 3.437c2.103-4.745 4.726-9.229 7.662-13.605 3.81-5.678 8.394-10.843 12.204-16.505 3.78-5.617 6.356-11.647 10.77-16.9 8.914-10.602 20.743-18.7 32.398-26.286.215-.14.021-.47-.204-.337zm-60.517 6.57c1.067-3.481 3.527-6.583 5.758-9.446 2.126-2.726 6.487-8.02 11.08-10.822 3.11-1.895 6.32-2.638 9.021-.676a7.93 7.93 0 0 1 1.57 1.517c.163.208.5.21.676.067.35.466.643 1.03.867 1.718 1.173 3.613.1 7.933-1.073 11.417-1.854 5.511-5.251 10.75-9.254 15.036-3.492 3.739-11.5 9.153-16.706 5.411-.103-.902-.355-1.769-.589-2.314-.42-.98-1.095-1.972-2.205-2.218-.695-3.201.034-7.015.855-9.69zm-26.262 25.65c-.013-.06-.028-.123-.04-.184-.113-.546-1.004-.411-.995.13.002.112.006.223.01.334-.032.005-.058.014-.089.018-2.924.344-5.24-1.441-7.021-3.965-2.413-9.566-6.373-20.567-.238-29.5 2.706-3.941 7.05-5.657 10.943-2.16l.037.036c3.59 3.263 4.09 8.929 4.192 13.372.052 2.268-.1 4.529-.384 6.776-.275 2.19-.676 4.368-1.134 6.524-.578 2.722-2.161 7.37-5.281 8.62zm7.77-4.842c.098-.231.188-.468.28-.702.532 3.522.98 7.056 1.283 10.61a.769.769 0 0 0 .213.474 486.275 486.275 0 0 0-2.169 13.83c-.804-4.53-2.648-8.908-3.366-13.474-.12-.984-.22-1.971-.286-2.964a1.49 1.49 0 0 0-.53-1.071c2.158-1.649 3.579-4.358 4.574-6.703zm1.127 74.058c-.169 1.954-.43 3.9-.748 5.843a70.18 70.18 0 0 1-.83 3.671c-.82 3.237-2.022 6.35-3.285 9.44.055-1.479.122-2.957.203-4.436.695-7.701 1.786-15.394 2.358-23.046.532.026 1.067.01 1.601-.047.025 1.959.634 3.981.719 5.962a29.22 29.22 0 0 1-.018 2.613zm5.623-10.505a640.3 640.3 0 0 0-.877 3.433 217.248 217.248 0 0 0-1.59 4.633c-.052-.385-.108-.773-.164-1.164a54.03 54.03 0 0 0-.2-5c.074-.391.185-.768.338-1.123.157-.081.317-.158.47-.246.86-.49 1.619-1.093 2.293-1.78l-.27 1.247zm1.616-13.801c-.537 3.843-1.764 8.457-5.096 10.966-.134.103-.266.207-.408.3a6.524 6.524 0 0 1-2.092.931 5.808 5.808 0 0 1-1.816.142c-1.444-.11-2.817-.74-3.996-1.69a10.156 10.156 0 0 1-1.793-1.878 20.34 20.34 0 0 1-1.803-3.001c-1.828-5.414-3.043-10.99-2.233-16.72.572-4.054 2.707-9.28 6.997-10.182.237-.05.481-.084.73-.106.082-.008.161-.014.243-.02a7.337 7.337 0 0 1 1.738.122c.053.01.102.025.154.034.178.036.352.075.522.118a11.636 11.636 0 0 1 1.454.455c.614.239 1.186.52 1.713.844 6.212 3.826 6.582 13.275 5.686 19.685zm-1.805-73.084c-.112 4.266-.28 8.61-.604 12.957-.24 1.03-.477 2.063-.708 3.096-.184-1.6-.359-3.166-.486-4.674-.858-10.29-1.812-20.588-2.357-30.9-.501-9.523-.914-19.134-.924-28.67-.01-9.45.2-19.36 2.327-28.606.037-.16-.217-.229-.256-.069-4.348 17.806-4.635 36.632-4.49 54.863.04 5.06.218 10.112.481 15.159a15.687 15.687 0 0 0-2.647-3.217c-1.425-8.411-2.29-16.818-2.005-25.462.395-11.932 2.096-23.803 4.438-35.515 1.141-5.712 2.51-11.378 3.959-17.026a291.758 291.758 0 0 1 1.78-6.568c-.183 20.265.078 40.512.893 60.773.455 11.285.89 22.564.599 33.859zm20.6-37.974c.997-2.415 1.98-4.836 2.922-7.273.305-.787.6-1.578.894-2.368 7.486-11.64 17.28-22.057 29.418-28.979 8.297-4.731 17.335-8.156 26.007-12.177 6.74-3.124 12.494-7.501 18.405-11.732-1.977 2.364-3.958 4.691-6.313 6.773-3.896 3.449-8.192 6.408-12.489 9.371-7.845 5.41-16.177 10.15-23.978 15.617-5.422 3.8-10.45 7.874-15.244 12.242a134.805 134.805 0 0 1 5.111-5.802c3.762-4.005 8.034-7.46 12.246-11.004.141-.119-.042-.342-.198-.248-8.61 5.175-15.753 13.002-22.27 20.394-3.143 3.565-6.383 7.079-9.6 10.614-1.686 1.491-3.348 2.99-4.91 4.572zm78.858-62.462a637.888 637.888 0 0 1-4.554 6.803c-3.343 4.928-6.861 9.75-10.637 14.38-7.161 8.787-15.44 16.722-25.083 22.98-8.439 5.476-17.992 8.554-27.119 12.691a66.09 66.09 0 0 0 3.694-3.35c7.492-7.399 14.89-14.588 23.126-21.256 7.618-6.167 15.346-11.964 23.365-17.644a127.176 127.176 0 0 0 9.84-7.747c2.876-2.496 5.89-5.077 7.999-8.232l.498-.35c-.377.576-.752 1.151-1.13 1.725z"/>
        <path d="M93.274 148.946c-.148.275-.141.549.023.878.347.698 1.624.947 2.339 1.133.728.19 1.32-.282 1.43-.832.087.012.175.033.263.04.53.048.826-.54.587-.902-.327-.496-.526-1.137-.614-1.756l-.002-.113c0-.225-.04-.455-.055-.68.023-.958-1.624-.947-1.679 0-.01.191.007.47.062.76-.577-.317-1.156-.64-1.64-1.073-.916-.82-2.518.244-1.814 1.235.33.466.705.895 1.1 1.31zM42.924 157.343c.035-.061.077-.118.11-.18.774-1.395-1.108-2.934-2.252-1.728a5.36 5.36 0 0 0-1.225 1.96c-.012.039-.02.078-.032.115-.275.525-.489 1.076-.523 1.722-.023.416.149.741.408.974.261.892 1.457 1.101 2.028.272.13-.191.333-.373.478-.567.02-.029.037-.068.056-.1.012-.006.024-.01.037-.015.01.002.028.002.056.001.031.01.399.036.472.04.747.047 1.594-.437 1.446-1.284-.102-.606-.532-.994-1.06-1.21zM51.978 220.52a1.633 1.633 0 0 0-.236-.202c-1.197-.843-3.295.175-4.276.925-.876.668-.418 1.82.553 2.153a8.75 8.75 0 0 0-.043.35c-.042.443.595.605.966.39.19.388.58.699 1.083.815.373.087.731.053 1.046-.06.45-.16.81-.487.983-.906.021-.047.036-.096.053-.144l.045-.068c.114-.171.256-.327.376-.496.419-.59.553-1.183.426-1.857-.08-.418-.488-.743-.976-.9zM87.076 239.685c1.089.38 2.155.829 3.23 1.245.808.313 1.718-.476 1.694-1.272-.017-.534-.027-1.155-.194-1.665-.162-.493-.672-.916-1.213-.87-.11-.236-.246-.462-.45-.636-1.297-1.104-2.673-.11-3.708.804-.869.77-.323 2.058.641 2.394zm.612-1.33c-.136-.218-.051-.175 0 0z"/>
    </g>
</svg>
