<svg xmlns="http://www.w3.org/2000/svg" width="472" height="162" viewBox="0 0 472 162">
    <g fill="#FFF" fill-rule="nonzero">
        <path d="M467.582 74.325C459.269 64.1 447.341 56.2 434.819 48.347c-17.91-11.234-36.033-18.964-53.868-22.98a2.153 2.153 0 0 0-.47-.055c-.199 0-.392.03-.576.089-7.03-1.931-14.866-3.35-24.647-4.464-17.117-1.946-34.729-2.903-49.893-3.647a1091.243 1091.243 0 0 0-53.151-1.322c-10.948 0-21.953.177-32.711.524C208.74 7.562 196.687 1.736 185.539.084a3.321 3.321 0 0 0-.466-.032c-1.16 0-2.066.63-2.306 1.605a59.857 59.857 0 0 0-1.642 16.783l-1.47.093c-9.414.603-19.149 1.227-28.737 1.64-15.412.664-31.346 1.354-46.582 5.822-5.299 1.552-10.61 3.402-15.746 5.19-4.293 1.494-8.73 3.04-13.133 4.4C65.336 38.72 53.863 42.27 42.976 46.72c-8.02 3.279-17.11 6.994-22.867 13.721-1.767 2.063-3.916 4.148-6.192 6.356C8.064 72.48 1.43 78.92.301 86.507c-1.105 7.427 5.012 13.569 10.83 18.742 7.953 7.071 17.041 12.826 25.676 17.99 21.923 13.112 47.2 19.332 69.172 24.136 31.104 6.798 62.862 8.709 95.371 10.21 10.965.506 22.122.896 32.908 1.271 5.926.205 12.052.42 18.077.65 5.487.21 11.08.557 16.488.893 8.749.544 17.795 1.106 26.696 1.106 1.693 0 3.361-.02 4.962-.061 27.03-.682 55.573-6.69 87.26-18.374 11.485-4.232 22.292-9.34 32.26-14.227a858.394 858.394 0 0 1 4.163-2.03c8.54-4.146 16.608-8.061 24.343-13.364 9.488-6.502 21.125-16.426 22.694-26.781.669-4.416-.548-8.569-3.619-12.343zm-115.56 67.037c.06 1.19.121 2.422.078 3.633-.031.894-.188 1.832-.338 2.74-.02.135-.043.267-.065.402-18.663 4.514-37.048 6.958-54.647 7.263-1.132.02-2.306.03-3.488.03-9.074 0-18.335-.586-27.291-1.152-5.904-.373-12.01-.759-17.996-.972-8.418-.302-16.976-.525-25.25-.743l-2.946-.077c-.068-1.807-.404-3.555-.728-5.248-.504-2.625-.982-5.115-.48-7.664 1.312.217 2.733.456 4.42.749a79.173 79.173 0 0 0 13.65 1.167c3.664 0 7.464-.237 11.616-.726 1.311-.154 2.617-.31 3.918-.465 10.176-1.217 19.788-2.367 29.793-2.367 2.694 0 5.352.087 7.894.259l2.08.14c7.404.508 15.06 1.03 22.77 1.03 13.274 0 23.576-1.584 32.423-4.98 2.074-.797 3.72-1.675 5.031-2.683.968-.746 1.76-1.282 2.502-1.691.363.548.958.898 1.67.953.59.049 1.186.071 1.777.071 7.518 0 13.795-3.82 19.866-7.517 3.639-2.212 7.4-4.502 11.378-5.935 2.484-.897 5.25-1.324 7.922-1.734.843-.13 1.68-.258 2.504-.402 2.665-.459 5.516-1.955 8.032-3.277.462-.245.912-.48 1.342-.7 2.595-1.325 5.347-2.51 8.008-3.657 2.281-.983 4.637-1.997 6.904-3.103 10.062-4.91 20.314-10.444 25.42-19.265 2.547-4.404 3.265-9.09 2.02-13.194-1.153-3.808-3.908-6.94-7.957-9.055-3.05-1.594-6.445-2.566-9.73-3.507-1.025-.293-2.086-.596-3.105-.912-5.903-1.822-10.964-5.362-15.857-8.785a228.762 228.762 0 0 0-3.669-2.533c-5.16-3.47-10.511-5.687-17.886-7.41-2.14-.5-4.3-1.044-6.39-1.57-5.432-1.369-11.045-2.783-16.773-3.536a516.963 516.963 0 0 1-4.795-.668c-4.86-.692-9.886-1.41-15-1.59-.9-.032-1.824-.049-2.818-.049-2.41 0-4.822.094-7.159.185-2.297.088-4.67.18-7.004.18-3.595 0-6.573-.218-9.381-.69-4.954-.834-9.919-2.087-14.72-3.298-8.42-2.126-17.13-4.323-26.07-4.323-1.197 0-2.393.04-3.557.119-6.005.402-12.075.996-17.944 1.573-9.997.978-20.325 1.992-30.58 2.077a60.22 60.22 0 0 0-2.11-2.514 75.37 75.37 0 0 0-1.952-2.112c10.06-.341 19.055-.51 27.465-.51h.855c39.296.055 71.53 1.143 101.448 3.426 16.285 1.244 29.14 4.041 40.464 8.808a1.625 1.625 0 0 0 1.617-.177c19.048 7.68 37.453 18.8 53.241 32.174.595.505 1.236 1.029 1.9 1.57 4.673 3.821 10.486 8.578 10.099 14.291-.649 9.618-12.169 18.095-17.705 22.17-16.794 12.359-37.219 23.113-60.702 31.965a294.25 294.25 0 0 1-30.176 9.548c-.05-3.759-1.331-7.662-1.908-9.231a1.044 1.044 0 0 0-.998-.678c-.574 0-1.013.416-1.021.967-.017 1.082.038 2.163.09 3.21zM92.475 120.931c6.42 1.765 13.057 3.592 19.795 4.787 5.201.923 10.429 1.393 15.537 1.393 2.062 0 4.136-.077 6.165-.23 3.021-.225 5.522-.375 7.899-.375 6.836 0 11.91 1.359 16.965 4.547 5.44 3.432 10.474 6.368 17.002 7.534 2.465.439 5.13.652 8.15.652 4.005 0 8.057-.377 11.975-.74.97-.09 1.935-.181 2.894-.264 1.5-.13 3.06-.196 4.638-.196 3.388 0 6.902.281 11.326.912-.251 1.471-.039 2.853.183 4.306.098.64.2 1.3.263 1.98.041.454.078.913.115 1.374.157 1.907.317 3.873.744 5.769a1884.86 1884.86 0 0 1-18.844-.581c-29.854-1.1-64.426-2.946-96.931-10.96-3.015-.744-6.218-1.535-9.401-2.34-.134-1.123-.463-2.152-.781-3.151-.184-.577-.375-1.172-.525-1.776-.5-2.014-.616-4.196-.73-6.306a93.749 93.749 0 0 0-.14-2.275c-.124-1.602-.277-3.56-.97-5.337 1.566.422 3.14.855 4.67 1.277zm99.895 12.623c-2.852.373-5.798.757-8.669.94-.722.049-1.451.072-2.163.072-6.53 0-12.477-1.889-19.288-6.123-6.639-4.127-12.422-6.156-18.755-6.576-1.68-.113-3.476-.166-5.65-.166-1.32 0-2.65.019-3.936.036-1.275.02-2.594.038-3.89.038-3.126 0-6.848-.093-10.725-.787-5.987-1.072-11.986-2.821-17.788-4.516-1.702-.496-3.464-1.011-5.193-1.499-3.452-.972-7.489-2.074-11.621-2.978.407-.422.77-.866 1.126-1.303.28-.346.57-.702.88-1.046.26-.287.512-.571.762-.853 1.117-1.261 2.172-2.452 3.589-3.465.282-.205.396-.538.286-.854a.774.774 0 0 0-.736-.514.854.854 0 0 0-.36.081l-.206.097c-3.218 1.499-7.568 3.524-8.441 7.225a93.148 93.148 0 0 0-5.861-.941c-2.657-.338-5.334-.477-7.925-.61-3.484-.18-7.085-.366-10.609-1.04-12.675-2.422-23.676-7.516-30.975-14.339-4.352-4.068-5.38-7.764-3.232-11.63 2.58-4.642 7.146-8.626 11.175-12.143l.603-.524c.901-.791 1.826-1.62 2.719-2.425 2.724-2.45 5.54-4.984 8.487-7.01 4.488-3.086 10.257-4.272 15.835-5.42 1.59-.327 3.235-.666 4.79-1.04a80.23 80.23 0 0 0 4.333-1.163c5.753 1.508 12.214 1.713 17.788 1.713 1.654 0 3.32-.018 4.931-.038a427.51 427.51 0 0 1 4.696-.034c1.783 0 3.243.022 4.597.073 10.333.393 20.511 2.405 31.11 6.146 1.066.378 2.132.756 3.199 1.132 7.545 2.674 15.348 5.441 23.194 7.701 4.519 1.3 9.344 2.504 14.001 2.504 1.422 0 2.763-.118 4.006-.353-.562.644-1.141 1.317-1.742 2.032a1.058 1.058 0 0 0-1.238-.032c-5.991 3.994-11.162 6.42-17.298 8.11-1.405.386-3.012.699-4.71 1.031-3.483.681-7.412 1.448-10.365 3.072-.646-.531-1.312-1.045-1.957-1.544a97.449 97.449 0 0 1-1.538-1.203l-.308-.247c-.526-.422-1.03-.826-1.51-1.26a10.64 10.64 0 0 1 2.9-.996 15.45 15.45 0 0 1 3.362-.375c.866 0 1.745.077 2.615.224.131.02.245.028.355.028.896 0 1.596-.489 1.778-1.243.845-3.481.544-6.127-.897-7.862-1.297-1.564-3.472-2.357-6.46-2.357-7.006 0-17.009 4.354-21.248 7.367-5.2 3.69-6.636 10.623-6.296 15.71-9.33.208-17.525 7.028-21.616 11.118a.694.694 0 0 0-.153.784.778.778 0 0 0 1.057.363c2.3-1.138 4.555-2.414 6.736-3.644 4.474-2.529 9.095-5.14 14.21-6.61.8 4.706 3.587 7.622 7.306 7.622 1.951 0 4.071-.823 6.126-2.38.658-.5.813-1.605.317-2.277-.821-1.113-1.568-2.286-2.283-3.45.764.524 1.513 1.071 2.25 1.607 2.492 1.818 5.068 3.697 8.138 4.76a7.575 7.575 0 0 0 2.476.395c3.61 0 7.679-2.258 9.262-5.14 1.463-2.663-.56-5.37-1.854-6.789.657-.19 1.31-.404 1.947-.613a46.412 46.412 0 0 1 2.485-.763c1.52-.404 3.074-.793 4.578-1.169 2.342-.588 4.761-1.194 7.125-1.875 2.804-.811 5.861-1.81 8.58-3.246a49.528 49.528 0 0 1-3.226 3.17c-.532.471-.687 1.198-.4 1.895.285.695.922 1.144 1.624 1.144.199 0 .4-.036.594-.107 7.7-2.788 16.003-3.26 24.031-3.718 4.73-.268 9.62-.546 14.365-1.29 8.767-1.376 19.38-6.45 23.813-14.733.762.632 1.693 1.05 2.726 1.446-.149.645-.076 1.235.22 1.761.892 1.585 3.62 2.175 6.261 2.745 2.015.436 4.28.927 4.799 1.783-1.829 2.079-4.676 3.313-7.687 4.617-4.406 1.909-8.963 3.882-10.142 8.76-.256 1.06.282 1.986 1.405 2.422 2.832 1.101 5.173 1.615 7.365 1.615 2.987 0 5.784-.92 9.348-3.074 2.727-1.65 5.638-3.239 8.9-4.852 1.157-.575 2.693-1.256 4.335-1.438.084-.01.162-.014.238-.014.37 0 .636.109.834.342.93 1.105.194 4.373-.047 5.446-.035.154-.062.282-.081.374-.17.827.252 1.808 1.254 2.015 1.196.246 2.365.37 3.476.37 2.959 0 5.502-.873 7.387-2.53 2.567 1.39 4.97 3.123 7.296 4.804 3.013 2.175 6.13 4.424 9.693 6.01 3.6 1.604 7.43 2.617 11.136 3.597 4.233 1.12 8.614 2.278 12.641 4.32 6.045 3.068 11.56 7.246 16.893 11.287.962.727 1.919 1.453 2.88 2.17.86.648 1.739 1.324 2.587 1.981 3.621 2.805 7.357 5.693 11.657 7.419-1.971.653-4.079 1.045-5.978 1.4l-.176.032c-7.075 1.321-14.569 1.498-20.966 1.498-1.996 0-4.017-.017-5.972-.037-1.6-.014-3.19-.027-4.774-.033-7.905-.023-15.672-.393-24.279-.838a82.213 82.213 0 0 0-4.276-.106c-7.15 0-14.367.858-21.345 1.69-6.95.826-14.137 1.682-21.23 1.682-1.947 0-3.848-.065-5.653-.193-3.553-.253-6.952-.778-10.935-1.442 1.968-3.324 4.175-6.59 6.315-9.756a691.83 691.83 0 0 0 1.691-2.51c6.709-10.015 9.91-18.424 10.706-28.115a.597.597 0 0 0-.168-.462.66.66 0 0 0-.464-.192.642.642 0 0 0-.647.543c-1.411 11.607-8.956 22.133-15.613 31.418l-.196.275c-.54.753-1.11 1.515-1.714 2.322-1.394 1.866-2.835 3.789-4.034 5.788-2.836-.463-5.873-.917-8.975-1.165a42.006 42.006 0 0 0-3.335-.127c-4.133-.003-8.321.545-12.371 1.075zm13.486-69.024l-.686.374c-4.395 2.37-7.867 5.598-11.05 8.702a.678.678 0 0 0-.157.768.771.771 0 0 0 .697.445.77.77 0 0 0 .5-.187c3.718-3.22 8.557-5.302 12.8-6.916.873-.333 1.819-.61 2.818-.902.443-.132.896-.264 1.346-.401-.562 2.143-1.428 4.902-2.792 7.181a.963.963 0 0 0 .007 1.011c.199.327.572.541.95.541.289 0 .558-.12.757-.337 2.367-2.582 3.958-5.467 4.982-9.044 2.602.56 5.15.841 7.585.841.705 0 1.407-.026 2.094-.073-2.063 2.63-4.169 4.963-7.365 6.85-4.864 2.876-10.851 3.789-16.565 4.478-2.437.295-4.907.541-7.294.78-6.948.696-14.116 1.413-21.02 3.368 9.588-12.297 19.535-19.455 29.593-21.283a44.288 44.288 0 0 0 5.148 2.56c-.826.417-1.62.847-2.348 1.244zM120.56 89.84c-.247.41-.24.894.022 1.324.918 1.51 1.679 3.128 2.415 4.692.254.54.515 1.092.782 1.642-.777.311-1.48.467-2.097.467-.8 0-1.451-.257-1.991-.793-1.198-1.191-1.785-3.734-1.654-7.16.194-4.998 2.265-8.78 6.156-11.236 3.354-2.122 11.812-6.08 17.092-6.08 1.664 0 2.861.396 3.56 1.175.67.747.924 1.89.76 3.408-.385-.02-.77-.03-1.147-.03-3.453 0-6.677.786-10.141 2.475-.701.342-1.076 1.201-.854 1.959.85 2.892 3.436 4.776 5.936 6.598 1.797 1.308 3.493 2.547 4.58 4.115.319.463.423.89.319 1.306-.274 1.096-1.953 2.01-2.756 2.449-.98.532-1.95.79-2.969.79-1.95 0-3.855-.98-5.623-2.041a57.709 57.709 0 0 1-2.49-1.603c-2.371-1.584-4.615-3.082-7.542-3.679a1.394 1.394 0 0 0-1.066-.488c-.524 0-1.033.28-1.292.71zm148.492-2.736c-.777.597-1.714.99-2.789 1.184 2.407-3.598.96-8.237-.224-12-.21-.668-.409-1.3-.583-1.91-.207-.726-.893-1.215-1.707-1.215-.134 0-.268.014-.402.04l-.391.078c-1.003.195-2.036.397-3.047.67-1.276-3.747-4.747-6.277-9.845-7.152a2.06 2.06 0 0 0-.323-.027c-.828 0-1.579.564-1.785 1.34-.187.711.132 1.38.837 1.746 1.815.944 3.629 2.09 5.385 3.198l1.217.764c-.455.337-.86.737-1.25 1.133-.36.36-.701.703-1.068.983-1.579 1.208-2.9 1.913-4.412 2.359-.42.124-.666.499-.6.912.064.411.421.708.844.708a.965.965 0 0 0 .215-.024c1.555-.364 2.822-1.013 4.167-1.7l.61-.31c.846-.424 2.068-1.398 2.748-2.497.048.284.08.573.088.872.028.953.86 1.758 1.817 1.758.182 0 .363-.03.54-.088.664-.22 1.359-.372 2.03-.518.721-.158 1.463-.321 2.189-.57 2.606 3.094 2.997 6.777 1.196 11.248a.762.762 0 0 0-.051.332c-.3-.005-.606-.016-.922-.047.444-3.304.038-5.682-1.21-7.075-.863-.959-2.106-1.446-3.697-1.446-.553 0-1.16.06-1.803.178-2.705.5-5.35 1.94-7.682 3.21-.407.222-.807.441-1.201.65-1.503.802-2.978 1.682-4.403 2.533a238.3 238.3 0 0 1-2.113 1.249c-1.499.87-2.987 1.295-4.55 1.295-1.336 0-2.753-.297-4.534-.957 1.393-2.004 4.29-3.527 6.65-4.77.783-.413 1.522-.8 2.169-1.184 2.134-1.261 5.035-2.979 6.784-5.412.5-.129.928-.417 1.2-.812.305-.443.385-.967.233-1.52-.872-3.168-4.708-4.1-6.85-4.597a39.908 39.908 0 0 0-2.093-1.292c.269-.178.527-.355.758-.513.308-.209.573-.39.708-.467 3.906-2.21 8.623-3.274 14.848-3.35l.16-.001c5.045 0 9.586 2.955 12.457 8.111 2.64 4.74 3.076 10.14 1.118 13.316l-.068-.001c-.442 0-.848.224-1.111.616a1.498 1.498 0 0 0-.254.972zm.712-20.655c.32.029.648.043.989.043 1.201 0 2.35-.176 3.568-.362l.132-.02c.758-.116 1.518-.225 2.28-.338.869-.127 1.741-.254 2.607-.387 1.759 3.204 6.634 4.869 9.666 5.032.68.036 1.39.053 2.113.053 4.844 0 9.981-.82 14.814-1.707.376-.07.76-.138 1.147-.21 4.536-.817 9.676-1.741 13.348-4.322 1.577-1.108 2.697-3.055 3.032-5.25 5.01-1.875 10.616-2.816 16.037-3.728l.89-.15.757-.128c4.13-.7 8.804-1.492 13.251-1.492 1.177 0 2.298.056 3.35.169a15.702 15.702 0 0 0-3.067 4.931c-.256.66.002 1.591.564 2.032 4.397 3.438 9.818 4.946 15.45 6.31.4.096.81.196 1.227.299 4.013.983 8.563 2.097 12.883 2.097.92 0 1.802-.053 2.629-.156.86.215 1.765.323 2.696.323 3.36 0 7.172-1.538 8.117-4.974.117-.43.028-.872-.247-1.213a1.563 1.563 0 0 0-1.214-.562c-.107 0-.218.01-.324.031-1.14.228-2.146.774-3.12 1.304-.723.39-1.404.76-2.131 1.009-.642.218-1.34.322-2.137.322-1.28 0-2.606-.277-3.775-.523a1.542 1.542 0 0 0-1.496.484c-1.71-.28-3.494-.518-5.222-.748-6.944-.923-14.118-1.877-19.212-5.874 3.557-5.073 10.806-7.97 19.99-7.97 1.444 0 2.91.078 4.36.23.088.296.292.544.588.69 1.323.654 2.758.911 4.148 1.16.923.167 1.877.337 2.767.623 2.426.78 4.423 2.557 6.355 4.277l.223.196a41.124 41.124 0 0 1 1.687 1.625c.934.931 1.896 1.897 3.009 2.698.287.208.62.39.941.565.496.272 1.112.61 1.16.894.026.153-.103.39-.364.669-1.083 1.164-3.023 1.62-4.739 2.019-.255.06-.509.12-.754.18-.58.144-.934.645-.86 1.216.08.593.569 1.025 1.166 1.025.1 0 .204-.013.306-.037 3.142-.755 6.135-1.69 8.184-4.757.29-.44.218-1.045-.172-1.441-1.18-1.189-2.299-2.484-3.379-3.738-.708-.819-1.431-1.656-2.179-2.475 3.366-.017 6.908-1.284 10.258-2.613 1.29.836 2.585 1.699 3.845 2.534a309.57 309.57 0 0 0 5.353 3.508c3.902 2.478 8.292 4.019 12.539 5.513l1.324.467c3.616 1.282 7.716 2.735 9.957 5.915 2.84 4.024.015 10.647-2.1 13.927-5.512 8.541-16.743 13.061-25.77 16.692-7.878 3.17-15.985 6.167-23.826 9.064-2.304.851-4.606 1.704-6.906 2.559-3.825 1.425-7.346 3.685-10.749 5.87-4.181 2.683-8.502 5.458-13.28 6.556-1.67-.47-3.216-.708-4.596-.708-2.536 0-4.61.795-6.165 2.361-.569.572-1.26 1.082-2.105 1.554-3.214-2.94-6.874-5.526-10.416-8.029-1.795-1.267-3.65-2.581-5.415-3.915-5.845-4.424-12.223-9.023-19.225-12.695-5.254-2.754-11.001-4.206-16.558-5.609-1.98-.502-4.026-1.016-6.025-1.588-4.385-1.248-7.91-3.821-11.319-6.31-2.143-1.564-4.352-3.176-6.779-4.475.89-1.494 1.418-3.269 1.572-5.282.413-5.427-1.808-11.076-5.653-15.24zm47.72-7.267c-.654 1.391-3.182 2.016-5.023 2.47-.409.102-.791.196-1.12.29-3.12.883-6.385 1.513-9.538 2.122-.716.137-1.432.277-2.146.416-3.535.698-7.05 1.05-10.454 1.05h-.16c-1.757-.005-3.527-.762-5.261-2.251a1.448 1.448 0 0 0-.386-.86 1.253 1.253 0 0 0-.636-.357 1.267 1.267 0 0 1-.022-.856c.483-1.521 3.48-2.99 5.268-3.867.718-.353 1.285-.63 1.63-.864a1.03 1.03 0 0 0 .472-.792c3.45-1.307 9.915-2.238 15.675-2.238 6.189 0 10.456 1.06 11.706 2.91.524.777.522 1.703-.006 2.827zm13.714-22.393c3.125.139 6.273.203 9.315.266 10.394.21 20.21.408 30.207 3.353 4.226 1.245 8.669 2.124 12.967 2.976 8.143 1.61 16.566 3.278 23.735 7.499.372.218.748.45 1.115.677a45.998 45.998 0 0 1-3.968 1.03c-.711.15-1.43.258-2.124.362-1.12.169-2.274.344-3.415.697a21.203 21.203 0 0 0-1.708-1.379c-1.759-1.267-5.232-3.412-8.787-3.627a42.487 42.487 0 0 0-12.08-1.78c-4.454 0-10.794.749-15.855 4.288-1.773-.36-3.682-.532-5.822-.532-3.788 0-7.581.545-11.247 1.073l-1.015.146c-6.292.895-12.936 2.082-19.045 4.638-.107-.66-.3-1.27-.58-1.818-1.428-2.816-4.691-4.573-9.7-5.225a54.669 54.669 0 0 0-6.943-.438c-5.103 0-14.398.737-19.519 5.65-3.927.559-7.846 3.415-8.046 7.915-.466.08-.931.157-1.4.238a85.708 85.708 0 0 1-2.695.437c-2.042.308-4.154.625-6.014 1.673a.74.74 0 0 0-.201.165 20.275 20.275 0 0 0-4.672-3.177c-2.442-1.194-5.265-1.774-8.626-1.774-.288 0-.582.004-.88.012 3.2-4.431 5.12-8.937 6.967-14.258 1.163-3.343 2.365-6.203 3.677-8.743.557-1.077 1.282-2.075 1.984-3.04.623-.858 1.265-1.74 1.798-2.692 6.802-.316 12.064-.458 17.028-.458 2.545 0 5.02.041 7.358.12 6.482.218 12.98 1.56 19.263 2.857 6.152 1.268 12.513 2.583 18.928 2.869zm-87.468-4.15c5.006-.19 10.11-.465 15.051-.73 1.631-.087 3.264-.175 4.899-.26-1.607 2.219-2.646 4.95-3.576 7.398-.167.434-.329.862-.49 1.276-.841 2.15-1.567 4.38-2.27 6.538-1.462 4.491-2.974 9.14-5.581 13.226-.04.067-.074.132-.099.2-.996.097-2.041.235-3.179.416-4.044.644-9.685 2.43-12.624 5.377a11.8 11.8 0 0 0-1.988-.715c.154-.062.295-.155.42-.275 11.225-10.797 5.299-24.5.3-32.221 2.716-.025 5.65-.1 9.137-.23zm-51.821 8.133c2.098 1.23 4.142 2.605 6.303 4.062 5.325 3.59 10.83 7.298 17.185 8.6a59.533 59.533 0 0 0 5.748 5.272c.328.261.901.705 1.647 1.232-2.777-.183-5.456-.804-8.266-1.458a119.308 119.308 0 0 0-3.597-.796l-.06-.026c-6.931-2.956-12.065-6.877-16.155-12.34a41.33 41.33 0 0 1-3.073-4.762c.074.082.162.156.268.216zm43.253 17.032c-.79-.468-1.642-.688-2.534-.916-.451-.118-.92-.237-1.402-.395-.97-.32-1.986-.836-3.101-1.577.405-6.399-1.65-14.207-6.106-23.211a129.57 129.57 0 0 0-.677-1.345.734.734 0 0 0-.658-.396.8.8 0 0 0-.621.294.698.698 0 0 0-.131.622c.067.237.13.471.193.704l.118.439c1.183 4.296 2.125 8.144 2.884 11.762.534 2.568.614 5.177.66 7.712-4.166-3.646-7.692-7.976-10.625-11.79l-.073-.287a92.22 92.22 0 0 1-.848-3.594c-.314-1.505-.563-3.12-.785-5.083-.123-1.086-.23-2.171-.316-3.222-.074-.887-.14-1.774-.21-2.662l-.069-.914c-.13-1.739-.247-3.203-.406-4.696-.047-.472-.478-.843-.98-.843a.88.88 0 0 0-.873.68 38.026 38.026 0 0 0-.812 4.94 48.121 48.121 0 0 0-.199 6.506c.019.567.05 1.137.09 1.705a218.728 218.728 0 0 1-1.545-2.245c-.74-1.095-1.476-2.2-2.185-3.285l-.426-.653c-.422-.643-.842-1.284-1.253-1.931-.891-1.4-1.81-2.864-2.73-4.357a31.904 31.904 0 0 1-1.129-2.033c-.296-.57-.594-1.165-.899-1.774-1.08-2.16-2.2-4.393-3.566-6.248a.582.582 0 0 0-.11-.147c-.754-1-1.49-1.77-2.257-2.352a1.131 1.131 0 0 0-.674-.223c-.474 0-.845.292-.927.726-.6 3.139 1.07 7.02 2.968 10.748.286.56.569 1.105.84 1.629a41.128 41.128 0 0 0 1.934 4.823c.357.753.745 1.526 1.159 2.295a62.052 62.052 0 0 0 1.73 3.035c.076.125.153.253.233.38-.62-.376-1.219-.751-1.775-1.1l-.105-.065c-1.486-.931-3.022-1.893-4.617-2.734-.115-.06-.218-.085-.285-.102a1.517 1.517 0 0 0-.397-.056 1.24 1.24 0 0 0-.371.054 1.35 1.35 0 0 0-.9.916c-.12.426-.005.865.313 1.202a23.588 23.588 0 0 0 1.995 1.846c1.316 1.104 2.815 2.169 4.862 3.456.313.197.645.422.992.66 1.328.903 2.82 1.921 4.39 2.168a156.066 156.066 0 0 0 3.798 5.806 100.002 100.002 0 0 0 3.2 4.388 52.01 52.01 0 0 1-4.417-1.863c-2.217-1.078-4.437-2.149-6.659-3.221-1.988-.96-3.978-1.92-5.965-2.884a1.074 1.074 0 0 0-.472-.11c-.449 0-.85.296-.975.722a.895.895 0 0 0-.004.501c-1.534-2.84-2.786-5.917-3.737-9.206a50.338 50.338 0 0 1-.987-4.013 51.268 51.268 0 0 1-.345-1.828c-.35-2.097-.58-4.27-.683-6.46a56.17 56.17 0 0 1 1.08-13.899c7.956 1.692 16.578 6.025 25.635 12.889a118.578 118.578 0 0 1 7.562 6.25c.796.715 1.5 1.362 2.15 1.972a71.537 71.537 0 0 1 3.344 3.36 60.14 60.14 0 0 1 2.898 3.343c7.263 9.045 9.545 17.516 6.793 25.187zm-49.725 7.206c-1.278 1.019-2.555 2.19-3.997 3.665a1.325 1.325 0 0 0-.428-.011 42.393 42.393 0 0 1-5.68.373c-11.634 0-23.163-4.414-34.314-8.684-2.923-1.12-5.684-2.176-8.455-3.159-8.504-3.018-17.518-4.67-27.556-5.043-1.918-.07-3.837-.133-5.756-.195-4.053-.132-8.246-.27-12.36-.491-3.077-.165-6.177-.574-9.193-.988 1.31-.647 2.52-1.35 3.67-2.13 2.306-1.564 4.901-1.96 7.81-2.29 3.71-.42 7.292-1.509 10.756-2.562l.958-.29c4.579-1.388 8.423-2.062 11.751-2.062h.14c1.137.006 2.29.161 3.405.31 1.18.16 2.397.324 3.638.324.175 0 .351-.005.526-.012 2.143-.083 4.283-.153 6.419-.222 6.293-.207 12.802-.42 19.228-.998 7.965-.716 16.327-2.828 21.922-4.357 3.636-.991 7.347-1.87 11.032-2.609 1.493-.3 3.027-.664 4.516-1.02 1.953 6.549 4.993 12.449 9.037 17.535 2.148 2.705 4.746 5.078 7.915 7.227-5.097 1.196-10.01 3.721-14.984 7.689zm-4.242-38.02c-4.721.907-9.312 2.306-13.75 3.66-2.849.864-5.79 1.761-8.738 2.517-6.315 1.625-13.323 1.82-20.1 2.01-2.08.057-4.23.118-6.287.22-2.27.113-4.503.334-6.663.55-3.101.307-6.028.597-9.068.597-1.32 0-2.545-.054-3.747-.168a21.026 21.026 0 0 0-1.936-.088c-4.259 0-8.475 1.248-12.552 2.455-3.06.906-6.227 1.842-9.31 2.207-4.514.533-8.08.952-12.215 3.36-4.51 2.626-10.186 3.863-15.674 5.06-.768.166-1.53.332-2.278.5-1.274-.367-2.577-.674-3.836-.971-.77-.183-1.524-.36-2.25-.548l-.42-.104c7.395-2.684 14.925-4.955 23.223-7.413a5651.352 5651.352 0 0 0 28.567-8.544c12.649-3.811 26.148-4.177 39.204-4.534 3.18-.086 6.468-.174 9.684-.312 9.56-.412 19.122-.918 28.883-1.444.046.277.094.56.146.843-.315.044-.608.094-.883.148zM41.128 57.13c-2.735 2.04-5.289 4.575-7.76 7.028-1.09 1.083-2.217 2.201-3.318 3.232-.421.396-.87.809-1.336 1.239-5.465 5.044-13.724 12.663-11.57 20.489 2.378 8.64 12.829 13.723 20.46 17.433l.137.066c9.698 4.716 19.474 7.688 28.272 8.595 6.617.681 12.882 2.138 17.663 3.358.454 2.227.428 5.092.407 7.413-.01 1.178-.019 2.198.029 3.015l.005.071c.138 2.375.322 5.508 1.42 8.032-8.357-2.196-18.898-5.203-28.58-9.272-8.307-3.492-16.056-8.274-23.923-13.28-7.996-5.09-17.098-11.158-23.903-18.762-7.91-8.837.193-16.83 7.343-23.884a150.99 150.99 0 0 0 2.96-2.97c1.03-1.074 1.985-2.192 2.907-3.272 1.929-2.26 3.752-4.396 6.212-6.153 4.077-2.912 8.754-5.067 13.197-7.027 1.53-.675 3.187-1.365 5.207-2.17 2.118.214 4.092.565 6.017 1.075-4.77 1.456-8.567 3.301-11.846 5.745z"/>
        <path d="M324.808 91.492c4.311 2.368 9.478 2.882 14.475 3.38 2.854.285 5.551.553 8.1 1.143 1.436.33 2.921.705 4.357 1.07 5.088 1.287 10.347 2.615 15.619 2.615a27.55 27.55 0 0 0 4.66-.383c6.63-1.136 13.142-6.23 12.15-13.43-1.028-7.429-10.22-9.804-14.126-10.48a47.648 47.648 0 0 0-1.16-.188c-5.808-2.308-14.595-5.044-23.572-5.044-8.14 0-14.906 2.23-20.113 6.627-3.188 2.689-4.899 6.076-4.584 9.059.244 2.312 1.695 4.259 4.194 5.63zm25.99-14.09c-.437.32-.61.915-.422 1.443.164.456.555.74 1.026.74.152 0 .31-.03.466-.092 2.759-1.08 5.886-1.65 9.046-1.65 2.073 0 4.098.243 6.014.721 7.383 1.85 11.542 4.467 12.714 8.005.663 2.008.471 3.718-.571 5.08-2.128 2.782-7.37 3.773-11.567 3.773-.7 0-1.368-.028-1.986-.084-4.198-.378-8.365-1.463-12.394-2.51-2.039-.532-4.147-1.08-6.238-1.533-2.472-.533-5.01-.843-7.464-1.14-2.98-.364-6.062-.74-9.012-1.52-1.083-.288-3.96-1.05-4.67-2.466-.238-.473-.222-.997.048-1.602 1.708-3.819 7.027-6.169 8.618-6.8 3.945-1.562 8.575-2.354 13.76-2.354 1.883 0 3.859.107 5.9.315-1.256.432-2.349.993-3.268 1.673z"/>
        <path d="M347.022 78.692c-.434 0-.834.214-1.047.558-.195.321-.205.703-.021 1.06-1.192.349-2.38.786-3.534 1.21-2.536.932-5.156 1.898-7.808 1.898-.071 0-.142 0-.215-.002h-.002c-.734 0-1.296.472-1.4 1.15-.106.704.306 1.334 1 1.534 4.769 1.355 8.67 1.985 12.283 1.985a29.34 29.34 0 0 0 3.034-.154c.607-.065.984-.598.992-1.073.01-.485-.329-.86-.842-.93-1.209-.17-2.43-.322-3.613-.465-1.29-.159-2.605-.318-3.918-.506.481-.15.96-.3 1.431-.453 1.667-.532 3.246-1.037 4.87-1.333 4.668 4.324 12.32 4.845 18.498 5.262a13.772 13.772 0 0 0 2.602.181c.978-.027 1.683-.684 1.712-1.597.026-.818-.543-1.695-1.678-1.792a97.486 97.486 0 0 0-2.587-.178c-2.48-.413-4.686-1.469-7.024-2.59-2.26-1.081-4.6-2.2-7.214-2.691a10.94 10.94 0 0 0-2.024-.185c-.645 0-1.306.053-2.012.157a8.986 8.986 0 0 1-.497-.569 1.254 1.254 0 0 0-.986-.477zM308.347 55.554c-.12-.001-.237.012-.358.036-.647.135-1.356.264-2.105.407-1.347.25-2.872.533-4.374.894-.631-.06-1.286-.146-1.919-.228-.875-.114-1.78-.233-2.687-.293a7.073 7.073 0 0 0-.502-.017c-2.518 0-4.665 1.239-6.564 3.786a.722.722 0 0 0-.058.793c.147.28.45.461.772.461a.797.797 0 0 0 .615-.288c1.074-1.293 2.4-1.904 4.275-1.96-.944.564-1.7 1.193-2.29 1.898-.378.452-.447 1.127-.171 1.677.235.469.678.746 1.184.746.174 0 .35-.033.529-.096 1.032-.373 2.025-.825 2.987-1.26 1.228-.556 2.497-1.132 3.829-1.536.854-.257 1.742-.485 2.6-.706l.045-.011c1.836-.12 3.476-.633 5.014-1.563.6-.362.866-1.012.674-1.653a1.544 1.544 0 0 0-1.496-1.087zM387.484 56.998c-1.36-.322-2.818-.498-4.36-.684-1.646-.197-3.335-.4-4.885-.798a12.922 12.922 0 0 1 3.75-.546c1.322 0 2.676.191 4.022.572.148.04.296.061.44.061.703 0 1.275-.496 1.39-1.206.117-.726-.292-1.359-1.015-1.577-2.657-.803-4.687-1.163-6.586-1.164-2.709 0-5.156.784-7.472 2.397-.562.39-.883.962-.877 1.568.002.597.324 1.157.882 1.535 2.358 1.598 5.491 2.027 8.253 2.406.496.068.983.134 1.457.205.423.064.877.121 1.347.18 2.283.283 4.873.605 6.222 2.086.201.22.48.339.79.339.277 0 .563-.102.789-.277.902-.713.959-1.424.847-1.894-.48-2.014-4.95-3.192-4.994-3.203zM254.94 122.327c3.763 2.294 8.704 3.509 14.29 3.509 7.158 0 14.992-1.977 20.954-5.286 4.431-2.46 6.732-5.853 6.472-9.552-.286-4.097-3.736-7.94-9.008-10.04-4.173-2.601-9.416-3.976-15.167-3.976-5.455 0-11.162 1.186-16.503 3.429-4.244 1.783-8.877 5.346-9.154 9.993-.351 5.851 4.934 9.981 8.115 11.923zm-3.132-11.956c.607-3.374 5.335-5.45 8.837-6.719 4.37-1.581 9.874-2.527 14.718-2.528 3.68 0 6.896.513 9.566 1.522.097.157.217.284.36.386.567.41 1.19.816 1.849 1.247 2.936 1.923 6.268 4.103 6.208 7.463-.043 2.446-2.758 4.748-8.07 6.842-4.546 1.793-9.702 2.782-14.52 2.782-4.647 0-8.996-.912-12.575-2.639-2.802-1.35-7.01-4.812-6.373-8.356z"/>
        <path d="M256.77 110.342c2.217.3 4.518.929 6.955 1.594 3.497.958 7.115 1.946 10.626 1.946 2.846 0 5.285-.65 7.458-1.985.72-.443 1.024-1.174.799-1.911-.233-.758-.961-1.286-1.776-1.286-.278 0-.557.059-.827.179a16.496 16.496 0 0 1-5.828 1.123c-.387.023-.706.189-.906.451-3.071-.065-6.356-.83-9.536-1.574-.458-.107-.905-.213-1.347-.314 1.5-.377 2.926-.563 4.32-.563 1.192 0 2.379.14 3.523.42.079.018.16.028.238.028.458 0 .84-.326.906-.775.068-.446-.203-.847-.654-.971-2.112-.588-4.027-.873-5.863-.873-2.7 0-5.306.593-8.45 1.92-.543.228-.845.804-.753 1.433.087.615.536 1.079 1.116 1.158zM127.463 88.853c2.131 1.536 4.776 2.473 7.336 3.378 1.262.448 2.454.87 3.582 1.357.154.067.314.1.483.1.51 0 .987-.313 1.158-.758.156-.4.03-.831-.329-1.127-1.104-.908-2.982-1.623-4.972-2.381l-.119-.047c-.44-1.12-1.173-2.053-1.883-2.957a35.337 35.337 0 0 1-.668-.868 41.088 41.088 0 0 1-3.14-4.936 1.19 1.19 0 0 0-1.082-.643c-.44 0-.886.215-1.164.56-1.337 1.665-1.91 3.247-1.705 4.706.191 1.338 1.033 2.556 2.503 3.616zm.344-4.89c.657 1.128 1.384 2.289 2.193 3.364-.98-.59-1.798-1.287-2.104-2.114a2.265 2.265 0 0 1-.089-1.25zM114.227 65.004c.218-1.727-.38-3.509-1.636-4.892-1.268-1.398-3.049-2.218-4.885-2.254h-.001c-.57 0-1.04.307-1.254.798a1.307 1.307 0 0 0-.084.263c-3.92-1.496-8.599-2.282-13.63-2.282-8.727 0-17.781 2.317-24.22 6.199-4.816 2.903-7.32 7.975-6.38 12.922.878 4.613 4.516 7.98 9.73 9 1.653.321 3.416.486 5.237.486 8.836 0 19.808-3.961 29.347-10.595 3.088-2.148 7.253-5.486 7.776-9.645zm-4.08.857c-1.477 3.143-5.09 5.532-8.36 7.526-8.224 5.017-17.493 7.893-25.426 7.893a32.45 32.45 0 0 1-1.808-.05c-2.588-.142-7.13-1.055-8.474-5.566-1.647-5.525 3.42-9.203 7.96-11.315 5.839-2.719 13.852-4.341 21.433-4.341 5.15 0 9.773.763 13.37 2.208a.966.966 0 0 0 .542.057c1.117 1.01 1.54 1.935.764 3.588z"/>
        <path d="M97.35 61.781a.939.939 0 0 0-1.012.732.898.898 0 0 0 .497 1.04c.13.057.28.12.443.19.61.254 1.746.731 1.846 1.188.04.182-.13.405-.283.562-.668.691-1.698 1.277-2.608 1.793-.168.096-.334.19-.494.284-1.743 1.01-3.685 1.881-5.793 2.6a.872.872 0 0 0-.807-.52c-.1 0-.2.016-.299.047a42.9 42.9 0 0 0-5.415 2.087 28.247 28.247 0 0 1-3.893.265c-.834 0-1.69-.125-2.515-.247l-.13-.019c-.415-.06-.508-.163-.508-.164-.035-.404 1.587-1.71 2.223-2.003 4.923-2.273 9.393-2.528 14.57-2.823.628-.036 1.27-.073 1.922-.115a1.176 1.176 0 0 0 1.115-1.062c.049-.547-.297-1-.86-1.13-2.398-.553-4.76-.834-7.024-.834-2.018 0-4.03.223-5.979.661-4.365.983-5.876 3.576-7.79 6.86l-.249.426a.732.732 0 0 0 .314 1.034c1.406.688 3.034 1.12 4.86 1.292-.41.257-.82.529-1.237.813-.586-.602-1.267-1.053-2.505-1.061-.423 0-.796.2-1.01.538-.22.351-.234.792-.035 1.154.513.941 1.215 1.758 1.893 2.548l.13.152a1.5 1.5 0 0 0 1.164.517c.438 0 .892-.16 1.25-.441.459-.36.918-.726 1.378-1.093 1.413-1.128 2.873-2.291 4.39-3.306 4.933-.69 9.35-2.515 11.555-3.552 2.278-1.069 5.212-3.75 4.8-6.006-.17-.926-.985-2.1-3.904-2.407zM171.924 45.798a4.346 4.346 0 0 0-.267-.122 4.31 4.31 0 0 1-.126-.057c-.451-.385-.926-.735-1.445-1.065a1.243 1.243 0 0 0-1.207-.1c-3.93-1.52-8.163-2.29-12.584-2.29-1.909 0-3.875.145-5.848.43-10.241 1.488-16.167 5.343-17.14 11.149-.18 1.073.372 1.97 1.372 2.23 1.238.327 2.483.669 3.8 1.033 6.041 1.665 12.886 3.552 19.384 3.552 2.442 0 4.655-.254 6.763-.777 4.597-1.138 8.332-4.137 9.294-7.461.437-1.51.487-3.755-1.654-6.006a.615.615 0 0 0-.342-.516zm-1.508 6.159c-1.537 3.403-9.112 4.988-13.75 4.988a17 17 0 0 1-1.108-.033c-5.87-.38-11.747-2.034-17.745-3.877 2.77-4.832 9.3-6.284 14.745-7.004 2.974-.392 5.82-.592 8.465-.592 2.66 0 5.05.209 7.113.615.058.177.156.34.291.477 2.017 2.052 2.686 3.876 1.989 5.426z"/>
        <path d="M161.249 48.608a24.848 24.848 0 0 0-1.82-.06c-1.471 0-2.958.105-4.395.21l-1.07.076c-.51.034-1.045.051-1.56.068-1.647.055-3.348.113-4.926.696-.468.175-.766.584-.761 1.044.006.451.31.846.774 1.007.828.286 1.752.422 2.825.422.908 0 1.825-.097 2.71-.19.345-.036.688-.074 1.03-.104 1.119-.1 2.259-.182 3.364-.263 1.26-.09 2.563-.183 3.843-.304.849-.082 1.286-.73 1.278-1.33-.01-.695-.54-1.22-1.292-1.272zM205.103 105.384c-2.191-2.329-5.755-3.954-8.666-3.954-.109 0-.215.003-.323.007a1.213 1.213 0 0 0-.891.429c-3.895-.756-8.126-1.137-12.59-1.137a78 78 0 0 0-10.26.674c-4.27.566-8.952 2.51-9.784 5.572-.537 1.975.6 3.993 3.376 5.998 3.581 2.59 8.038 3.32 12.347 4.025.518.084 1.034.168 1.544.254 5.02.854 10.858 1.768 16.648 1.768.422 0 .841-.006 1.259-.017 4.82-.114 8.976-3.712 9.461-8.19.201-1.864-.53-3.742-2.12-5.429zm-1.953 5.74c-.42 1.73-2.153 3.365-4.217 3.981-.804.24-1.757.356-2.914.356-1.635 0-3.424-.24-5.003-.45a69.15 69.15 0 0 0-2.122-.263c-.822-.082-1.686-.16-2.577-.24-6.507-.587-14.606-1.316-19.192-5.493-.601-.547-.833-1.014-.688-1.389.586-1.516 6.208-2.76 14.323-3.167l.168-.009c2.485-.123 5.054-.252 7.633-.252 3.773 0 6.802.277 9.523.862l.022.012c1.355.74 2.635 1.437 3.784 2.48 1.14 1.037 1.576 2.271 1.26 3.571z"/>
        <path d="M194.552 109.43c-1.574-1.034-3.636-1.144-5.455-1.242-.55-.029-1.072-.057-1.57-.108l-.46-.045c-3.123-.311-7.01-.696-9.798-2.008-.148-.07-.3-.105-.454-.105a.951.951 0 0 0-.902.631c-.135.391.007.808.36 1.06 2.747 1.958 5.17 2.943 8.646 3.52.37.061.756.13 1.157.202 1.632.29 3.48.62 5.221.62 1.176 0 2.153-.148 2.985-.454.448-.165.76-.535.813-.968.053-.431-.15-.841-.543-1.103z"/>
    </g>
</svg>
