<svg xmlns="http://www.w3.org/2000/svg" width="374" height="170" viewBox="0 0 374 170">
    <g fill="#FFF" fill-rule="nonzero">
        <path d="M371.592 84.258c.4-.343.633-.864.46-1.475-5.303-18.853-31.688-18.953-47.111-15.185-9.678 2.364-18.935 6.653-27.042 12.278-4.008 2.784-12.193 8.724-14.053 14.49-2.747-5.12-9.347-9.517-14.417-11.03-6.157-1.839-12.684.961-18.113 3.557-1.3.623-1.525 1.841-1.103 2.883-7.379-.279-14.937 1.006-22.086 2.192-5.307.88-10.5 2.118-15.652 3.635-4.82 1.421-9.301 3.652-14.12 5.035-11.833 3.396-23.076 2.106-35.042.942-5.857-.57-11.844-.68-17.66-1.55-7.733-1.156-9.872-6.414-13.501-12.322-3.415-5.561-10.35-8.418-14.188-13.783-4.127-5.769-8.438-11.414-12.55-17.196-7.831-11.005-15.614-21.976-24.66-32.086C72.883 15.845 64.277 7.35 52.96 2.995 43.994-.457 33.638-.243 24.6 2.757 14.1 6.244 5.908 14.003.888 23.494c-.489.926-.072 2.031.979 2.34 5.411 1.59 11.175.167 16.723.431 6.307.301 12.67 4.853 16.92 9.055 7.579 7.493 11.657 17.266 14.465 27.25 2.634 9.368 3.61 19.004 5.53 28.506 2.235 11.064 7.49 21.683 14.602 30.546 14.974 18.66 37.628 32.998 60.502 40.65 25.796 8.633 54.033 8.3 80.668 4.182a236.575 236.575 0 0 0 43.68-11.101c12.268-4.4 24.423-10.159 34.066-18.861a16.172 16.172 0 0 0 3.796 1.858c1.005.335 2.145-.214 2.668-1.057 5.802-9.34 3.467-22.123-.646-31.781 6.149-12.428 18.665-20.427 32.407-22.895 6.183-1.11 13.674-.815 19.477 1.71 7.71 3.356 10.079 10.352 9.433 17.976-.11 1.304 1.139 2.133 2.305 2.244 8.12.768 14.784-8.548 15.095-15.929.079-1.84-.693-3.37-1.966-4.36zm-87.033 48.165l-.007-.009.007.009zm-7.693-16.435c.001.009.005.017.006.026-.01-.004-.017-.01-.028-.013.008-.005.016-.008.022-.013zM50.262 51.283c-.007-.016-.013-.033-.021-.049.285.196.596.352.924.463-.2.203-.354.455-.44.765-.155-.393-.304-.787-.463-1.18zM37.005 31.677c.044.1.095.198.14.298-.123-.107-.25-.212-.377-.316.079.01.158.014.237.018zm14.34 10.049c-.067-.17-.137-.34-.204-.509l.336.549c-.045-.013-.089-.03-.133-.04zm-40.1-18.576c-.51.041-1.019.078-1.527.11a21.296 21.296 0 0 1 1.63-.567 4.492 4.492 0 0 0-.104.457zm9.785.109a26.43 26.43 0 0 1 2.128.29c.391.166.78.34 1.173.497a42.94 42.94 0 0 1 4 2.124 42.058 42.058 0 0 0-6.218-2.612 14.05 14.05 0 0 0-1.083-.3zm193.633 136.998c-20.81 3.615-42.509 4.574-63.397 1.048 3.398-4.604 4.14-10.77 5.039-16.284 1.209-7.413 3.013-15.105 2.48-22.663-.05-.704-1.176-.712-1.134 0 .384 6.564-1.478 13.426-3.187 19.723-1.037 3.823-3.231 7.272-4.822 10.886-1.096 2.493-2.287 5.334-4.426 7.172-4.925-1.05-9.8-2.35-14.592-3.952-23.634-7.898-47.198-24.393-61.094-44.699-10.777-15.75-11.302-34.82-16.587-52.516a44.375 44.375 0 0 0 1.267-3.634c2.695.65 4.501 2.347 5.98 4.425 6.232 15.894 9.486 32.958 18.653 47.6.057.091.187.011.144-.082-9.234-20.03-10.135-42.798-19.45-62.822-4.27-9.18-10.692-17.373-19.565-22.723-8.654-5.218-20.968-7.625-30.982-4.421C21.557 2.955 43.26.652 60.04 12.057c11.61 7.89 20.459 20.601 28.674 31.576 8.015 10.705 15.192 22.072 23.738 32.39.94 1.136 1.957 2.182 3.011 3.187-.71 2.66-.302 5.783-.342 8.42-.082 5.445-2.165 10.286-5.12 14.83-.352.544.456 1.145.91.683 3.432-3.507 5.392-7.653 6.479-12.34.56-2.417 1.653-5.261 2.149-8.045 2.7 2.181 5.51 4.25 8.135 6.552 2.289 2.008 3.44 5.465 4.82 8.061 1.215 2.285 2.955 3.973 5.048 5.477-.717 3.658.846 7.374 2.176 10.784 1.936 4.97-.495 11.683-2.13 16.445-.2.584.717.807.935.25 2.225-5.695 2.307-10.838 3.341-16.695.525-2.971.602-6.225-.583-8.988 3.454 1.05 7.488 1.064 10.816 1.225 5.73.28 11.472 1.263 17.204 1.26 5.566-.004 11.409-.79 16.988-1.134 5.69-.35 11.38-1.06 16.865-2.604 10.177-2.864 20.056-5.425 30.604-6.94 6.011-.864 12.446-1.617 18.647-1.336-1.454.206-2.906.388-4.352.577-5.677.742-11.043 1.817-16.502 3.5-11.697 3.605-23.626 6.142-35.066 10.612-.154.059-.121.25.038.27 5.586.715 11.556-.997 17.018-2.043 6.52-1.246 13.138-1.618 19.595-3.244 5.88-1.483 11.442-2.792 17.493-3.591 1.85-.244 4.01-.373 6.14-.672-4.53 5.965-7.048 15.562-3.96 21.384.159.3.379.495.62.632.249.74.572 1.479.99 2.213.635 1.112 1.95 1.24 3.032.774l.394-.168c.073.023.15.045.233.057 5.34.726 10.8-.815 15.718-3.026a36.34 36.34 0 0 0 2.239 6.737c-14.68 8.895-30.965 14.704-47.814 18.616-19.39 4.501-39.164 5.062-58.795 7.856-.769.11-.77 1.401 0 1.507 19.309 2.655 39.713.065 58.65-3.892 17.755-3.71 35.136-9.964 50.484-19.463a31.704 31.704 0 0 0 3.116 4.015c-19.247 13.091-44.498 18.581-67.013 22.491zm136.625-78.02c-6.167-5.188-14.263-6.368-22.125-5.556-5.57.574-11.577 2.21-17.12 4.816-4.452 1.558-8.733 3.604-12.668 6.118-5.132 3.28-9.484 7.942-11.549 13.6-2.852 7.812 1.623 16.08 2.5 23.759.039.346.595.36.566 0-.535-6.97-2.78-14.712-.763-21.536.786-2.656 2.566-5.055 4.752-7.166-1.569 2.768-2.636 5.8-3.038 9.09-.017.156-.001.302.038.438-.758 9.264 4.521 18.535.48 27.381-.06-.03-.118-.064-.178-.096.19-1.131-1.123-2.196-2.29-1.63-5.325-4.758-7.667-14.121-8.919-20.216-.305-1.486-2.46-2.388-3.75-1.484-6.153 4.305-13.025 7.69-19.817 10.986-1.198-4.154 2.185-8.148 4.656-11.569 2.563-3.546 5.838-7.739 6.674-12.079.32-1.665-.723-3.108-2.506-3.2-1.076-.055-1.964-.174-2.727-.368a.319.319 0 0 0-.042-.011c-2.27-.591-3.41-1.865-5.12-4.173-.013-.019-.031-.035-.044-.054 3.444-1.36 7.01-2.167 10.795-1.173 6.326 1.66 9.317 8.283 15.102 10.42a.56.56 0 0 0 .622-.14c.168-.013.342-.054.517-.148 2.264-1.21 4.2-4.214 5.998-6.067 2.797-2.887 6.069-5.32 9.41-7.577 7.149-4.835 15.254-8.426 23.587-10.825 8.135-2.34 16.926-3.33 25.305-1.727 7.946 1.518 13.042 5.881 18.558 11.01-4.168-.157-8.666 4.02-10.707 7.374-1.498-3.108-3.518-5.942-6.197-8.197zm16.324 8.311c-.659 2.426-2.304 4.677-3.945 6.562-1.29 1.483-2.023 2.207-3.275 2.6a38.301 38.301 0 0 0-1.617-6.171c.17-.027.344-.073.52-.152 2.8-1.27 5.034-3.316 7.76-4.714a3.74 3.74 0 0 1 .898-.284c.119.695-.17 1.516-.341 2.16z"/>
        <path d="M149.185 121.131c1.146 4.004.836 7.451-.473 11.354-1.07 3.189-3.059 6.055-3.526 9.415-.04.283.324.477.497.204 3.661-5.776 7.423-14.659 4.062-21.204-.158-.308-.652-.09-.56.231zM126.186 94.128c-1.23 3.671-.717 7.827-1.406 11.637-.972 5.387-2.81 9.5-6.473 13.727-.308.355.15.787.518.503 6.583-5.09 11.846-18.146 8.203-25.974-.176-.38-.73-.225-.842.107zM69.991 29.309c-5.455-6.531-18.133-18.992-28.167-15.272-.344.127-.54.677-.115.861 4.328 1.885 8.606 2.892 12.675 5.508 5.275 3.393 9.734 7.833 14.112 12.23 8.033 8.07 14.146 17.425 21.535 25.957.322.37.957-.114.687-.515-6.552-9.751-13.174-19.73-20.727-28.769z"/>
    </g>
</svg>
