<svg xmlns="http://www.w3.org/2000/svg" width="73" height="80" viewBox="0 0 73 80">
    <g fill="none" fill-rule="evenodd">
        <path fill="#C4A782" d="M1.61 10.807c22.704-13.45 45.656-13.45 68.854 0-8.437 19.214-19.913 41.791-34.427 67.73L1.61 10.807z"/>
        <g fill-rule="nonzero">
            <path fill="#312C2C" d="M36.112 80a.97.97 0 0 1-.861-.52L5.663 22.426a.956.956 0 0 1 .333-1.244c9.103-5.863 19.516-8.96 30.116-8.96 10.598 0 21.012 3.098 30.114 8.96a.956.956 0 0 1 .333 1.245l-29.586 57.05a.97.97 0 0 1-.861.522zM7.788 22.327l28.324 54.614 28.321-54.613c-8.61-5.358-18.383-8.184-28.322-8.184-9.94 0-19.713 2.826-28.323 8.183z"/>
            <path fill="#312C2C" d="M36.112 80a.976.976 0 0 1-.865-.523L.107 11.843a.958.958 0 0 1 .336-1.249C11.224 3.664 23.558 0 36.112 0c12.553 0 24.887 3.664 35.667 10.596.419.27.564.81.336 1.25L36.977 79.477a.974.974 0 0 1-.865.522zM2.243 11.741l33.869 65.19 33.867-65.188C59.692 5.318 48.002 1.926 36.111 1.926c-11.89 0-23.581 3.39-33.868 9.815z"/>
            <path fill="#FFF" d="M21.111 32.222c-3.064 0-5.555-2.243-5.555-5s2.492-5 5.555-5c3.064 0 5.556 2.243 5.556 5s-2.492 5-5.556 5zm0-8.18c-1.948 0-3.533 1.427-3.533 3.18 0 1.753 1.585 3.18 3.533 3.18 1.947 0 3.533-1.427 3.533-3.18 0-1.753-1.586-3.18-3.533-3.18zM45.556 44.444A5.561 5.561 0 0 1 40 38.89a5.562 5.562 0 0 1 5.556-5.557 5.562 5.562 0 0 1 5.555 5.557 5.562 5.562 0 0 1-5.555 5.554zm0-9.185a3.635 3.635 0 0 0-3.63 3.63c0 2.002 1.629 3.63 3.63 3.63a3.633 3.633 0 0 0 3.629-3.63 3.634 3.634 0 0 0-3.63-3.63zM39.992 30c-.455 0-.875-.156-1.217-.45-.7-.608-1.12-1.533-1.49-2.35-.105-.23-.243-.535-.364-.76l-2.51 1.71a.973.973 0 0 1-1.277-.161c-1.617-1.851-3.668-6.256.146-9.678 1.218-1.091 2.633-1.644 4.208-1.644 2.956 0 5.634 1.99 6.179 3.361.227.574.124 1.136-.279 1.502-.397.363-.964.86-1.465 1.295 1.781.927 2.624 1.854 2.512 2.763-.15 1.201-2.442 4.412-4.443 4.412zm0-1.898v.949-.95zm-2.951-3.74c1.067 0 1.543 1.05 2.003 2.064.283.625.603 1.33.978 1.674.658-.054 2.151-1.84 2.456-2.61-.339-.373-1.53-1.07-2.673-1.551a.94.94 0 0 1-.253-1.59c.014-.013 1.277-1.095 2.158-1.88-.537-.642-2.239-1.904-4.222-1.904-1.081 0-2.06.387-2.912 1.151-2.582 2.316-1.31 5.083-.488 6.348l2.082-1.419c.276-.189.569-.284.87-.284zM34.734 61.111c-2.956 0-5.634-1.99-6.18-3.361-.227-.574-.123-1.135.279-1.502.398-.363.965-.86 1.465-1.295-1.78-.928-2.624-1.854-2.51-2.763.15-1.201 2.441-4.412 4.441-4.412.456 0 .877.156 1.217.45.702.608 1.121 1.533 1.491 2.35.104.23.242.535.364.76l2.51-1.71a.974.974 0 0 1 1.277.161c1.618 1.852 3.669 6.256-.146 9.677-1.217 1.09-2.633 1.644-4.208 1.644v.001zm-4.222-3.803c.536.643 2.238 1.904 4.221 1.904 1.081 0 2.06-.387 2.912-1.15 2.566-2.301 1.302-5.075.485-6.345l-2.079 1.416c-.276.188-.57.283-.871.283-1.068 0-1.543-1.05-2.003-2.065-.283-.624-.603-1.33-.977-1.674-.66.056-2.153 1.84-2.457 2.61.339.375 1.53 1.072 2.673 1.552a.941.941 0 0 1 .254 1.59c-.014.013-1.277 1.095-2.158 1.88zM25.769 40a.891.891 0 0 1-.699-.346l-1.526-1.936a1.001 1.001 0 0 1 .085-1.325l2.907-2.808a.875.875 0 0 1 1.338.13l3.053 4.268c.198.277.24.645.108.963a.912.912 0 0 1-.741.572l-4.433.477a.744.744 0 0 1-.092.005zm-.273-2.808l.661.84 2.345-.253-1.476-2.064-1.53 1.477zM51.437 28.889a.998.998 0 0 1-.383-.076.91.91 0 0 1-.572-.741l-.477-4.434a.884.884 0 0 1 .34-.79l1.937-1.526a1 1 0 0 1 1.325.085l2.808 2.907a.877.877 0 0 1-.13 1.338l-4.268 3.053c-.17.121-.374.184-.58.184zm.532-4.954l.251 2.345 2.066-1.477-1.478-1.529-.84.66z"/>
        </g>
    </g>
</svg>
