<svg xmlns="http://www.w3.org/2000/svg" width="253" height="274" viewBox="0 0 253 274">
    <path fill="#FFF" fill-rule="nonzero" d="M241.547 148.961c-9.784-19.005-25.481-34.852-40.49-50.092-14.94-15.17-29.38-31.207-38.79-49.957-1.283-3.302-2.336-6.692-3.207-10.114-.822-3.23-.753-6.75-2.286-9.744-.286-.558-.768-.843-1.294-.934a76.976 76.976 0 0 1-.429-3.923.985.985 0 0 0-.253-.581 14.533 14.533 0 0 1-.003-1.373c-.003-1.017-1.59-1.008-1.63 0-.019.463-.064.921-.108 1.379a.84.84 0 0 0-.15.575c-.038.501-.078 1.008-.12 1.517-.334 2.018-.838 3.998-1.352 5.98a71.144 71.144 0 0 1-.505-1.837c-.5-6.236-.297-12.717-3.594-18.2a1.586 1.586 0 0 0-1.155-.767c-.468-1.599-.935-3.194-1.369-4.798-.48-1.779-3.609-1.99-3.936 0-.04.241-.06.481-.094.723-.61.282-1.062.866-1.05 1.753.028 2.472.05 5.135.246 7.644-.866-2.626-1.935-5.187-2.846-7.8-.843-2.419-2.333-5.164-2.604-7.657-.089-.819-1.32-1.093-1.56-.205a18.4 18.4 0 0 0-.598 3.622c-.443-.532-1.466-.38-1.528.49-.146 2.116-.166 4.176-.196 6.187-.547-.282-1.221-.332-1.796-.09-.18-.27-.483-.433-.822-.49-.963-1.027-3.23-.417-3.215 1.231.006.782.02 1.564.03 2.345a20.672 20.672 0 0 0-.455-.922c.142-.194.236-.422.232-.699a85.8 85.8 0 0 0-.004-.471c-.007-.62-.415-1.042-.988-1.25a75.014 75.014 0 0 0-.676-.248c-.55-.2-1.236.125-1.51.594-2.847 4.82-2.817 10.359-3.886 15.649-.64-5.528-2.824-10.511-5.84-15.713-.62-1.071-2.362-.837-2.685.339-1.07 3.911-1.638 7.812-1.962 11.74-.221-.394-.44-.788-.687-1.18a1.105 1.105 0 0 0-.526-.434.683.683 0 0 0-.47-.118c-.206-.018-.403.038-.532.176-.417.224-.711.671-.578 1.231.076.307.145.615.207.924.02.098.066.168.106.242a57.359 57.359 0 0 1 1.281 5.819c-1.665 10.29-8.717 19.466-15.36 27.32-7.082 8.373-15.326 15.646-23.843 22.618-17.483 14.312-35.362 28.431-48.966 46.429C3.947 144.084-2.167 165.75.687 188.132c2.766 21.704 17.052 38.693 34.826 51.38 13.045 9.312 29.377 16.06 45.816 16.852 4.031 3.195 8.499 5.957 13.363 5.562-.016.255-.033.51-.041.762-.05 1.617 1.22 3.401 2.872 3.041.444.089.889.177 1.333.268-.88 1.39-1.77 2.777-2.464 4.262-.618 1.323.07 3.358 1.908 3.207 6.012-.495 8.896-4.21 11.775-8.917 1.835.66 3.825 1.02 5.886 1.19-.039.085-.07.175-.086.27-.209 1.151-.409 2.304-.612 3.457-.23-.165-.446-.338-.66-.517l.01-.169c.293-.341.541-.7.72-1.13.39-.937-1.057-1.361-1.583-.644a1.691 1.691 0 0 1-.411.382c-1.252-.006-2.38.981-2.022 2.457.425 1.756 2.95 3.02 4.325 3.922.876.573 2.38.034 2.564-1.005.206-1.156.392-2.31.584-3.466.458.452.936.873 1.496 1.235.513.332 1.324.323 1.837 0 .28-.175.47-.359.652-.63.334-.493.345-1.276 0-1.77-.6-.868-1.377-1.618-2.206-2.297 3.655-.108 7.32-.568 10.541-.862 4.597-.42 9.16-.957 13.618-1.861-.18.687.117 1.414.572 1.965-.64-.776-.038.01.144.142.252.187.489.302.796.386.614.17 1.175.052 1.647-.24a2.256 2.256 0 0 0 2.044 1.296c3.177-.01 4.193-.495 6.945-1.831 2.551-1.241 5.959-1.066 8.334-2.41.997-.562 1.76-1.93 2.43-3.308 3.319-.774 6.532-2.314 9.502-4.346.776-.048 1.553-.104 2.332-.165.243.099.516.158.828.157 1.977-.018 3.991-.323 6.01-.846 28.68-3.582 57.077-16.075 64.657-45.083 5.196-19.906-.164-41.882-9.422-59.867zM141.187 20.173c.16.087.331.16.525.205-.086.267-.172.533-.261.798-.087-.335-.17-.67-.263-1.003zm11.31 13.76c.028.712.088 1.432.193 2.168-.13-.482-.26-.954-.394-1.423.066-.248.133-.497.202-.745zm-48.216 231.65c.077-.146.137-.302.18-.461.167.043.34.078.514.11-.469.656-.963 1.276-1.512 1.824.278-.49.554-.977.818-1.474zm1.496-3.773a3.022 3.022 0 0 1-.1-.083l.17.081-.07.002zm-3.378-.982c-.436.295-.822.789-.869 1.322-.354-.067-.71-.13-1.065-.197.242-.49.385-1.065.502-1.655.61.03 1.23.146 1.86.323a1.755 1.755 0 0 0-.428.207zm12.236 7.575a.015.015 0 0 0-.001.006c0-.022.001-.03.001-.006zm-.354 1.288c.008-.004.02-.018.041-.055-.125.21-.107.173-.041.055zm41.87-9.2c-1.544.565-2.712 1.212-4.095 1.569a2.368 2.368 0 0 0-.336-.748c2.713-.864 5.371-1.92 7.956-3.249a32.134 32.134 0 0 0 1.726-.956c.171.254.484.421.898.356.294-.047.589-.114.884-.179-.027.054-.051.11-.077.164-.185.1-.372.194-.556.295-.446.243-.577.697-.48 1.103-2.009.431-3.983.935-5.92 1.645zm91.005-61.187c-1.518 18.194-12.624 32.786-29 41.334a94.094 94.094 0 0 0 6.695-5.314c10.243-8.913 17.801-21.98 13.358-35.356-.084-.251-.475-.15-.412.11 3.009 12.424-7.81 24.128-16.687 31.636a64.12 64.12 0 0 1-6.646 4.904c6.752-6.29 12.304-13.915 16.099-22.13 8.72-18.879 8.181-43.321-4.43-60.53-.243-.332-.718-.053-.555.31 4.452 9.919 7.72 19.66 7.744 30.575.02 9.89-2.846 19.637-7.43 28.43-3.587 6.88-8.314 13.012-13.902 18.415 10.07-11.843 12.89-28.18 12.468-43.31-.627-22.358-9.419-43.543-21.525-62.335-12.151-18.861-27.384-35.654-39.695-54.413a165.972 165.972 0 0 1-17.334-34.742c-.01-.024-.052-.016-.046.014 10.765 43.541 48.803 74.685 65.683 115.655 8.313 20.175 11.785 44.916 3.31 65.566-5.095 12.411-15.411 20.393-27.155 26.135 1.78-2.51 3.23-5.102 4.242-7.592 5.063-12.46 6.103-26.663 2.789-39.638-.083-.324-.552-.181-.505.132 1.927 12.194 1.119 24.865-4.24 36.182-2.525 5.333-5.81 10.196-10.084 14.356-1.13.452-2.264.89-3.4 1.313a35.06 35.06 0 0 0 3.171-3.73c4.904-6.734 7.522-13.935 9.79-21.8.016-.058-.073-.084-.091-.025-2.257 6.974-6.024 13.581-10.708 19.312-2.106 2.578-4.529 4.925-7.111 7.054a22.85 22.85 0 0 1-2.48 1.757c-.12.038-.24.08-.361.118a1.197 1.197 0 0 0-.476-.11c9.285-10.238 9.17-25.537 7.998-39.288-2.056-24.097-8.9-47.648-15.002-71.003-7.37-28.21-15.774-56.268-21.328-84.888-.022-.117-.205-.067-.183.049 4.929 26.033 11.086 51.736 18.031 77.348 6.15 22.677 11.712 45.442 14.628 68.749 2.168 17.327 3.728 37.211-11.46 49.677-13.836 11.36-33.442 10.532-50.555 10.55a11.642 11.642 0 0 0-.316-.291 1.921 1.921 0 0 0-.866-.707c-2.632-1.96-5.792-2.958-8.282-5.196-3.535-3.176-8.857-4.718-12.645-7.793-8.491-6.896-14.608-17.014-19.198-26.624-5.209-10.905-8.125-22.792-9.723-34.655-1.59-11.817.893-24.853 3.452-36.364 2.192-9.872 7.384-19.79 12.128-28.711 4.638-8.723 10.014-17.068 15.274-25.449 10.513-16.747 20.527-33.793 24.68-53.159.1-.459-.613-.657-.73-.194-5.4 20.99-16.984 39.339-28.602 57.57-5.575 8.752-11.061 17.57-15.612 26.866-4.74 9.687-7.302 19.6-9.463 30.072-4.601 22.3-3.302 45.834 4.959 67.177.2.517.427 1.02.637 1.535-2.527-4.976-4.693-10.134-6.414-15.363-6.065-18.425-4.862-37.404-3.762-56.403.006-.103-.164-.125-.187-.023-4.212 18.74-2.964 38.445 2.057 56.931 2.473 9.096 6.356 17.619 11.305 25.701.405.659.82 1.329 1.243 2.002a85.614 85.614 0 0 1-12.693-16.328c-8.562-14.298-11.372-31.21-10.477-47.536.953-17.398 7.946-34.593 15.647-50.155 7.5-15.155 16.66-29.97 26.553-43.778.113-.159-.152-.303-.268-.15-22.07 29.076-40.468 61.558-44.64 97.983-2.004 17.484 1.256 34.568 10.645 49.765 4.935 7.99 11.596 15.221 19.144 20.974 1.457 1.108 2.995 2.446 4.61 3.813-18.822-3.455-36.584-14.322-49.983-26.775-8.32-7.732-15.466-17.245-19.424-27.768-4.108-10.921-4.402-23.76-2.59-35.141 7.417-46.597 56.039-68.042 84.674-100.85a167.872 167.872 0 0 0 4.078-4.835 131.117 131.117 0 0 1-4.259 6.144c-8.142 11.087-18.718 21.68-29.64 30.262-.232.183.069.544.318.397 12.915-7.619 23.677-16.989 32.925-28.628 4.728-5.95 8.848-12.513 11.724-19.489 2.438-5.916 5.184-13.797 3.537-20.269.013-3.937.212-7.885.885-11.73 2.845 5.432 4.92 11.174 4.389 17.381-.088 1.033 1.518 1.411 2 .525 1.567-2.885 2.39-5.84 2.945-9.05.345-1.989.586-3.994.942-5.983.06-.33.52-1.923.889-3.534 1.91 4.921 1.92 10.424 2.654 15.583.222 1.576 2.64 1.642 3.35.425 3.623-6.217 4.662-13.417 4.605-20.504 1.31 6.8 4.642 13.405 4.139 20.586-.235 3.363 4.433 3.32 5.564.727.588-1.344 1.05-2.725 1.456-4.125.002.482.006.964.01 1.445.01 1.628 1.761 2.113 2.868 1.484.054.233.106.46.166.689a90.48 90.48 0 0 0 1.085 5.145c.023.096.058.181.091.265-.073.351-.045.735.128 1.127 1.502 3.052 2.736 6.15 3.844 9.35.293.85 1 1.227 1.715 1.245.197.361.4.718.596 1.081.421.778 1.266.943 1.995.72 3.073 6.7 5.85 13.524 9.606 19.936.018.034.08.013.065-.025-.988-2.327-1.852-4.692-2.667-7.076 1.954 3.504 4.065 6.928 6.272 10.276 8.906 13.512 19.598 26.927 31.516 38.101.315.296.857-.085.616-.457-8.596-13.185-19.06-25.115-27.409-38.493a193.518 193.518 0 0 1-5.51-9.376c16.665 26.458 41.95 48.216 59.378 74.164 12.479 18.584 20.67 39.58 18.796 62.063z"/>
</svg>
