<svg xmlns="http://www.w3.org/2000/svg" width="38" height="33" viewBox="0 0 38 33">
    <g fill="#FFF" fill-rule="nonzero">
        <path d="M32.989 13.714C29.685 8.038 24.918 3.304 19.203.076a.607.607 0 0 0-.813.215L.081 32.005a.58.58 0 0 0 0 .592.581.581 0 0 0 .515.295L37.404 33a.6.6 0 0 0 .596-.592 36.864 36.864 0 0 0-5.011-18.694zm-16.36-8.016A30.907 30.907 0 0 1 27.627 16.78a30.84 30.84 0 0 1 4.171 15.01l-30.199-.081L16.63 5.698zM32.99 31.79a32.061 32.061 0 0 0-4.333-15.602 32.22 32.22 0 0 0-11.43-11.512l1.896-3.309c5.308 3.12 9.723 7.585 12.838 12.911 3.087 5.326 4.767 11.379 4.848 17.485l-3.819.027z"/>
        <path d="M23.781 14.872c-1.018-.561-2.291-.898-3.423-.87-1.442 0-2.517.533-3.055 1.488-.736 1.32-.085 3.09 1.443 3.932h.028l-.99 1.798c-.17.337-.226.702-.142 1.067.085.309.283.59.566.73l1.556.843c.17.112.368.14.566.14.481 0 .934-.253 1.188-.73l.99-1.798.029.028c.565.31 1.16.45 1.725.45 1.019 0 1.952-.45 2.405-1.32.537-.955.424-2.163-.34-3.37-.565-.927-1.527-1.854-2.546-2.388zm1.84 5.168c-.397.73-1.5.899-2.462.365h-.028l.537-.955c.057.084.113.197.142.31.085.252.34.42.594.42.056 0 .141 0 .198-.028a.628.628 0 0 0 .396-.786c-.311-.983-1.075-1.404-1.16-1.46-.028-.029-.085-.029-.113-.029-.028 0-.085-.028-.113-.028h-.255l-.17.085s-.028 0-.028.028a.746.746 0 0 0-.141.168l-.029.028-2.518 4.522c-.028.056-.084.084-.084.084l-1.528-.842s-.028-.056.028-.14l2.518-4.522c.028-.029.028-.057.028-.113.029-.056.029-.084.029-.14v-.113-.112c0-.028-.029-.056-.057-.084-.028-.028-.028-.084-.057-.113-.028-.028-.056-.028-.084-.056a.39.39 0 0 0-.114-.084c-.084-.056-.848-.45-1.867-.197-.34.085-.537.422-.452.73a.608.608 0 0 0 .735.45c.113-.028.227-.028.34-.028l-.538.955h-.028c-.934-.506-1.386-1.545-.962-2.275.396-.702 1.301-.843 1.98-.87h.029c.905 0 1.98.28 2.8.73.82.449 1.641 1.207 2.122 1.994.34.561.679 1.404.311 2.106zM11.5 23A3.497 3.497 0 0 0 8 26.5c0 1.936 1.564 3.5 3.5 3.5s3.5-1.564 3.5-3.5-1.564-3.5-3.5-3.5zm0 5.833A2.32 2.32 0 0 1 9.167 26.5c0-1.3 1.06-2.333 2.333-2.333 1.3 0 2.333 1.06 2.333 2.333a2.337 2.337 0 0 1-2.333 2.333zM19.585 28h-.17c-.226 0-.415.227-.415.5s.189.5.415.5h.17c.226 0 .415-.227.415-.5s-.189-.5-.415-.5zM28.585 27h-.17c-.226 0-.415.227-.415.5s.189.5.415.5h.17c.226 0 .415-.227.415-.5s-.189-.5-.415-.5zM24.585 25h-.17c-.226 0-.415.227-.415.5s.189.5.415.5h.17c.226 0 .415-.227.415-.5s-.189-.5-.415-.5zM18.415 11h.17c.226 0 .415-.227.415-.5s-.189-.5-.415-.5h-.17c-.226 0-.415.227-.415.5s.189.5.415.5zM11.415 21h.17c.226 0 .415-.227.415-.5s-.189-.5-.415-.5h-.17c-.226 0-.415.227-.415.5 0 .295.189.5.415.5zM5.585 28h-.17c-.226 0-.415.227-.415.5s.189.5.415.5h.17c.226 0 .415-.227.415-.5s-.189-.5-.415-.5z"/>
    </g>
</svg>
