<svg xmlns="http://www.w3.org/2000/svg" width="83" height="83" viewBox="0 0 83 83">
    <g fill="#FFF" fill-rule="nonzero">
        <path d="M82.559 78.011L38.32 33.818l.133-.132c.397-.398.397-.972 0-1.369l-2.605-2.605.662-.662c1.722-1.722 1.722-4.591 0-6.313l-4.459-4.46L15.408 1.635c-.044-.045-.132-.089-.22-.177a.775.775 0 0 0-.222-.177C13.245 0 10.64.088 9.095 1.634L1.5 9.227C.662 10.066.177 11.17.177 12.362c0 1.192.441 2.295 1.324 3.134L22.604 36.6c.84.84 1.943 1.325 3.135 1.325 1.192 0 2.296-.442 3.134-1.325l.663-.662 2.604 2.605a.973.973 0 0 0 .663.265.898.898 0 0 0 .662-.265l.132-.132 44.238 44.237a.973.973 0 0 0 .662.265.898.898 0 0 0 .662-.265l3.223-3.223c.574-.397.574-1.015.177-1.413zM19.999 20c-.838-1.5-1.677-2.87-2.163-4.547-.441-1.457-.662-3.443-.883-5.474-.176-1.59-.353-3.18-.662-4.724l5.342 5.342c-.397 3.178-.442 6.666 1.766 9.492.441.574.795 1.236 1.104 1.942.353.707.706 1.457 1.192 2.075.176.221.265.354.353.486.176.265.309.486.706.839.133.132.265.265.398.353l-3.18 3.179c-.396.397-.396.971 0 1.368l3.489 3.488h-.265c-1.81-.309-4.592-3.046-4.46-4.9.177-3.841-1.28-6.402-2.737-8.919zm10.243 4.062c-.397-.397-.971-.397-1.369 0l-.309.31c-.176-.133-.353-.31-.397-.354-.265-.265-.353-.397-.441-.574-.089-.177-.221-.353-.442-.574-.353-.441-.662-1.06-.971-1.722-.353-.75-.75-1.545-1.325-2.295-1.457-1.855-1.677-4.15-1.5-6.49l7.019 7.02c.044 1.986.132 3.929.883 5.827l-1.148-1.148zm4.945 3.576a11.627 11.627 0 0 1-1.236-1.5c-1.016-1.502-1.325-3.047-1.502-4.725l2.694 2.693c1.015.927 1.015 2.517.044 3.532zM8.212 7.814a71.715 71.715 0 0 1 1.103 3.223c.972 2.914 1.722 5.254 4.195 8.389 1.677 2.119 1.545 3.796 1.324 5.915 0 .221-.044.442-.044.619l-3.488-3.488c0-2.208-.839-3.576-2.119-5.077-.618-.663-.795-1.722-1.06-2.782-.353-1.677-.75-3.62-2.737-4.812-.309-.177-.75-.397-1.236-.618l3.09-3.09c.354.397.619.883.972 1.721zm-6.049 4.548c0-.574.221-1.148.574-1.59.707.265 1.325.574 1.678.795 1.236.75 1.501 2.03 1.854 3.532.265 1.28.53 2.605 1.501 3.664.31.353.53.663.75.972l-5.606-5.607a2.475 2.475 0 0 1-.75-1.766zM24.017 35.23L16.6 27.814c0-.044.044-.133.044-.177 0-.706.044-1.413.133-2.075.176-2.251.397-4.547-1.766-7.284-2.252-2.87-2.914-4.945-3.885-7.815-.31-1.015-.707-2.075-1.148-3.31-.398-1.06-.84-1.767-1.369-2.34l1.854-1.855a2.5 2.5 0 0 1 1.81-.75c.486 0 .972.132 1.413.397.795 2.207 1.104 4.9 1.369 7.505.22 2.163.485 4.194.927 5.828.574 1.898 1.457 3.443 2.34 4.944 1.368 2.34 2.649 4.592 2.472 7.77-.176 2.87 3.4 6.446 6.049 6.932h.132c-.971.574-2.207.442-2.958-.353zm6.313-1.369l-4.282-4.282 3.488-3.488 4.282 4.282 2.605 2.605-.133.133-3.222 3.223-.133.132-2.605-2.605zm48.3 46.71L35.097 37.04l1.899-1.898 43.53 43.53-1.898 1.899z"/>
        <circle cx="29.58" cy="29.845" r="1.015"/>
        <circle cx="32.891" cy="32.759" r="1.015"/>
    </g>
</svg>
