<svg xmlns="http://www.w3.org/2000/svg" width="91" height="88" viewBox="0 0 91 88">
    <g fill="none" fill-rule="evenodd">
        <path fill="#FFF" d="M0 0l90.61 42.014L45.525 87.1z"/>
        <path stroke="#C4A782" d="M18 18l59.4 27.543-29.555 29.556z"/>
        <path fill="#C4A782" d="M42.67 49.925a5.79 5.79 0 0 1-1.717-4.132c0-1.562.61-3.029 1.717-4.132a5.826 5.826 0 0 1 4.143-1.713c1.565 0 3.036.608 4.143 1.714a5.79 5.79 0 0 1 1.717 4.13c0 1.562-.61 3.031-1.717 4.134a5.827 5.827 0 0 1-4.143 1.711 5.826 5.826 0 0 1-4.143-1.712zm15.526 5.894l-5.237-5.224a7.712 7.712 0 0 0 1.667-4.802 7.725 7.725 0 0 0-2.29-5.51A7.769 7.769 0 0 0 46.814 38a7.77 7.77 0 0 0-5.524 2.283A7.729 7.729 0 0 0 39 45.793a7.73 7.73 0 0 0 2.29 5.51 7.77 7.77 0 0 0 5.523 2.282 7.764 7.764 0 0 0 4.758-1.62l5.244 5.231 1.381-1.377z"/>
    </g>
</svg>
