<svg xmlns="http://www.w3.org/2000/svg" width="1200" height="88" viewBox="0 0 1200 88">
    <g fill="#312C2C" fill-rule="nonzero">
        <path d="M-88 18v56.987c-.006.842 0 3.252 0 3.252 2.4.282 6.387 1.318 12.688 4.576 9.405 4.867 12.33 4.867 16.38 4.867 3.74 0 6.974 0 16.378-4.867 8.148-4.214 13.982-4.67 16.114-4.67 5.49 0 11.324.455 19.474 4.67 9.404 4.867 12.329 4.867 16.376 4.867 3.743 0 6.976 0 16.38-4.867 8.148-4.214 13.984-4.67 16.115-4.67 5.169 0 11.32.455 19.473 4.67 9.405 4.867 12.33 4.867 16.38 4.867 3.74 0 6.973 0 16.378-4.867 8.148-4.214 13.983-4.67 16.113-4.67 5.49 0 11.324.455 19.473 4.67 9.406 4.867 12.33 4.867 16.377 4.867 3.743 0 6.977 0 16.38-4.867 8.15-4.214 14.304-4.67 16.57-4.67 5.033 0 10.867.455 19.018 4.67 9.403 4.867 12.33 4.867 16.379 4.867 3.742 0 6.975 0 16.379-4.867 8.146-4.214 13.979-4.67 16.107-4.67.286 0 .583-.078.89-.235v.328c2.4.282 6.387 1.318 12.688 4.576 9.405 4.867 12.33 4.867 16.379 4.867 3.742 0 6.975 0 16.379-4.867 8.148-4.214 13.982-4.67 16.113-4.67 5.49 0 11.325.455 19.475 4.67 9.404 4.867 12.328 4.867 16.375 4.867 3.744 0 6.977 0 16.38-4.867 8.149-4.214 13.985-4.67 16.116-4.67 5.169 0 11.32.455 19.473 4.67 9.404 4.867 12.33 4.867 16.379 4.867 3.74 0 6.973 0 16.378-4.867 8.148-4.214 13.983-4.67 16.113-4.67 5.49 0 11.324.455 19.473 4.67 9.406 4.867 12.33 4.867 16.377 4.867 3.743 0 6.977 0 16.38-4.867 8.15-4.214 14.304-4.67 16.57-4.67 5.033 0 10.867.455 19.018 4.67 9.403 4.867 12.33 4.867 16.379 4.867 3.742 0 6.975 0 16.379-4.867 8.146-4.214 13.979-4.67 16.107-4.67.286 0 .583-.078.89-.235v.328c2.4.282 6.387 1.318 12.688 4.576 9.405 4.867 12.33 4.867 16.38 4.867 3.74 0 6.974 0 16.377-4.867 8.148-4.214 13.982-4.67 16.115-4.67 5.489 0 11.323.455 19.473 4.67 9.404 4.867 12.33 4.867 16.377 4.867 3.742 0 6.975 0 16.379-4.867 8.148-4.214 13.984-4.67 16.115-4.67 5.169 0 11.32.455 19.473 4.67 9.405 4.867 12.33 4.867 16.379 4.867 3.742 0 6.973 0 16.379-4.867 8.148-4.214 13.982-4.67 16.113-4.67 5.489 0 11.323.455 19.473 4.67 9.406 4.867 12.33 4.867 16.377 4.867 3.742 0 6.977 0 16.38-4.867 8.149-4.214 14.304-4.67 16.569-4.67 5.034 0 10.868.455 19.018 4.67 9.404 4.867 12.33 4.867 16.379 4.867 3.742 0 6.975 0 16.379-4.867 8.146-4.214 13.979-4.67 16.107-4.67.286 0 .583-.078.89-.235 0 .203.003.328.003.328 2.398.282 6.385 1.318 12.686 4.576 9.404 4.867 12.33 4.867 16.379 4.867 3.742 0 6.975 0 16.379-4.867 8.148-4.214 13.982-4.67 16.113-4.67 5.49 0 11.325.455 19.475 4.67 9.404 4.867 12.328 4.867 16.375 4.867 3.744 0 6.977 0 16.38-4.867 8.149-4.214 13.985-4.67 16.116-4.67 5.169 0 11.32.455 19.473 4.67 9.404 4.867 12.33 4.867 16.379 4.867 3.742 0 6.973 0 16.379-4.867 8.148-4.214 13.982-4.67 16.113-4.67 5.489 0 11.323.455 19.473 4.67 9.406 4.867 12.33 4.867 16.377 4.867 3.742 0 6.977 0 16.38-4.867 8.149-4.214 14.304-4.67 16.569-4.67 5.034 0 10.868.455 19.018 4.67 9.404 4.867 12.33 4.867 16.379 4.867 3.742 0 6.975 0 16.379-4.867 8.146-4.214 13.979-4.67 16.107-4.67.286 0 .583-.828.89-2.484V18H-87.998zm239.82 59.506v-2.518h.026c-.02.546-.024 1.74-.025 2.518zm335.822 0v-2.518h.025a94.28 94.28 0 0 0-.025 2.518zm335.819 0v-2.518h.025c-.02.546-.023 1.74-.025 2.518z"/>
        <path d="M1287.285 69.682V22.588 12.695c.007-.842 0-3.252 0-3.252-2.399-.282-6.386-1.318-12.687-4.576C1265.193 0 1262.267 0 1258.218 0c-3.741 0-6.974 0-16.378 4.867-8.148 4.214-13.982 4.67-16.114 4.67-5.49 0-11.324-.455-19.474-4.67C1196.848 0 1193.923 0 1189.876 0c-3.743 0-6.976 0-16.38 4.867-8.148 4.214-13.984 4.67-16.115 4.67-5.169 0-11.321-.455-19.473-4.67C1128.503 0 1125.577 0 1121.528 0c-3.741 0-6.973 0-16.378 4.867-8.148 4.214-13.983 4.67-16.113 4.67-5.49 0-11.324-.455-19.473-4.67C1060.158 0 1057.234 0 1053.187 0c-3.743 0-6.977 0-16.381 4.867-8.149 4.214-14.303 4.67-16.569 4.67-5.033 0-10.867-.455-19.018-4.67C991.816 0 988.889 0 984.84 0c-3.742 0-6.975 0-16.379 4.867-8.146 4.214-13.979 4.67-16.107 4.67-.286 0-.583.078-.891.235v-.328c-2.399-.282-6.386-1.318-12.687-4.576C929.371.001 926.445.001 922.397.001c-3.742 0-6.975 0-16.379 4.867-8.148 4.214-13.982 4.67-16.113 4.67-5.491 0-11.325-.455-19.475-4.67C861.026.001 858.102.001 854.055.001c-3.744 0-6.977 0-16.381 4.867-8.148 4.214-13.984 4.67-16.115 4.67-5.169 0-11.321-.455-19.473-4.67C792.682.001 789.756.001 785.707.001c-3.741 0-6.973 0-16.378 4.867-8.148 4.214-13.983 4.67-16.113 4.67-5.49 0-11.324-.455-19.473-4.67C724.337.001 721.413.001 717.366.001c-3.743 0-6.977 0-16.381 4.867-8.149 4.214-14.303 4.67-16.569 4.67-5.033 0-10.867-.455-19.018-4.67C655.995.001 653.068.001 649.019.001c-3.742 0-6.975 0-16.379 4.867-8.146 4.214-13.979 4.67-16.107 4.67-.286 0-.583.078-.891.235v-.328c-2.399-.282-6.386-1.318-12.687-4.576C593.55.002 590.624.002 586.575.002c-3.741 0-6.974 0-16.377 4.867-8.148 4.214-13.982 4.67-16.115 4.67-5.489 0-11.323-.455-19.473-4.67C525.206.002 522.28.002 518.233.002c-3.742 0-6.975 0-16.379 4.867-8.148 4.214-13.984 4.67-16.115 4.67-5.169 0-11.321-.455-19.473-4.67C456.861.002 453.935.002 449.887.002c-3.742 0-6.973 0-16.379 4.867-8.148 4.214-13.982 4.67-16.113 4.67-5.489 0-11.323-.455-19.473-4.67C388.516.002 385.592.002 381.545.002c-3.742 0-6.977 0-16.381 4.867-8.148 4.214-14.303 4.67-16.568 4.67-5.034 0-10.868-.455-19.018-4.67C320.174.002 317.248.002 313.199.002c-3.742 0-6.975 0-16.379 4.867-8.146 4.214-13.979 4.67-16.107 4.67-.287 0-.584.078-.891.235 0-.203-.002-.328-.002-.328-2.398-.282-6.385-1.318-12.686-4.576C257.73.003 254.804.003 250.755.003c-3.742 0-6.975 0-16.379 4.867-8.148 4.214-13.982 4.67-16.113 4.67-5.491 0-11.325-.455-19.475-4.67C189.384.003 186.46.003 182.413.003c-3.744 0-6.977 0-16.381 4.867-8.148 4.214-13.984 4.67-16.115 4.67-5.169 0-11.321-.455-19.473-4.67C121.04.003 118.114.003 114.065.003c-3.742 0-6.973 0-16.379 4.867-8.148 4.214-13.982 4.67-16.113 4.67-5.489 0-11.323-.455-19.473-4.67C52.694.003 49.77.003 45.723.003c-3.742 0-6.977 0-16.381 4.867-8.148 4.214-14.303 4.67-16.568 4.67-5.034 0-10.868-.455-19.018-4.67C-15.648.003-18.574.003-22.623.003c-3.742 0-6.975 0-16.379 4.867-8.146 4.214-13.979 4.67-16.107 4.67-.287 0-.584.828-.891 2.484v57.658h1343.285zm-239.82-59.506v2.518h-.025c.02-.546.024-1.739.025-2.518zm-335.821 0v2.518h-.025a94.28 94.28 0 0 0 .025-2.518zm-335.819 0v2.518h-.025c.019-.546.023-1.739.025-2.518z"/>
    </g>
</svg>
