<?xml version="1.0"?>
<!--Icons from directory ""-->
<svg xmlns="http://www.w3.org/2000/svg" width="91" height="176" viewBox="0 0 91 176"><svg width="91" viewBox="0 0 91 88" height="88" id="eye-hover" y="0"><g fill-rule="evenodd"><path d="m0 0l90.61 42.014-45.085 45.086z" fill="#FFF"/><path d="m18 18l59.4 27.543-29.555 29.556z" fill="#C4A782"/><path fill-rule="nonzero" d="m40.01 49.821c13.022 13.021 23.98 0 23.98 0s-10.958-13.032-23.98 0zm11.99 4.359a4.353 4.353 0 0 1 -4.358 -4.358 4.353 4.353 0 0 1 4.358 -4.359 4.353 4.353 0 0 1 4.358 4.358 4.36 4.36 0 0 1 -4.358 4.359z" fill="#FFF"/><path fill-rule="nonzero" d="m52 47.137a2.682 2.682 0 0 0 -2.684 2.684c0 1.484 1.2 2.684 2.684 2.684s2.684-1.2 2.684-2.684-1.2-2.684-2.684-2.684zm1.042 2.779a0.788 0.788 0 1 1 -0.002 -1.581 0.788 0.788 0 0 1 0.002 1.58z" fill="#FFF"/></g></svg><svg width="91" viewBox="0 0 91 88" height="88" id="eye" y="88"><g fill-rule="evenodd" fill="none"><path d="m0 0l90.61 42.014-45.085 45.086z" fill="#FFF"/><path fill-rule="nonzero" d="m40.01 49.821c13.022 13.021 23.98 0 23.98 0s-10.958-13.032-23.98 0zm11.99 4.359a4.353 4.353 0 0 1 -4.358 -4.358 4.353 4.353 0 0 1 4.358 -4.359 4.353 4.353 0 0 1 4.358 4.358 4.36 4.36 0 0 1 -4.358 4.359z" fill="#C4A782"/><path fill-rule="nonzero" d="m52 47.137a2.682 2.682 0 0 0 -2.684 2.684c0 1.484 1.2 2.684 2.684 2.684s2.684-1.2 2.684-2.684-1.2-2.684-2.684-2.684zm1.042 2.779a0.788 0.788 0 1 1 -0.002 -1.581 0.788 0.788 0 0 1 0.002 1.58z" fill="#C4A782"/><path stroke="#C4A782" d="m18 18l59.4 27.543-29.555 29.556z"/></g></svg></svg>
