<?xml version="1.0"?>
<!--Icons from directory ""-->
<svg xmlns="http://www.w3.org/2000/svg" width="91" height="176" viewBox="0 0 91 176"><svg width="91" viewBox="0 0 91 88" height="88" id="view-hover" y="0"><g fill-rule="evenodd"><path d="m0 0l90.61 42.014-45.085 45.086z" fill="#FFF"/><path d="m18 18l59.4 27.543-29.555 29.556z" fill="#C4A782"/><path d="m42.67 49.925a5.79 5.79 0 0 1 -1.717 -4.132c0-1.562 0.61-3.029 1.717-4.132a5.826 5.826 0 0 1 4.143 -1.713c1.565 0 3.036 0.608 4.143 1.714a5.79 5.79 0 0 1 1.717 4.13c0 1.562-0.61 3.031-1.717 4.134a5.827 5.827 0 0 1 -4.143 1.711 5.826 5.826 0 0 1 -4.143 -1.712zm15.526 5.894l-5.237-5.224a7.712 7.712 0 0 0 1.667 -4.802 7.725 7.725 0 0 0 -2.29 -5.51 7.769 7.769 0 0 0 -5.522 -2.283 7.77 7.77 0 0 0 -5.524 2.283 7.729 7.729 0 0 0 -2.29 5.51 7.73 7.73 0 0 0 2.29 5.51 7.77 7.77 0 0 0 5.523 2.282 7.764 7.764 0 0 0 4.758 -1.62l5.244 5.231 1.381-1.377z" fill="#FFF"/></g></svg><svg width="91" viewBox="0 0 91 88" height="88" id="view" y="88"><g fill-rule="evenodd" fill="none"><path d="m0 0l90.61 42.014-45.085 45.086z" fill="#FFF"/><path stroke="#C4A782" d="m18 18l59.4 27.543-29.555 29.556z"/><path d="m42.67 49.925a5.79 5.79 0 0 1 -1.717 -4.132c0-1.562 0.61-3.029 1.717-4.132a5.826 5.826 0 0 1 4.143 -1.713c1.565 0 3.036 0.608 4.143 1.714a5.79 5.79 0 0 1 1.717 4.13c0 1.562-0.61 3.031-1.717 4.134a5.827 5.827 0 0 1 -4.143 1.711 5.826 5.826 0 0 1 -4.143 -1.712zm15.526 5.894l-5.237-5.224a7.712 7.712 0 0 0 1.667 -4.802 7.725 7.725 0 0 0 -2.29 -5.51 7.769 7.769 0 0 0 -5.522 -2.283 7.77 7.77 0 0 0 -5.524 2.283 7.729 7.729 0 0 0 -2.29 5.51 7.73 7.73 0 0 0 2.29 5.51 7.77 7.77 0 0 0 5.523 2.282 7.764 7.764 0 0 0 4.758 -1.62l5.244 5.231 1.381-1.377z" fill="#C4A782"/></g></svg></svg>
