<svg xmlns="http://www.w3.org/2000/svg" width="73" height="45" viewBox="0 0 73 45">
    <g fill="#FFF" fill-rule="nonzero">
        <path d="M19.13 3.832C12.753 2.228 2.419 4.188.528 11.94a8.588 8.588 0 0 0 1.011 6.638c1.275 2.139 3.298 3.654 5.761 4.277l.66.134c-.22.624-.484 1.248-.704 1.827-1.759 4.544-3.298 8.465-2.067 10.916.44.89 1.231 1.47 2.287 1.737l6.288 1.604c.352.09.704.134 1.056.134.703 0 1.32-.178 1.89-.58 2.244-1.603 2.771-6.059 3.343-10.826.088-.58.132-1.158.22-1.693.176.044.352.134.484.178.747.178 1.539.267 2.286.267 4.09 0 7.784-2.673 8.796-6.727.66-2.584.175-5.258-1.32-7.753-2.242-3.831-6.816-7.128-11.39-8.242zm10.774 15.46c-.924 3.743-4.838 6.015-8.752 5.035a4.282 4.282 0 0 1-.703-.223c.352-2.272.791-4.366 1.539-5.792.748.356 2.023 1.114 2.946 2.54a.98.98 0 0 0 .792.445.838.838 0 0 0 .528-.178c.44-.312.571-.891.263-1.337-1.847-2.851-4.617-3.609-4.749-3.653h-.396c-.088 0-.132.044-.22.089-.044 0-.088.044-.132.044l-.131.134-.132.134c-1.76 2.406-2.243 6.772-2.727 11.005-.44 3.92-.967 8.376-2.507 9.445-.22.178-.615.357-1.363.178l-6.288-1.604c-.704-.178-.924-.49-1.056-.757-.835-1.648.748-5.703 2.155-9.267 1.583-4.1 3.254-8.332 2.639-11.317v-.045-.044c0-.045-.044-.09-.044-.134-.044-.089-.044-.134-.088-.223l-.132-.133-.132-.134c-.044-.045-.088-.045-.176-.09-.044 0-.088-.044-.132-.088-.132-.045-2.946-.669-5.893.935-.483.268-.615.847-.396 1.337a.94.94 0 0 0 .836.49.736.736 0 0 0 .44-.134c1.539-.846 3.034-.89 3.87-.846.088 1.604-.44 3.698-1.232 5.926a6.155 6.155 0 0 1-.88-.179 7.403 7.403 0 0 1-4.573-3.386c-.923-1.56-1.231-3.43-.791-5.168C3.87 6.015 12.84 4.144 18.602 5.614c4.09 1.025 8.18 3.965 10.158 7.262 1.32 2.228 1.671 4.322 1.144 6.416zM59.587 10.649c-.923-.49-1.759-.936-2.154-1.248-2.42-1.827-.792-6.282-.748-6.327.088-.267.088-.579-.044-.846C55.805.758 54.178 0 51.891 0c-1.319 0-2.418.267-2.462.267-.308.09-.572.312-.704.669a1.03 1.03 0 0 0 .176.935s1.495 1.827 1.188 6.817c-.132 1.827-2.463 3.342-5.234 5.124-4.31 2.762-9.63 6.238-9.85 13.143-.088 3.297.88 6.06 2.99 8.198 4.046 4.233 10.554 4.679 13.149 4.679 1.54 0 3.034-.134 4.354-.401.747.178 1.67.222 2.638.222C65.304 39.653 73 35.733 73 27.09c0-9.267-8.707-13.945-13.413-16.44zM39.358 33.772C37.643 31.99 36.852 29.718 36.94 27c.176-5.837 4.837-8.866 8.97-11.54 3.167-2.05 5.938-3.831 6.113-6.638.22-3.386-.351-5.57-.835-6.817 1.1-.09 2.726-.045 3.562.891-.44 1.47-1.407 5.792 1.54 8.064 6.815 5.347 10.421 12.832 8.97 18.624-.88 3.52-3.562 6.06-7.564 7.307 3.958-6.06 1.276-12.92-.967-18.535-.88-2.272-1.715-4.366-1.979-6.104-.088-.534-.572-.935-1.1-.846-.527.089-.879.58-.835 1.114.264 1.916 1.143 4.188 2.11 6.55 2.376 6.059 5.102 12.876-.263 18.49-1.1.178-2.287.311-3.518.311-4.925 0-9.323-1.515-11.786-4.099zm22.208 3.565c2.859-1.649 4.794-4.144 5.585-7.263 1.188-4.812-.484-10.425-4.353-15.371 4.001 2.584 8.311 6.46 8.311 12.386 0 6.594-5.057 9.357-9.543 10.248zM55.454 40.366a.983.983 0 0 0-.968.98v2.496c0 .534.44.98.968.98a.983.983 0 0 0 .967-.98v-2.495c0-.535-.44-.98-.967-.98zM52.375 40.678l-1.715 1.738a.952.952 0 0 0 0 1.381c.176.178.44.267.66.267.264 0 .484-.089.66-.267l1.715-1.738a.952.952 0 0 0 0-1.38.874.874 0 0 0-1.32 0zM58.576 40.678c-.396-.4-.968-.4-1.363 0a.952.952 0 0 0 0 1.381l1.715 1.738c.176.178.44.267.66.267.263 0 .483-.089.659-.267a.952.952 0 0 0 0-1.381l-1.671-1.738z"/>
    </g>
</svg>
