<svg xmlns="http://www.w3.org/2000/svg" width="320" height="288" viewBox="0 0 320 288">
    <g fill="#FFF" fill-rule="nonzero">
        <path d="M318.553 159.216c-24.852-29.438-54.622-55.611-80.574-77.833-14.398-12.328-30.602-25.111-49.535-39.077a2.32 2.32 0 0 0-1.39-.441 3.1 3.1 0 0 0-1.973.75c-2.382 2.075-5.697 2.51-8.058 2.51-4.778 0-10.212-1.744-13.522-4.341-4.013-3.15-3.63-8.972-1.177-13.094a2.47 2.47 0 0 0-.94-3.418A7522.153 7522.153 0 0 0 118.19.454a2.756 2.756 0 0 0-1.329-.35c-1.01 0-1.946.615-2.406 1.512-6.266.932-12.129 3.904-17.804 6.78-1.846.937-3.59 1.82-5.343 2.634-2.538 1.18-5.078 2.341-7.617 3.503-7.261 3.321-14.77 6.757-22.024 10.523-16.865 8.759-33.455 18.592-49.499 28.102-3.37 1.997-6.74 3.995-10.111 5.983-.724.427-1.185 1.082-1.3 1.849-.104.7.092 1.438.53 2.036.674 6.29 1.815 12.606 2.919 18.718.419 2.324.853 4.727 1.255 7.09 2.003 11.799 3.455 23.731 4.656 33.99 1.424 12.145 2.319 24.556 3.185 36.557 1.148 15.92 2.335 32.38 4.771 48.47.2 1.327 1.321 2.22 2.79 2.22 1.135 0 2.184-.528 2.735-1.378.789-1.212 3.188-4.905 5.648-4.905.405 0 .798.095 1.205.29 2.094 1.006 3.682 3.623 4.723 7.778.95 3.782.62 7.37-.908 9.843-.931 1.508-2.462 2.24-4.681 2.24-1.556 0-3.394-.366-5.466-1.089a2.767 2.767 0 0 0-.911-.16c-1.147 0-2.108.823-2.337 2a2.604 2.604 0 0 0 .896 2.539c-.339.346-.56.811-.608 1.344-.84 9.284-.367 19.032.048 27.629.217 4.47.584 8.878 1.094 13.1.062.51.12 1.032.176 1.56.353 3.178.751 6.78 2.223 9.757.074.149.16.285.262.41.174.797.864 1.401 1.78 1.499 5.529.595 11.17.958 16.625 1.307 3.485.224 7.09.455 10.622.745l6.72.556c8.043.67 16.362 1.36 24.561 1.906 7.28.484 14.819.73 22.409.73 6.627 0 13.534-.188 20.527-.556 29.377-1.552 59.144-4.486 87.93-7.324l4.22-.416c7.849-.772 15.828-1.61 23.546-2.418 14.575-1.527 29.635-3.104 44.484-4.328.087.161.199.308.333.438.374.366.912.575 1.475.575.561 0 1.098-.209 1.474-.574.217-.209.375-.465.468-.75 3.236-.253 6.404-.485 9.435-.686 1.396-.096 2.457-1.165 2.415-2.432-.634-19.408 3.51-38.77 7.516-57.491 3.5-16.35 7.118-33.255 7.58-50.212.241-.805.046-1.702-.53-2.382zM15.84 57.316C31.194 48.24 47.072 38.857 63.07 30.27c10.478-5.624 21.45-10.747 32.06-15.7 6.669-3.115 13.56-6.333 20.284-9.652.027.017.056.032.085.048 4.122 2.23 8.236 4.472 12.35 6.713l1.102.6c-.558.408-1.09.838-1.588 1.236-.542.438-1.055.85-1.526 1.178-.46.32-.654.887-.48 1.41.172.518.657.866 1.204.866.235 0 .468-.065.674-.187a30.294 30.294 0 0 1 3.572-1.808c.327-.143.674-.275 1.027-.41.254-.098.51-.197.764-.3a8906.41 8906.41 0 0 1 24.115 13.194c-2.609 6.22-1.397 12.805 3.194 16.984 3.9 3.548 10.507 5.84 16.834 5.84 3.92 0 7.418-.86 10.17-2.496 8.938 6.716 16.31 12.357 23.028 17.62-2.598 1.14-5.265 2.206-7.856 3.24-6.016 2.403-12.236 4.888-17.85 8.399-.548.343-.79.977-.606 1.578a1.451 1.451 0 0 0 2.117.82c5.42-3.094 11.37-5.424 17.122-7.677 3.287-1.286 6.679-2.614 9.966-4.081a801.993 801.993 0 0 1 12.242 9.865c-2.374 1.432-5.073 2.73-8.558 4.126a1.17 1.17 0 0 0-.726 1.313c.111.542.587.92 1.155.92.108 0 .219-.014.325-.042 3.724-.991 7.327-2.41 10.47-4.118 2.4 1.994 4.522 3.778 6.472 5.443 23.724 20.262 53.144 45.387 77.149 73.267-19.54-.167-39.117-4.174-58.063-8.052-3.433-.704-6.86-1.405-10.28-2.085-5.12-1.015-10.338-1.945-15.385-2.844-7.162-1.276-14.567-2.597-21.787-4.178-10.049-2.202-20.277-4.975-31.2-8.46 5.186-3.204 7.788-7.038 7.739-11.413-.08-6.76-7.509-10.439-9.784-11.404-3.13-1.329-6.574-2.002-10.236-2.002-3.478 0-6.983.6-10.415 1.786-4.557 1.573-8.276 4.446-11.874 7.226l-.002.002c-17.878-11.347-38.355-19.322-58.16-27.036-2.164-.841-4.316-1.68-6.458-2.52l-3.787-1.485c.223-.106.444-.213.663-.319 1.167-.558 2.371-1.137 3.55-1.572 4.02-1.482 8.215-2.78 12.269-4.035l1.426-.44c9.052-2.81 17.797-5.752 25.282-10.85.494-.335.702-.935.52-1.493a1.334 1.334 0 0 0-1.27-.925c-.261 0-.518.076-.745.222-7.42 4.778-16.514 7.178-25.304 9.498l-1.676.443c-4.082 1.083-8.89 2.418-13.593 4.115l-.77.274c-1.994.707-4.229 1.499-5.921 2.898-2.347-.92-4.696-1.842-7.044-2.76 6.088-3.06 12.575-5.532 18.872-7.928 1.045-.398 2.089-.796 3.132-1.197.622-.24.968-.853.843-1.492a1.291 1.291 0 0 0-1.281-1.046 1.43 1.43 0 0 0-.432.068c-1.603.508-3.272 1.013-4.885 1.502-7.182 2.176-14.603 4.424-21.037 8.222C40.79 73.914 24.93 67.763 8.505 61.646c2.446-1.442 4.89-2.887 7.335-4.33zm134.902 65.645c.147.728.795 1.236 1.576 1.236.084 0 .173-.007.264-.019a17.42 17.42 0 0 1 2.474-.178c2.943 0 5.705.759 8.211 2.256 1.518.907 2.577 2.172 3.15 3.76.152.427.202.87.228 1.353a1.883 1.883 0 0 0-.315 1.23.325.325 0 0 0-.012.048c-.942 3.743-2.44 6.895-4.454 9.353-.904 1.104-1.778 1.664-2.597 1.664-1.872 0-3.786-2.908-4.852-5.792l-.249-.674c-1.909-5.177-4.225-11.463-8.976-14.908 1.412-.395 2.78-.871 4.12-1.337 3.091-1.076 6.014-2.092 9.207-2.092a14.3 14.3 0 0 1 2.564.228c2.622.474 5.058 1.84 6.775 3.78a8.035 8.035 0 0 0-.508-.381c-2.42-1.672-5.446-2.555-8.75-2.555-2.323 0-4.693.447-6.85 1.294-.742.293-1.154 1.005-1.006 1.734zM307.2 207.976c-.402 2.059-.805 4.118-1.203 6.177-3.87 20.034-6.052 36.814-6.854 52.702-.391-.007-.79-.011-1.188-.011-1.763 0-3.63.068-5.682.206.155-9.051.759-18.247 1.345-27.15 1.348-20.512 2.745-41.722-1.286-62.52a1.303 1.303 0 0 0-1.303-1.062c-.41 0-.815.18-1.087.481-.269.3-.39.698-.332 1.091 3.005 20.276 1.559 41.043.16 61.126-.647 9.3-1.317 18.906-1.538 28.37-1.413.133-2.832.28-4.211.423-1.603.166-3.195.331-4.777.477-10.929 1.001-22.03 2.106-32.767 3.174l-6.754.672-4.904.485c-15.082 1.495-30.663 3.04-46.024 4.453 1.084-8.386 1.161-17.077 1.236-25.495.01-1.197.022-2.391.035-3.576.136-12.248-.846-23.27-3.004-33.7a1.246 1.246 0 0 0-1.238-.994c-.388 0-.77.172-1.023.46a1.25 1.25 0 0 0-.296 1.033c1.838 11.174 1.933 22.52 1.874 33.186-.028 5.06-.384 10.229-.729 15.228-.319 4.66-.652 9.466-.72 14.212-2.497.227-4.992.45-7.491.668.002-4.517-.151-9.084-.3-13.511l-.085-2.595c-.026-.745-.625-1.308-1.397-1.308-.774 0-1.373.563-1.396 1.31l-.085 2.517c-.153 4.553-.311 9.252-.301 13.898l-.394.035-2.277.198c.298-13.843.58-28.129-.283-42.217-.407-6.62-1.435-13.27-2.43-19.703-1.326-8.572-2.697-17.436-2.582-26.24a1.094 1.094 0 0 0-.331-.8 1.18 1.18 0 0 0-.822-.33c-.621 0-1.122.452-1.165 1.05-.635 9.745.765 19.417 2.12 28.77.822 5.68 1.671 11.555 2.053 17.372.593 9.006.37 18.203.154 27.096-.123 5.014-.248 10.19-.227 15.301-7.972.667-15.324 1.24-22.444 1.748-12.078.864-24.944 1.706-37.781 1.706-3.032 0-6.012-.047-8.858-.142-10.878-.36-21.93-1.207-32.617-2.024L63.07 280c-1.824-22.1-2.123-44.578-2.414-66.325-.155-11.564-.314-23.522-.7-35.296-.024-.62-.541-1.102-1.179-1.102-.64 0-1.158.485-1.177 1.106-1.146 34.22-1.91 67.724 1.248 101.286-1.08-.087-2.162-.179-3.247-.27-6.004-.504-12.202-1.024-18.322-1.092.273-5.031.028-10.175-.208-15.161-.123-2.612-.25-5.313-.3-7.927-.014-.727-.616-1.295-1.37-1.295-.752 0-1.354.568-1.37 1.293-.047 2.618-.175 5.321-.3 7.935-.236 4.99-.48 10.14-.206 15.175a91.915 91.915 0 0 0-4.275.194c-.146-2.037-.562-4.09-.969-6.085-.3-1.486-.61-3.02-.795-4.493-.568-4.538-.857-9.152-1.066-13.065-.193-3.632-.242-7.352-.29-10.95-.066-5.027-.135-10.224-.594-15.315 1.516.368 2.97.555 4.345.555 3.722 0 6.647-1.346 8.693-4 3.452-4.477 3.083-10.464 2.167-14.698-.46-2.12-2.401-9.23-8.11-11.672a8.62 8.62 0 0 0-3.398-.72c-2.062 0-4.103.78-6.09 2.32-1.68-13.61-2.706-27.477-3.702-40.908-.931-12.576-1.895-25.579-3.39-38.334-2.154-18.382-5.445-35.788-9.523-56.384 6.852 3.368 14.022 6.266 20.975 9.075 2.041.825 4.082 1.648 6.115 2.484 7.345 3.02 14.85 6.003 22.109 8.89 5.254 2.087 10.685 4.245 16.012 6.4 3.31 1.34 6.646 2.67 9.995 4.004 9.108 3.63 18.52 7.382 27.63 11.434 2.805 15.419 2.678 31.225 2.556 46.516-.065 8.149-.132 16.576.24 24.877.027.6.535 1.075 1.159 1.075.619 0 1.128-.47 1.157-1.071.106-2.175.217-4.36.33-6.547 1.058-20.78 2.15-42.246-1.272-62.959 9.753 4.492 18.044 8.902 25.297 13.453l.053.033c.09.28.26.533.505.74 5.173 4.37 8.01 8.294 9.79 13.544l.303.907c1.158 3.476 2.354 7.071 5.624 9.47 1.308.959 2.67 1.445 4.048 1.445 5.586 0 9.683-8 11.227-12.648.107-.047.21-.104.31-.169 17.609 7.892 37.09 11.364 55.94 14.722 4.15.74 8.43 1.502 12.62 2.3-1.06 4.181-1.165 8.702-1.13 12.252.058 5.802.421 11.991 1.109 18.923.177 1.776.364 3.555.552 5.336 1.156 10.975 2.352 22.325.798 33.377-.051.375.064.75.32 1.033.262.29.638.457 1.032.457.634 0 1.148-.429 1.25-1.04 1.985-11.52.82-23.225-.308-34.547l-.223-2.239c-.559-5.697-1.158-12.323-1.17-18.861-.008-4.077.579-7.936 1.198-12.024.098-.647.196-1.295.29-1.944 1.46.288 2.918.582 4.379.878.105 3.107.404 6.217.693 9.233.467 4.848.95 9.862.605 14.76l-.03.42.3.322.3.316.458.004h.933l.097-.917c.457-5.322.232-10.668.016-15.838-.106-2.512-.214-5.096-.243-7.663l2.419.495c19.064 3.896 38.777 7.924 58.506 7.924.902 0 1.805-.008 2.698-.026-1.121 15.016-4.06 30.049-6.902 44.598z"/>
        <path d="M79.597 153.781c.737-5.573-1.115-11.51-5.092-16.389.459-1.812.01-3.509-.425-5.15-.152-.574-.296-1.117-.403-1.666-.72-3.685-.862-7.547-.989-10.953-.03-.76-.673-1.352-1.465-1.352-.657 0-1.208.415-1.374 1.034-.868 3.293-1.128 6.768-.79 10.626l.057.674c.053.675.11 1.39.205 2.112-3.745-2.414-8.357-3.898-12.365-3.898-4.002 0-7.247 1.405-9.392 4.066-5.428 4.105-7.008 11.74-4.121 19.965 2.764 7.88 9.95 16.36 19.186 16.36 3.167 0 6.256-1.03 9.18-3.064 4.432-3.08 7.125-7.355 7.788-12.365zm-10.512-4.812c-2.804-4.345-8.187-9.02-13.379-9.02-.955 0-1.887.154-2.771.46a1.17 1.17 0 0 0-.802 1.135c.016.5.362.93.861 1.07 4.603 1.28 8.037 3.834 11.138 8.28 2.494 3.577 4.481 8.825 1.87 11.842-.207.242-.369.51-.473.793a9.063 9.063 0 0 1-2.777.438c-5.649 0-10.536-5.092-13.006-9.453-2.358-4.162-3.193-8.871-2.312-12.975 3.134-2.562 5.956-3.77 8.825-3.77.772 0 1.565.089 2.354.266 4.29.957 7.358 4.645 8.803 6.756a17.18 17.18 0 0 1 2.466 5.495 26.953 26.953 0 0 0-.797-1.317zM112.553 225.118l-.045-.05c-2.73-4.257-6.954-7.022-11.915-7.795a15.146 15.146 0 0 0-5.423-.983c-5.418 0-11.215 2.765-15.518 7.401-2.355 2.09-3.96 4.484-4.652 6.937-.5.882-.936 1.758-1.297 2.604-2.653 6.236-2.258 13.243 1.053 18.742 3.14 5.215 8.42 8.523 14.868 9.314.754.095 1.518.14 2.275.14 4.923 0 9.778-1.946 14.06-5.633a2.27 2.27 0 0 0 1.67-1.406c.039-.095.083-.188.127-.283a30.259 30.259 0 0 0 3.292-4.017 31.122 31.122 0 0 0 2.574-4.12c2.853-5.464 4.335-14.143-.874-20.625-.06-.078-.128-.151-.195-.226zm-6.16 15.995c-.09 1.76-.262 4.035-.78 6.113-2.173 3.377-5.045 5.562-8.362 8.086l-.124.093c-1.589.61-3.198.979-4.786 1.096-.406.03-.813.045-1.21.045-4.46 0-8.372-1.932-11.015-5.443-3.138-4.171-4.03-9.926-2.326-15.016a19.455 19.455 0 0 1 1.975-4.139c1.315-1.864 2.81-3.49 4.445-4.835 2.014-1.142 4.365-2 7.187-2.618a18.025 18.025 0 0 1 3.865-.412c1.835 0 3.697.274 5.397.793.998.78 1.889 1.755 2.65 2.897 2.898 4.347 3.276 9.653 3.085 13.34zM282.102 219.526c-2.917-3.483-6.677-5.322-10.88-5.322-5.997 0-12.147 3.83-15.3 9.533-2.877 5.2-2.65 10.9.62 15.636 3.14 4.544 7.997 7.258 12.991 7.258 3.653 0 7.009-1.454 9.705-4.202 5.569-5.676 6.92-14.9 3.229-21.638a1.59 1.59 0 0 0-.365-1.265zm-5.217 18.243c-.252.349-.523.684-.81 1-1.007.384-1.956.744-2.843.744-.47 0-.898-.103-1.308-.317-1.993-1.045-3.346-3.349-4.3-5.24-2.42-4.793-1.468-10.29 2.423-14.005a2.24 2.24 0 0 0 .678-1.21 11.679 11.679 0 0 1 1.602-.112c1.703 0 3.289.383 4.724 1.142-.01.417.134.84.423 1.217 4.117 5.334 2.67 12.271-.59 16.781zM89.25 57.374c.712 0 1.396-.057 2.034-.167 7.745-1.337 12.557-9.586 13.752-16.684.086-.507.139-1.048.158-1.61a40.685 40.685 0 0 1 3.305-1.928c.562-.292 1.147-.556 1.764-.835 1.329-.6 2.704-1.22 3.894-2.175.409-.332.552-.86.367-1.35-.185-.491-.66-.821-1.186-.821h-.036l-.05.002c-3.11.204-6.374 1.609-8.564 2.75-.943-3.47-3.256-6.749-7.327-6.749-.805 0-1.652.136-2.519.401a1.767 1.767 0 0 0-.476.228c-8.877.282-19.292 5.323-21.623 13.43-.833 2.901-.156 5.856 1.958 8.544 3.172 4.035 9.29 6.964 14.548 6.964zm-4.273-16.427c1.593-3.515 5.175-5.123 8.967-6.825 1.252-.562 2.544-1.141 3.75-1.795.96.23 1.703.6 2.328 1.501.532.767.847 1.78.938 3.017-.394.387-.61.9-.604 1.452.005.492.184.97.489 1.348-.024.174-.05.348-.077.517-.507 3.107-1.993 6.206-4.108 8.599a9.506 9.506 0 0 0-1.19-.155c-.372-.033-.725-.064-1.073-.142-1.405-.315-2.34-1.417-2.77-2.044-1.863-2.707-.643-5.866.249-7.509a1.223 1.223 0 0 0-.033-1.243 1.334 1.334 0 0 0-1.123-.61c-.312 0-.617.11-.859.308-3.28 2.695-4.46 7.406-2.741 10.96.18.376.415.761.693 1.144a9.968 9.968 0 0 1-1.065-.453c-3.026-1.49-2.845-5.696-1.77-8.07zM211.923 170.786a18.819 18.819 0 0 1-.002-1.001c.072-1.982-.106-3.917-.278-5.787-.112-1.212-.227-2.464-.27-3.699-.027-.764-.642-1.34-1.432-1.34-.79 0-1.406.576-1.434 1.34-.054 1.592-.242 3.246-.424 4.843-.135 1.2-.276 2.44-.363 3.665-.037.538-.152 1.19-.277 1.879-7.391.445-13.337 5.713-15.27 13.617-1.84 7.53.251 17.11 9.072 21.532.434.217.9.424 1.423.631 1.92 1.518 4.672 2.351 7.771 2.351 2.762 0 5.564-.664 7.692-1.821a14.667 14.667 0 0 0 3.14-2.304l.146-.089c.07 3.54.48 6.984.912 10.595.097.823.197 1.65.292 2.486a1.332 1.332 0 0 0 1.348 1.188c.7 0 1.277-.518 1.343-1.205.501-5.09.436-10.183-.208-15.986 1.846-1.864 3.205-4 4.046-6.356 2.025-5.68.528-12.287-3.813-16.832-3.11-3.258-8.638-6.414-13.414-7.707zm4.057 30.267a8.91 8.91 0 0 1-1.163.955c-1.51.401-3.078.604-4.664.604-2.58 0-5.047-.543-7.138-1.573a15.35 15.35 0 0 1-.623-.44 1.677 1.677 0 0 0-.65-.297c-5.05-3.35-6.125-10.259-4.934-15.678.146-.67.336-1.327.565-1.96a1.42 1.42 0 0 0 .569-.505c2.263-3.517 5.249-5.3 8.876-5.3.395 0 .802.021 1.212.065.301.206.674.32 1.07.32.165 0 .331-.02.493-.058 1.132.256 2.292.653 3.449 1.183 4.17 1.91 6.961 6.273 7.286 11.386.265 4.145-1.361 8.37-4.348 11.298z"/>
    </g>
</svg>
