<svg xmlns="http://www.w3.org/2000/svg" width="676" height="162" viewBox="0 0 676 162">
    <g fill="#FFF" fill-rule="nonzero">
        <path d="M673.31 16.734C669.919 8.548 660.88 3.993 652.537 1.9 645.413.112 638.183.09 630.91.783c-12.505 1.194-24.913 3.212-37.244 5.513-24.027 4.488-47.747 10.38-71.72 15.126-21.587 4.275-43.392 6.449-65.256 8.917-21.03 2.374-43.495 4.697-63.173 12.73-.792.324-1.32 1.11-1.459 1.915a1.08 1.08 0 0 0-.321-.035c-16.843.87-33.72 4.683-50.336 7.375a12025.89 12025.89 0 0 0-59.515 9.82c-42.517 7.105-85.195 13.326-127.785 20.01-50.897 7.988-102.114 15.408-152.785 24.054-1.355.233-1.11 2.093.08 2.201 12.307 6.88 23.824 14.684 35.301 22.782 6.29 4.437 12.615 8.618 19.254 12.305.112.26.212.528.34.778.283.558 1.022.568 1.39.175 4.182 2.245 8.498 4.285 13.027 6.042 24.634 9.565 51.941 11.265 78.205 11.205 17.01-.039 33.958-1.075 50.831-2.835.162.131.406.106.532-.051 13.596-1.43 27.143-3.324 40.643-5.549 15.451-2.546 30.8-5.614 46.218-8.349 13.946-2.473 27.882-5.002 41.223-9.756 16.007-5.702 28.585-15.49 38.93-28.422 4.977-6.22 9.387-12.846 14.088-19.258 4.072-5.553 8.615-10.688 13.202-15.827 1.288 2.49 3.498 4.27 6.644 4.829 6.949 1.237 14.531-.092 21.394-1.137 11.184-1.709 22.22-4.112 33.237-6.605.348-.08.618-.224.839-.405 7.222-1.37 14.404-2.985 21.57-4.381 14.792-2.88 29.764-4.19 44.638-6.543 7.356-1.164 14.718-2.228 22.154-2.773 8.529-.627 16.753.494 25.216 1.237 15.513 1.362 31.105 1.68 46.674 1.327 17.588-.397 40.851-.665 53.078-14.942 5.931-6.92 6.642-17.418 3.286-25.522zM54.75 100.681c36.633-5.64 73.262-11.302 109.903-16.894 7.226-1.104 14.45-2.227 21.672-3.356 3.377 3.258 7.491 5.791 11.362 8.459 5.342 3.682 10.712 7.327 16.073 10.99 10.62 7.254 21.142 14.462 32.22 21.04.757.45 1.484-.559.786-1.09-9.696-7.387-19.756-14.12-29.931-20.892a92715.9 92715.9 0 0 1-16.205-10.79c-4.106-2.731-8.206-5.796-12.697-7.969 33.18-5.198 66.331-10.593 99.542-15.609 18.959-2.863 37.901-5.83 56.817-8.946 15.822-2.607 32.257-4.404 47.63-8.948-.096 2.471.165 4.922.421 7.376-24.775 13.451-46.206 31.538-70.533 45.575-10.078 5.817-21.846 9.014-33.027 12.16-14.154 3.985-28.467 7.436-42.741 10.989-11.915 2.963-23.775 5.487-35.69 7.453-8.835-6.099-17.867-11.927-26.732-17.986-10.805-7.383-21.205-15.759-32.663-22.182-.081-.046-.15.054-.082.112 9.47 8.019 20.519 14.418 30.82 21.379 9.252 6.248 18.38 12.68 27.7 18.834-18.378 2.986-36.89 4.63-55.928 4.428-27.833-.293-54.497-4.392-81.016-12.559-16.345-5.037-32.29-11.202-48.254-17.25 10.197-1.423 20.444-2.768 30.552-4.324zm43.982 53.573c-.22-2.13-.883-4.267-1.316-6.339-.7-3.358-1.762-6.646-2.59-9.974-.103-.418-.728-.31-.678.115.41 3.406.727 6.821 1.124 10.228.204 1.753.372 3.65.773 5.456-5.58-1.104-11.108-2.448-16.556-4.11-7.731-2.36-14.88-5.567-21.732-9.327-.33-2.205-1-4.405-1.455-6.552-.831-3.915-1.74-7.76-3.016-11.565-.07-.212-.459-.146-.451.076.138 3.427.504 6.799 1.032 10.19.304 1.954.464 4.046.777 6.097-4.916-2.853-9.701-5.977-14.457-9.27-11.091-7.677-22.218-16.055-34.763-21.467a713.868 713.868 0 0 1 14.149-2.151c.02.007.036.019.058.028 4.764 1.795 9.372 4.204 14.033 6.238 9.47 4.133 19.255 7.645 29.045 10.998 12.862 4.405 25.93 8.333 39.201 11.338-.076 2.98.76 6.124 1.192 8.956.502 3.317.334 7.741 2.072 10.801.024.442.079.885.156 1.327a197.425 197.425 0 0 1-6.598-1.093zm17.54 2.43c-.111-1.205-.629-2.454-.91-3.593-.572-2.339-1.474-4.585-2.01-6.918-.114-.49-.862-.363-.795.136.328 2.368.283 4.778.578 7.162.114.917.111 1.944.26 2.912a223.68 223.68 0 0 1-4.799-.583c-.127-.775-.27-1.546-.503-2.28.541-3.452-1.197-7.547-1.905-10.83-.535-2.487-.867-5.31-1.727-7.854 4.333.94 8.692 1.77 13.072 2.49.746 6.543 1.722 13.366 3.443 19.78-1.57-.126-3.139-.269-4.704-.422zm254.824-61.742c-6.444 8.981-13.153 17.665-21.828 24.6-.614-8.34-2.422-17.114-5.181-24.926-.076-.21-.457-.145-.45.078.2 8.521 1.721 17.668 4.264 25.91a66.521 66.521 0 0 1-3.123 2.253c-5.316 3.577-11.126 6.347-17.175 8.584-.261-3.193-.99-6.323-1.605-9.498-.918-4.745-1.675-9.736-3.454-14.256-.15-.387-.829-.27-.832.143-.05 4.281.905 8.543 1.557 12.77.593 3.87 1.104 7.824 2.272 11.579-1.324.46-2.659.906-4.001 1.322-.223-3.485-1.108-6.934-1.799-10.361-1.012-5.015-1.938-10.029-3.705-14.849-.16-.44-.948-.304-.943.161.053 4.503.834 8.84 1.526 13.289.643 4.14 1.066 8.492 2.39 12.514-5.647 1.633-11.398 2.93-17.07 4.09-7.773 1.585-15.58 3.042-23.395 4.459.001-.057.014-.106.004-.17-1.017-5.302-2.19-10.527-3.41-15.786-.097-.418-.735-.308-.677.116.728 5.345 1.492 10.637 2.429 15.958.012.065.045.113.068.167-6.616 1.197-13.238 2.372-19.842 3.577-1.45.264-2.902.524-4.354.781-.32-4.61-2.214-9.36-3.298-13.714-.036-.143-.252-.107-.233.041.535 4.45.45 9.545 1.797 13.984a905.874 905.874 0 0 1-19.048 3.154c.634-1.533-.217-3.334-.572-4.89a379.196 379.196 0 0 0-1.51-6.452c-.156-.648-1.13-.48-1.05.181.273 2.19.575 4.375.884 6.561.22 1.57.067 3.53 1.194 4.76a710.602 710.602 0 0 1-20.385 2.826c-.197-4.622-1.769-9.557-2.837-13.992-.107-.448-.782-.33-.723.124.578 4.501.862 9.631 2.307 14.024-3.105.377-6.21.725-9.32 1.056-.748-5.466-2.131-10.926-3.194-16.305-.101-.524-.929-.382-.839.142.917 5.382 1.565 10.937 2.799 16.294-3.373.351-6.747.666-10.127.956-.7-3.4-1.793-6.705-2.557-10.096-.05-.216-.38-.158-.35.06.485 3.39.64 6.807 1.177 10.185a489.373 489.373 0 0 1-25.237 1.444c-13.047.396-26.259.38-39.367-.594-.642-6.584-2.14-13.311-3.769-19.71 6.567 1.05 13.182 1.837 19.847 2.297 30.287 2.086 61.447-.577 90.977-7.249 12.354-2.79 24.641-6.09 36.868-9.428.4 5.888 2.257 11.842 3.371 17.598.133.697 1.242.505 1.118-.193-1.014-5.817-1.392-12.075-3.152-17.77 1.892-.519 3.784-1.034 5.674-1.552 12.53-3.425 24.984-7.18 36.995-12.064 8.095-3.29 15.372-7.87 22.396-12.842.256 3.988 1.49 7.986 2.28 11.88 1.036 5.113 1.82 10.288 3.117 15.342.117.46.8.343.746-.127-.586-5.178-1.696-10.296-2.545-15.44-.685-4.144-.96-8.558-2.32-12.563 4.747-3.403 9.396-6.96 14.118-10.397 6.65-4.839 13.308-9.62 20.086-14.22.054 2.78.82 5.492 1.395 8.215.637 3.019 1.114 6.146 2.234 9.036.072.189.403.133.404-.07.022-3.085-.648-6.18-1.125-9.224-.46-2.934-.704-5.924-1.813-8.703 7.55-5.094 15.27-9.941 23.327-14.36.115 1.217.21 2.437.23 3.664.054 3.01.182 6.039.735 9.005-9.266 7.037-15.739 17.379-22.371 26.62zM657.278 9.004c.308.12.592.264.89.393-3.578.584-7.114 1.11-10.783.672-4.404-.522-8.56-2.585-12.925-3.357a24.907 24.907 0 0 0-3.51-.357c8.914-.815 17.737-.71 26.328 2.65zM618.155 7.93c-3.682.783-16.305 3.66-24.426 4.07 8.108-1.54 16.247-2.921 24.426-4.07zM516.172 28.002c-1.318 2.525-5.412 2.774-7.89 4.36-3.234 2.067-5.335 4.889-7.552 7.902-.34.463-4.656 5.037-5.036 3.695-.627-2.209.77-4.971 1.656-6.963.981-2.216 2.283-4.279 3.455-6.407 5.14-.795 10.26-1.66 15.367-2.587zM397.029 47.331a267.173 267.173 0 0 1 19.638-4.952c-2.38 3.009-4.315 6.732-2.369 9.575 1.47 2.142-.645 4.434-2.77 3.178-1.393-.82-2.938-1.427-4.422-2.061-3.159-1.349-7.527-2.57-10.115-5.112.012-.21.017-.42.038-.628zm8.706 25.018c-4.509-.017-6.887-1.013-7.718-5.461-.127-.68-.219-1.366-.29-2.058 5.117-1.17 9.738 2.317 14.802 2.597 2.044.114 4.245-.518 6.257-.802 3.509-.495 6.218 1.547 8.82 3.483-7.263 1.283-14.546 2.268-21.871 2.241zm34.159-4.57c-3.526.68-7.06 1.377-10.594 2.023-3.86-2.858-7.025-4.899-12.218-4.111-4.693.71-8.14.034-12.582-1.368-2.351-.741-4.501-.571-6.806.09-.16-1.798-.176-3.611-.193-5.406 4.19-1.306 8.14 1.763 12.012 3.06 4.147 1.389 10.776-.039 15.013-.033 6.527.01 14.716-.576 19.097 4.791-1.244.317-2.49.628-3.73.955zm4.284-1.096c-1.734-6.254-12.544-5.854-17.565-5.73-6.1.152-13.447 1.622-19.148-.74-3.35-1.389-6.52-3.352-9.984-2.287-.082-3.091-.62-6.102-.544-9.144 3.83 3.978 11.38 5.145 15.655 8.199.189.134.439.104.618-.027 1.058-.788 3.504-2.317 2.765-4.027-.915-2.121-2.004-2.204-.897-5.295.76-2.131 2.14-3.902 3.544-5.656 7.128-1.475 14.292-2.704 21.486-3.77a108.344 108.344 0 0 0-8.707 3.736c-6.36 3.06-14.546 10.577-4.792 15.406 4.498 2.228 9.402 2.888 14.392 2.423 5.85-.546 12.402-1.776 14.735 4.156a452.83 452.83 0 0 0-11.558 2.756zm45.836-9.442a777.438 777.438 0 0 0-21.2 3.907c-2.73-4.955-10.707-4.271-15.631-6.324-4.914-2.048-9.134-4.704-14.628-4.933-1.547-.064-1.66-9.375 4.474-7.216 3.97 1.4 7.534 4.277 11.079 6.44 4.641 2.834 9.498 5.257 14.696 6.977 8.085 2.673 16.522.876 24.878.556-1.223.189-2.446.387-3.668.593zm155.193-7.7c-12.97 2.756-26.633 2.814-39.894 2.743-4.599-1.63-10.267-2.263-5.607-8.89 2.488-3.535 9.94-5.032 13.783-5.97 5.176-1.264 10.401-2.351 15.54-3.757.352-.095.247-.644-.1-.54-6.808 2.043-14.115 1.944-20.826 4.365-3.58 1.289-8.312 2.57-10.139 6.24-2.466 4.953-.132 7.017 3.242 8.52a401.499 401.499 0 0 1-21.487-.794c-3.17-4.995-12.583-6.064-17.812-6.69-4.847-.58-9.745-.833-14.301-2.684-2.841-1.154-5.257-3.801-8.388-4.296-7.676-1.218-15.738 3.878-22.986 5.476-1.27.28-10.368.509-8.49-2.8 1.095-1.927 4.24-3.003 6.194-3.883 5.303-2.39 10.964-4.278 16.398-6.398 5.802-2.267 12.015-3.075 17.98-4.845 5.584-1.657 12.73-5.619 17.818-.802 2.215 2.096 1.49 1.004-.401 1.081-1.27.052-2.554.179-3.76.606-2.44.864-4.456 2.127-5.187 4.634-.439 1.505.39 4.225 1.784 5.062 3.063 1.838 6.75-.416 10.151.4 4.45 1.065 6.926 5.668 11.029 7.365 3.12 1.291 5.922.76 8.882.013-.336.374-.668.748-1.002 1.104-.863.914-1.69 1.869-2.23 3.003-1.148 2.412 2.17 4.127 4.182 2.94.113-.065.148-.217.028-.296-.917-.61-2.333-.353-3.107-1.155-.556-.578.506-1.85.835-2.29.96-1.291 2.619-2.437 3.446-3.855.3-.076.604-.15.91-.22.198-.045.148-.338-.057-.303l-.636.099c.013-.03.034-.06.048-.091.187-.46-.414-.83-.791-.534-.33.264-.642.565-.947.878-4.324.603-8.172.693-11.977-2.226-2.686-2.056-4.936-4.313-8.188-5.543-2.88-1.087-5.767.277-8.665.366-2.348-1.028-3.207-2.75-2.582-5.173.434-1.538 2.274-2.395 3.622-2.976 1.94-.841 4.37-1.003 6.406-.44.437.12.96-.293.701-.743-2.672-4.666-6.608-5.838-11.903-4.853-3.99.74-7.85 2.478-11.744 3.557-3.898 1.078-7.949 1.51-11.78 2.802-1.644.555-31.886 10.38-26.65 14.973 9.227 8.093 22.864-5.828 33.07-3.45 2.602.609 5.072 2.667 7.412 3.873 2.352 1.21 5.11 1.67 7.71 2.102 3.751.628 7.562.891 11.318 1.498 3.186.516 9.021 1.77 11.66 4.582-1.068-.072-2.138-.134-3.205-.213-9.585-.707-18.884-2.007-28.526-1.557-9.286.435-18.523 2.032-27.668 3.558-5.826.971-11.68 1.708-17.53 2.508-7.205-1.14-14.924.63-22.082.907-9.73.374-18.307-4.295-26.249-9.22-3.032-1.882-8.224-6.622-12.223-6.21-4.183.429-3.865 6.49-3.836 9.325.005.356.254.574.618.55 7.023-.47 11.65 3.631 17.893 5.7 4.01 1.33 11.482.193 13.269 4.597-3.848.773-7.69 1.596-11.52 2.45-1.892-6.235-8.704-5.752-14.845-5.161-5.674.548-11.653-.11-16.395-3.415-8.685-6.052 7.97-12.8 12.36-14.586a90.741 90.741 0 0 1 10.393-3.495c6.955-.928 13.94-1.739 20.96-2.521 2.784.269 5.69 1.02 8.49.75 2.064-.199 4.08-.635 6.117-1.014a27.069 27.069 0 0 1 4.01-.458l.945.04c1.67.047 2.842.896 3.512 2.55-4.512.696-9.188.658-13.74.942-6.682.42-16.485.216-20.86 6.07-2.8 3.741 1.751 5.854 4.918 6.61 6.719 1.61 14.047 1.208 20.906 1.05 8.765-.203 17.442-.34 26.166-1.38 6.38-.763 12.632-2.004 18.82-3.669 5.046-1.356 14.087-4.272 15.483 2.95.145.752 1.347.546 1.208-.206-1.845-10.139-15.462-4.12-21.873-2.574-13.28 3.198-26.876 3.459-40.464 3.766-3.394.078-28.25.77-24.16-5.873 2.949-4.787 11.274-4.852 16.304-5.309 6.036-.547 12.186-.406 18.177-1.332.305-.045.573-.37.488-.675-.792-2.896-2.66-3.996-5.719-4.124-2.162-.088-4.384.474-6.486.871-2.269.428-4.373.513-6.556.385l5.855-.64a450.016 450.016 0 0 0 18.926-2.499c-2.577 4.42-6.023 9.38-4.566 14.19.09.29.35.434.648.323 3.369-1.26 5.125-3.89 7.13-6.66 3.75-5.18 9.63-6.11 14.718-9.461.139-.094.23-.335.181-.494-.13-.418-.21-.683-.28-.904 18.701-3.43 37.249-7.6 55.898-11.62 1.785-.384 3.572-.763 5.357-1.14-3.342 2.13-7.004 5.15-4.732 7.071 3.145 2.658 8.914 1.11 12.386.093 6.597-1.93 12.255-5.925 19.007-7.56 6.26-1.512 13.487-.245 19.949-1.245 3.442-.532 12.143-1.856 14.275 1.703 2.618 4.372-11.288 6.828-17.814 7.88.638-.43 1.296-.84 1.948-1.254 1.418-.896 2.948-1.592 4.38-2.448a.66.66 0 0 0 .242-.854c.457.078.918.153 1.379.258.382.088.606-.465.213-.564-12.017-3.019-23.356 3.222-34.917 5.612-5.126 1.06-14.276 3.076-16.967 7.968-3.194 5.803 12.002 5.828 14.209 5.683 6.425-.42 12.618-2.685 18.767-4.355 3.492-.948 6.98-1.903 10.525-2.651 3.728-.788 8.29-.905 11.791-2.404 1.152-.493 2.259-1.08 3.342-1.706-.267 1.279-.17 2.605.495 3.818 1.5 2.728 5.025 3.943 8.05 3.704 2.426-.192 4.422-1.794 5.707-3.893 2.833-2.308 2.82-7.57.185-10.238 3.923-.59 8.308-.495 11.746 1.3 5.822 3.04-1.664 8.842-4.846 10.127-4.89 1.97-10.22 2.856-15.33 4.12-2.732.675-5.501 1.774-8.308 2.07-3.856.404-7.745.43-11.602.867-4.107.464-12.51 1.999-10.988 7.663 1.645 6.126 13.066 2.04 16.655.808 12.71-4.369 25.411-12.043 39.33-10.733.13.013.24-.012.338-.05-3.933 8.355-14.25 11.909-22.894 13.744zm1.129-25.824l.002-.002c.014.002.044.044.082.153-.07-.078-.095-.142-.084-.151zm22.336 10.766c-.057.155-.133.296-.194.448a.632.632 0 0 0-.58-.45c-11.276-.99-22.765 3.674-32.89 8.061-3.626 1.57-7.262 3.115-11.02 4.373-2.24.75-4.617 1.39-7 1.374-3.338-.026-6.1-3.356-3.366-6.12 2.56-2.59 7.957-2.625 11.382-2.972 3.563-.36 7.173-.328 10.721-.81 7.524-1.025 15.811-3.454 22.91-6.057 4.366-1.6 10.507-6.904 6.3-11.59-3.122-3.475-10.752-3.382-15.756-2.37-4.156-1.561-9.29 1.93-11.392 5.181-.001.002-.001.005-.004.007-2.709 1.6-5.478 3.106-8.783 3.804-7.684 1.628-15.23 3.243-22.755 5.492-6.59 1.969-13.32 4.113-20.303 3.41-1.994-.2-8.901-1.923-5.865-5.012 1.472-1.498 3.72-2.376 5.634-3.208 4.975-2.157 10.217-2.978 15.428-4.345 8.457-2.218 17.219-6.502 26.157-5.448-1.63.506-3.257 1.804-4.621 2.689-.489.316-2.697 1.417-2.743 2.304-.417.068-.766.127-1.007.172-.382.075-.278.625.107.574 6.356-.813 14.4-.567 19.862-4.347 1.49-1.031 2.922-2.657 2.155-4.559-1.244-3.085-4.49-3.29-7.565-3.47-4.573-.268-8.994.663-13.508 1.142-6.689.709-13.163-.388-19.643 1.774-7.412 2.47-13.435 7.693-21.596 7.923-1.306.037-6.04.034-4.179-3.114.713-1.21 2.099-2.131 3.236-2.936 1.081-.768 2.263-1.335 3.43-1.919a793.174 793.174 0 0 1 7.974-1.612c6.783 1.288 21.542-2.302 24.223-2.772 6.425-1.128 13.125-3.102 19.683-2.317 4.825.579 9.415 2.597 14.157 3.578 4.208.872 8.674-.183 12.81-1.026 8.833 4.878 12.144 14.5 8.601 24.148z"/>
        <path d="M355.253 80.695c-.231-.54-1.145-.382-1.17.201-.126 2.905.748 5.786 1.337 8.614.685 3.284 1.205 6.67 2.402 9.826.088.23.496.16.493-.086 0-3.358-.718-6.71-1.249-10.025-.452-2.85-.66-5.843-1.813-8.53z"/>
    </g>
</svg>
