<svg xmlns="http://www.w3.org/2000/svg" width="308" height="234" viewBox="0 0 308 234">
    <g fill="#FFF" fill-rule="nonzero">
        <path d="M302.992 55.733c-7.875-13.178-24.414-19.858-39.009-25.752-4.056-1.64-7.89-3.187-11.456-4.826-11.198-5.149-23.259-8.917-33.903-12.242-19.03-5.944-34.94-9.563-50.067-11.385-4.329-.522-8.994-1.005-13.766-1.005-10.158 0-17.384 2.253-22.09 6.891-3.347 3.294-4.697 8.099-3.923 13.917-9.22 6.423-17.249 14.578-25.015 22.469l-.66.667a590.416 590.416 0 0 0-10.702 11.18C83.066 59.932 75.13 68.756 73.815 76.3c-2.619 3.005-5.148 5.94-7.524 8.726-11.904 13.953-23.836 28.89-35.467 44.396-8.096 10.795-17.353 23.431-24.714 36.798l-.437.791c-2.409 4.349-5.404 9.76-5.239 14.943.137 4.331 4.061 7.086 10.77 7.556.583.04 1.186.06 1.794.06 6.712 0 13.608-2.504 19.549-4.857 2.507-.714 4.954-1.667 7.854-2.878.627-.263 1.28-.548 1.944-.84 3.032-1.33 6.467-2.84 9.471-2.84 2.499 0 4.423 1.061 5.882 3.243 4.755 7.108 2.283 16.37.103 24.542-.459 1.722-.893 3.347-1.251 4.92-1.185 5.178-2.15 15.187 1.743 19.858 1.456 1.746 3.442 2.63 5.905 2.63.08 0 .159 0 .238-.002 4.693-.107 7.806-6.03 9.134-8.56 3.214-6.112 3.584-13.59 3.687-20.724.043-2.925.048-5.898.051-8.77.003-2.63.007-5.35.04-8.023.053-4.337.11-9.252 2.449-12.956.225-.321 1.517-1.37 2.156-1.37.063 0 .079 0 .128.114.185.43.29.93.403 1.462.075.354.153.72.26 1.075.483 1.635 2 3.361 3.525 4.015 1.182.506 2.35.763 3.463.763 2.425 0 4.523-1.193 6.068-3.45 2.666-3.891 4.051-8.435 5.39-12.828.275-.902.55-1.799.832-2.686 2.097-6.562 6.47-11.337 14.623-15.964.752-.426 1.51-.85 2.274-1.27a471.035 471.035 0 0 1 19.01-6.84c20.033-6.729 42.372-13.452 68.301-20.554 26.656-7.303 55.153-13.2 87.12-18.029 4.26-.642 7.335-1.108 10.061-5.042 2.458-3.546 3.033-8.172 3.541-12.252l.007-.06c1.314-10.602.017-18.996-3.967-25.665zM70.833 197.247c.03 3.433.062 6.982-.015 10.466-.115 5.242-.352 16.15-6.833 20.45-.208.137-.4.204-.585.204-1.243 0-2.71-2.88-3.356-4.923-.435-1.377-.41-2.924-.388-4.42l.007-.345c.045-3.136.793-6.32 1.518-9.402l.084-.354c.273-1.175.581-2.366.876-3.515.864-3.356 1.757-6.825 2.01-10.396.322-4.518.246-15.244-6.999-19.636a245.475 245.475 0 0 1 7.666-4.933 460.583 460.583 0 0 0 21.57-11.357c.554-.311.973-.736 1.221-1.24a337.941 337.941 0 0 1 12.583-5.918c-2.265 3.486-3.545 7.397-4.581 10.893-.832 2.817-1.884 6.124-3.365 9.29-.538 1.153-2.106 3.307-3.18 3.307-.563 0-1.126-.738-1.585-2.079a14.449 14.449 0 0 1-.318-1.143 14.47 14.47 0 0 0-.383-1.353c-.676-1.91-2.525-3.051-4.948-3.051a7.956 7.956 0 0 0-3.108.64c-7.747 3.369-7.854 14.635-7.913 20.688-.025 2.71 0 5.465.022 8.127zm-62.27-20.066c-.614-2.289.675-4.14 2.085-5.11l.164-.112.085-.176c2.984-6.248 7.159-12.175 11.197-17.905a443.784 443.784 0 0 0 2.622-3.747c10.723-15.5 22.61-30.386 32.827-42.903a1023.481 1023.481 0 0 1 18.503-22.034 11.69 11.69 0 0 0 1.787 1.682c2.045 1.563 4.404 2.354 7.012 2.354 8.75 0 18.387-8.865 23.352-14.149 2.599-2.767 9.03-11.017 7.572-15.898-.491-1.65-1.78-2.769-3.823-3.325h-.006c-2.02-1.43-4.333-2.308-6.9-2.619 9.21-9.8 18.765-19.81 29.924-27.068 1.484-.965 2.12-2.473 1.74-4.137-.868-3.812-.362-6.88 1.505-9.117 2.803-3.361 8.745-5.067 17.654-5.067 1.955 0 4.068.084 6.308.248-4.533 4.42-6.277 10.093-4.919 16.146.232 1.026 1.068 1.688 2.138 1.688.768 0 1.514-.338 1.99-.907a2.173 2.173 0 0 0 .448-1.912c-1.621-7.213 2.832-11.76 6.961-14.337 2.178.28 4.496.629 6.908 1.04-5.559 5.1-7.905 12.502-6.344 20.17-1.388-.237-2.777-.47-4.166-.704-7.182-1.209-14.607-2.455-21.772-4.236a1.757 1.757 0 0 0-.417-.051c-.697 0-1.26.451-1.4 1.124-.147.715.239 1.41.942 1.692 6.232 2.514 12.91 3.8 19.371 5.044l.091.017c8.334 1.605 15.345 3.397 22.057 5.642 8.705 2.91 16.092 4.823 23.25 6.018 1.66.278 3.344.469 4.97.654 2.323.262 4.726.536 7.042 1.063 3.945.896 7.48 2.869 10.9 4.776 11.767 6.568 23.383 12.846 36.077 17.477 10.856 3.964 22.207 13.823 27.397 23.704-.468.032-.939.048-1.405.064-.678.024-1.32.045-1.916.112-3.164.352-6.608.786-10.839 1.365-26.08 3.57-53.15 9.355-82.75 17.685-14.953 4.209-32.547 9.26-49.658 14.813l-.034.012-.032.014c-2.07.892-4.415 1.745-7.377 2.682-7.906 2.505-14.496 5.038-20.734 7.972a1076.991 1076.991 0 0 0-34.378 16.934 1061.124 1061.124 0 0 0-13.87 7.259c-.299.16-.598.32-.9.477l-.678.358c-13.4 7.106-24.682 12.417-35.5 16.717-3.6 1.43-10.3 4.092-15.995 4.092-.989 0-1.915-.082-2.753-.244l-.115-.022-.115.012c-.705.073-1.39.11-2.032.11-1.49 0-2.82-.19-4.059-.58a5.469 5.469 0 0 1-.921-.405c.02-.473.136-1.371.378-2.267.148-.538.324-1.123.54-1.79l.064-.2-.054-.195zm95.942-104.74C100.1 76.514 91.76 83.348 85.38 83.348c-1.644 0-3.013-.443-4.193-1.355-.647-.502-1.1-1.067-1.388-1.729-2.247-5.157 7.636-13.972 11.276-16.654 2.511-1.853 5.152-3.195 7.836-3.99a19.787 19.787 0 0 1 5.613-.835c2.382 0 4.732.461 6.995 1.373 1.584 4.331-4.864 10.296-7.013 12.283zm90.067-39.936c.161 1.06.964 1.747 2.044 1.747.746 0 1.488-.33 1.982-.884a2.276 2.276 0 0 0 .566-1.897c-.825-5.434 1.414-10.658 6.31-14.749a562.99 562.99 0 0 1 9.198 2.586c-5.382 5.14-7.621 11.865-6.245 18.761-1.844-.359-3.706-.676-5.519-.984-3.859-.655-7.849-1.335-11.667-2.422-6.056-1.725-12.098-2.929-17.354-3.877.202-.432.261-.928.146-1.44-1.676-7.444 1.146-14.266 7.545-18.254.072-.044.14-.092.205-.143 5.691 1.141 11.749 2.57 18.472 4.36-4.69 4.908-6.65 10.83-5.683 17.196zm65.307 28.022c-.85-.207-1.7-.415-2.557-.63-2.761-.69-5.582-1.75-8.605-3.235.149-.44.092-.92-.195-1.311-1.97-2.67-2.652-6.348-1.923-10.362.873-4.811 3.607-9.262 7.134-11.616a3.81 3.81 0 0 0 .175-.124l.984.445c2.347 1.063 4.772 2.161 7.2 3.178-3.88 6.623-3.3 13.62 1.662 19.789.32.399.763.62 1.245.62.573 0 1.144-.326 1.487-.85.35-.534.402-1.174.136-1.712-2.49-5.043-1.927-10.872 1.442-15.35a236.02 236.02 0 0 1 5.097 2.225c-3.842 5.033-3.505 11.854-1.37 16.569.204.45.616.717 1.099.717a1.42 1.42 0 0 0 1.046-.487c.261-.3.373-.685.307-1.058-.77-4.366-.06-10.069 4.166-13.233a86.577 86.577 0 0 1 5.778 3.205c-3.906 5.14-4.246 11.314-4.252 17.214-.005.62.22 1.163.642 1.57.434.418 1.058.658 1.716.658 1.173 0 2.363-.765 2.364-2.226.004-5.836.27-10.656 3.438-14.656a53.069 53.069 0 0 1 4.187 3.276c8.25 7.175 9 16.475 8.646 24.626-.194 4.435-.902 8.006-2.167 10.865-1.326-1.68-2.808-3.255-4.249-4.785-1.655-1.76-3.367-3.579-4.8-5.524-3.746-5.091-6.982-9.489-13.79-12.688-5.232-2.463-10.483-3.748-16.043-5.11zm-26.518-27.835c-2.873 4.696-3.085 9.705-2.601 13.487a88.546 88.546 0 0 0-13.95-6.001 51.083 51.083 0 0 0-3.247-.953 3.361 3.361 0 0 0-.062-.241c-2.124-6.92.227-13.5 6.453-18.109a366.555 366.555 0 0 1 18.236 6.026c-2.411 2.062-4.141 4.67-4.829 5.791zm8.754 20.297c-1.281-.774-2.549-1.569-3.797-2.346a392.126 392.126 0 0 0-2.67-1.66c-.491-.301-.983-.594-1.473-.885a26.016 26.016 0 0 1 3.37-11.76c.898-1.578 2.156-3.022 3.96-4.545.743-.627 1.6-1.049 2.508-1.495.454-.222.92-.45 1.37-.708.502.196 1.007.406 1.502.613-5.788 6.048-8.567 15.824-4.77 22.786z"/>
        <path d="M178.346 95.002c2.217 2.119 5.401 3.194 9.462 3.194 4.37 0 9.01-1.222 12.082-2.03 6.66-1.752 20.33-7.203 24.416-15.296 1.469-2.907 1.559-5.884.267-8.849-1.595-3.658-5.675-5.591-11.795-5.591-.855 0-1.758.037-2.679.113a28.9 28.9 0 0 0-5.363.968c-11.718.74-21.334 5.168-27.081 12.479-3.674 4.672-3.378 11.125.69 15.012zm2.875-7.029c-.075-2.93 3.173-6.467 5.105-8.096a25 25 0 0 1 1.813-1.37c1.631-.588 3.381-1.297 5.232-2.045 5.974-2.417 12.744-5.154 18.726-5.156 2.47 0 4.572.46 6.428 1.4.931.474 1.458 1.117 1.614 1.969.424 2.318-1.908 5.54-3.35 7.078-4.24 4.514-11.154 7.036-16.702 8.727-2.805.856-6.98 1.994-10.83 1.994-2.783 0-4.989-.605-6.558-1.798-.965-.737-1.45-1.62-1.478-2.703zM152.136 66.926c4.463 0 9.59-1.932 12.467-3.73 4.263-2.664 11.005-9.03 10.942-14.773-.03-2.568-1.396-4.676-4.065-6.266a10.318 10.318 0 0 0-5.357-1.478c-3.44 0-6.794 1.634-9.02 2.862a47.523 47.523 0 0 0-5.2 3.358c-5.954 3.106-8.814 7.62-8.274 13.059.45 4.494 3.467 6.968 8.507 6.968zm12.558-20.73c.375-.05.752-.073 1.114-.073 1.543 0 2.737.42 3.36 1.187.54.664.66 1.607.357 2.805-.614 2.429-3.226 4.573-5.326 6.295l-.458.378c-1.792 1.481-7.668 5.03-11.57 5.03-1.931 0-2.941-.882-3.176-2.778-.192-1.523.208-2.968 1.22-4.408 2.004-1.062 3.928-2.448 5.79-3.791 1.544-1.114 3.14-2.266 4.72-3.178 1.23-.499 2.527-.98 3.97-1.468zM115.208 113.592c1.092 0 2.17-.089 3.2-.263 9.797-1.658 24.377-11.155 24.035-21.691-.15-4.577-3.228-7.099-8.667-7.099-1.358 0-2.847.157-4.431.463-10.497 1.378-20.065 6.967-24.976 14.587-2.656 4.119-2.013 7.063-1.007 8.808 1.82 3.156 6.471 5.195 11.846 5.195zm-3.283-14.961c2.174-2.296 5.287-4.602 8.773-6.5.43-.11.931-.242 1.485-.39 2.942-.785 7.39-1.97 10.76-1.97 1.913 0 3.19.38 3.8 1.13.508.626.597 1.591.265 2.872-1.669 6.467-12.114 11.716-18.732 13.667-1.075.316-2.883.655-4.736.655-1.98 0-4.502-.379-5.27-2.183-1.004-2.362 2.504-6.065 3.655-7.281zM62.639 146.736c8.781-.011 18.227-7.284 23.708-14.486 2.073-2.727 2.928-5.641 2.41-8.209-.382-1.89-1.477-3.478-3.178-4.62a1.34 1.34 0 0 0-.703-1.14c-2.094-1.153-4.418-1.738-6.909-1.738-7.757 0-16.148 5.814-21.029 11.576-3.582 4.232-4.777 10.163-2.839 14.102 1.015 2.061 3.318 4.515 8.54 4.515zm-.428-16.535c3.293-3.63 10.46-9.185 16.943-9.883.7.527 1.57.926 2.412 1.313 1.47.676 2.858 1.315 3.285 2.505.697 1.934-1.91 4.972-3.16 6.43l-.115.135c-4.316 5.035-10.565 8.923-16.717 10.401a10.31 10.31 0 0 1-2.393.31c-2.04 0-3.357-.77-4.023-2.357-1.348-3.214 2.505-7.459 3.768-8.854z"/>
        <path d="M65.105 137.18c1.199.216 2.294.322 3.342.322 2.729 0 5.12-.712 7.533-2.236 2.872-1.816 4.058-4.728 3.08-7.39.421-.304.872-.564 1.344-.834.556-.321 1.133-.652 1.693-1.078.382-.291.536-.745.406-1.185-.146-.494-.617-.882-1.147-.941a5.275 5.275 0 0 0-.581-.033c-1.736 0-3.537.896-5.071 2.522-.536.568-.633 1.372-.241 2 .339.544.41 1.026.224 1.518-.269.718-1.393 2.147-5.912 3.663-.128.043-.327.12-.57.213-.373.144-.99.38-1.532.548.564-.625 1.23-1.19 1.937-1.79.618-.528 1.259-1.072 1.832-1.666a.793.793 0 0 0 .149-.224.812.812 0 0 0 .336-.344.767.767 0 0 0-.113-.84l-.325-.382a.861.861 0 0 0-.654-.3c-.154 0-.3.05-.43.12a.903.903 0 0 0-.225-.141 4.292 4.292 0 0 0-.58-.202c1.51-1.65 3.125-2.838 4.905-3.618a.936.936 0 0 0 .545-1.074.978.978 0 0 0-.96-.77h-.038l-.058.003c-.191.018-.38.03-.564.041-.642.04-1.301.08-1.998.35-.74.284-1.474.685-2.315 1.263-1.511 1.04-2.622 2.467-3.21 4.125-.11.319-.087.66.07.966.17.33.478.587.846.705a5.535 5.535 0 0 0 1.5.275l-.07.038c-1.924.991-3.912 2.016-4.277 4.92-.083.652.445 1.334 1.13 1.456zM113.183 104.754c.729.14 1.524.21 2.361.21 3.56 0 8.38-1.366 11.126-4.42 1.57-1.744 2.228-3.828 1.903-6.024-.114-.774-.904-1.237-1.604-1.237-.314 0-.606.085-.845.25l-.168.116c-1.068.73-2.172 1.483-3.084 2.503-.445.5-.536 1.206-.234 1.843.125.263.302.482.514.646-1.805 1.137-4.44 1.869-6.912 2.124.76-1.752 2.313-3.462 4.044-4.378.405-.215.602-.643.49-1.065a1.02 1.02 0 0 0-.994-.746c-.143 0-.282.028-.413.082-3.605 1.505-6.395 4.27-7.659 7.585-.182.487-.123 1.052.167 1.552.296.507.772.855 1.308.96zM195.057 84.495c.195.12.393.225.577.32-.356.938-.532 1.976-.516 3.095.006.525.304 1.208.942 1.468.59.242 1.228.467 1.87.467.802 0 1.516-.34 2.308-1.103.338-.328.45-.795.294-1.22a1.296 1.296 0 0 0-1.096-.812c-.49-.045-.656-.163-.672-.192-.02-.042 0-.215.157-.494a1.494 1.494 0 0 0 1.4-.667 1.68 1.68 0 0 0 .29-.969c1.233-.737 2.795-1.11 4.297-1.428 2.705-.57 5.963-.896 9.955-.99a1.423 1.423 0 0 0 1.384-1.346c.045-.694-.416-1.248-1.116-1.348a43.544 43.544 0 0 0-6.023-.436c-3.855 0-8.966.609-11.822 3.444a10.186 10.186 0 0 0-1.574-.202c-.577 0-1.057.351-1.221.896-.176.582.059 1.206.566 1.517zM151.34 55.235c-.395.22-.686.597-.797 1.035-.11.432-.04.87.195 1.233.817 1.26 2.92 3.26 5.086 3.26.745 0 1.411-.236 1.981-.702.277-.225.44-.568.448-.94a1.289 1.289 0 0 0-.425-.996c-.596-.527-1.294-.662-1.913-.78-.171-.034-.349-.067-.52-.11a2.04 2.04 0 0 1-.457-.177c.044-.022.084-.045.126-.067 1.468-.775 2.984-1.576 4.364-2.615.52-.392.704-1.023.48-1.647-.248-.697-.909-1.183-1.608-1.183-.321 0-.633.103-.898.299-1.215.895-2.548 1.57-3.96 2.286a57.89 57.89 0 0 0-2.103 1.104zM96.073 67.27c-.657 0-1.258.264-1.79.497l-.065.027c-.655.286-.983.907-.831 1.58.163.731.847 1.282 1.588 1.282.201 0 .401-.038.595-.114a2.999 2.999 0 0 1-.594 1.04c-.322.375-.818.689-1.475.929-.167.06-.344.103-.527.146-.547.128-1.225.288-1.708 1.002a1.292 1.292 0 0 0 .23 1.669c.41.348.912.525 1.494.525.911 0 1.844-.445 2.636-.88a5.707 5.707 0 0 0 2.623-3.055c.32-.884.403-3.036-.586-3.99-.452-.436-.987-.658-1.59-.658z"/>
    </g>
</svg>
