<svg xmlns="http://www.w3.org/2000/svg" width="172" height="162" viewBox="0 0 172 162">
    <g fill="#FFF" fill-rule="nonzero">
        <path d="M170.32 65.662c-2.473-9.493-8.809-18.446-19.369-27.374-5.637-4.765-12.043-9.177-19.586-13.489-4.027-2.303-8.437-4.6-13.103-6.823a314.685 314.685 0 0 0-14.553-6.521c-.6-.25-1.202-.497-1.803-.744A195.499 195.499 0 0 0 85.11 5.404C76.923 3.227 68.933 1.73 61.358.958c-13.703-1.4-25.24.29-34.291 5.019-12.97 6.779-18.871 19.715-22.183 28.856-5.705 15.747-3.212 29.43 7.02 38.526 1.434 1.274 2.996 2.27 4.647 2.957 1.18.49 2.401.828 3.65 1.002-7.858 6.954-15.983 15.262-18.67 26.091-3.526 14.194 7.211 27.284 17.475 34.178a68.733 68.733 0 0 0 2.485 1.586c.127.19.301.35.513.466.628.339 1.305.678 2.194 1.092 2.883 1.588 6.111 3.12 9.866 4.683 3.007 1.255 6.064 2.41 8.92 3.474 1.11.414 2.213.835 3.313 1.268l.432.193c.415.185.832.372 1.245.56 2.73 1.26 5.952 2.726 9.17 4.067 3.532 1.47 6.73 2.655 9.777 3.623a49.8 49.8 0 0 0 3.562 1.235c.268.083.551.088.817.025l.07.017c.543.148 1.086.293 1.637.424 11.899 2.823 29.212 1.882 38.856-10.061 7.014-8.687 7.938-20.185 7.985-31.439a16.75 16.75 0 0 0 3.188 1.745 20.573 20.573 0 0 0 5.454 1.402c18.394 2.208 29.839-12.833 35.024-21.997 7.249-12.813 9.477-24.03 6.806-34.288zm-18.26 42.101c-5.049 5.767-11.414 9.132-18.408 9.737-3.007.261-5.853-.125-8.23-1.115-2.843-1.184-4.802-3.145-5.676-5.673-.066-1.972-.16-3.907-.252-5.714.458-1.87 1.602-3.66 2.709-5.391.485-.764.989-1.55 1.433-2.345 2.334-4.164 4.746-8.474 6.944-12.933.166-.338.354-.71.556-1.111 2.777-5.51 7.946-15.764.974-19.749a5.25 5.25 0 0 0-.582-.287c-3.58-1.49-8.443 1.235-10.435 3.688-2.943 3.623-4.126 8.202-5.27 12.631-.486 1.887-.947 3.667-1.532 5.368a1.388 1.388 0 0 0 .387 1.518c-1.203 6.135-1.183 12.426-1.161 18.516l.005 1.806c.002 1.616.024 3.253.043 4.905.14 10.835.284 22.038-4.63 31.629-6.52 12.732-23.404 13.799-35.88 10.843-7.491-1.774-14.942-4.607-22.146-7.347l-2.04-.775-.245-.094-.215-.085c-8.822-3.786-16.294-7.484-22.797-11.294-10.863-6.357-21.864-18.636-17.113-32.322 3.436-9.908 12.655-17.768 20.789-24.701 1.32-1.125 2.619-2.233 3.873-3.329l1.609-1.402c4.775-4.156 9.712-8.454 13.724-13.456.093-.115.185-.231.275-.347a1.53 1.53 0 0 0 1.453-.759c.931-1.586 2.014-3.18 3.062-4.722 2.699-3.97 5.49-8.074 6.352-12.912.567-3.185-1.274-7.764-4.82-9.243a6.21 6.21 0 0 0-1.321-.384c-4.46-.764-7.7 4.05-8.762 5.633-2.768 4.114-4.707 8.695-6.614 13.419-1.153 2.857-2.23 5.785-3.27 8.62-.565 1.535-1.128 3.07-1.707 4.599-.216.577-.355 1.169-.487 1.742-.159.686-.308 1.334-.575 1.88a9.843 9.843 0 0 1-.791 1.325 280.73 280.73 0 0 0-5.016 3.992c-.865.361-1.744.61-2.619.74-1.762.26-3.532.028-5.259-.693-5.479-2.282-9.72-9.018-11.082-14.49-1.495-6.02-.643-13.178 2.606-21.884C14.681 23.042 21.609 14.754 31.1 10.46c8.371-3.789 18.974-4.825 32.416-3.166 14.83 1.83 28.607 6.54 42.586 11.622 15.081 7.144 29.632 14.433 41.888 24.967 10.104 8.685 15.977 17.965 17.454 27.578 2.026 13.18-5.585 27.393-13.383 36.302zm-32.982-15.03c0-.38.003-.747.009-1.112.126-7.835 3.122-14.981 6.47-22.211a4.8 4.8 0 0 1 1.062-.658c1.25-.55 1.77-.448 1.937-.377.433.18.685 1.262.264 3.273-1.446 6.935-5.36 13.612-9.145 20.067-.199.338-.399.678-.597 1.018zm-78.17-32.534c.125-.352.25-.704.371-1.053 2.458-6.987 5-14.211 9.316-20.114 1.078-1.476 1.945-2.173 2.44-1.968.228.096.706.44 1.328 1.68.124.248.204.539.247.884-3.17 6.916-6.5 13.569-12.084 19.04-.513.503-1.05 1.011-1.617 1.531z"/>
        <path d="M99.693 48.991a1.504 1.504 0 0 0-1.587.257c-2.715 2.415-4.283 5.24-5.804 8.74-2.076 4.779-3.732 8.963-5.062 12.787-2.617 7.53-3.98 15.43-5.297 23.072-.223 1.296-.447 2.59-.676 3.884l-.278 1.576c-1.465 8.329-2.98 16.94-7.237 24.163-3.145 5.343-9.14 11.543-16.529 12.926-1.842.343-3.568.189-5.13-.462-4.765-1.985-7.379-8.298-7.792-13.328-.656-8.018 2.936-15.707 6.14-21.51 2.933-5.314 6.556-10.4 10.06-15.321a565.486 565.486 0 0 0 3.26-4.61c5.014-7.202 8.979-14.417 12.124-22.06 1.535-3.729 2.869-7.58 4.16-11.304.842-2.431 1.714-4.945 2.627-7.39.213-.575-.068-1.19-.653-1.435a1.263 1.263 0 0 0-.93-.013 1.14 1.14 0 0 0-.646.627c-.727 1.73-1.435 3.471-2.146 5.214-2.866 7.023-5.83 14.286-9.866 20.862-3.614 5.89-7.853 11.501-11.954 16.926-.74.98-1.481 1.959-2.22 2.944-9.563 12.739-18.57 26.369-14.658 40.637 1.728 6.3 5.445 11.047 10.201 13.026.815.343 1.671.605 2.546.787 6.126 1.263 12.356-2.496 16.503-5.871 12.481-10.16 15.325-26.809 17.835-41.495l.301-1.758c1.162-6.744 2.69-14.672 5.221-22.347l.422-1.283c1.724-5.282 3.873-11.856 7.668-15.893.321-.344.448-.8.344-1.251a1.616 1.616 0 0 0-.947-1.097z"/>
        <path d="M110.827 24.345a201.796 201.796 0 0 0-5.148-2.232c-12.264-5.11-24.211-8.567-35.512-10.28-15.497-2.347-28.27-.678-37.96 4.962-5.768 3.356-9.9 8.23-12.631 14.895-.217.523.035 1.114.58 1.34a1.14 1.14 0 0 0 1.4-.432c7.118-11.523 18.811-17.515 34.759-17.81 11.731-.219 25.747 2.625 41.657 8.452a224.15 224.15 0 0 1 9.302 3.623c15.025 6.259 25.947 13.234 33.394 21.328 4.934 5.364 8.818 12.752 11.538 21.957 2.087 7.07 1.614 14.869-1.447 23.848-.254.738.095 1.498.832 1.805a1.538 1.538 0 0 0 1.955-.666c9.24-16.429 2.21-33.307-5.313-44.57-7.867-11.783-22.628-19.565-37.406-26.22z"/>
    </g>
</svg>
