<svg xmlns="http://www.w3.org/2000/svg" width="501" height="218" viewBox="0 0 501 218">
    <path fill="#FFF" fill-rule="nonzero" d="M500.454 213.718c-3.182-23.079-9.983-45.421-20.342-66.72-13.635-28.039-32.8-52.911-56.964-73.93-11.342-9.864-23.55-18.644-36.452-26.299-.566-.933-1.459-1.532-2.344-1.374-27.624-15.991-58.36-26.83-90.66-31.949-1.181-2.035-2.935-3.463-4.875-4.628-4.715-2.833-10.129-4.555-15.277-5.88C266.302 1.075 259.082.056 251.67.016c-.103 0-.205.009-.308.01-.066-.002-.132-.009-.197-.01-7.387-.175-14.676 1.13-21.874 2.922-5.204 1.295-10.48 3.166-15.277 5.88-1.839 1.04-3.509 2.433-4.678 4.31-49.173 7.413-94.82 28.053-131.482 59.94-24.165 21.018-43.33 45.891-56.965 73.93C10.53 168.297 3.729 190.639.547 213.718.35 215.143.169 216.568 0 218h501a225.72 225.72 0 0 0-.546-4.282zM213.22 18.325c.003-.107.002-.213.007-.32.139-2.667 1.47-3.715 3.542-4.93.741-.435 1.502-.838 2.273-1.227 3.96-2.006 8.248-3.47 12.342-4.804a58.295 58.295 0 0 1 3.265-.946c3.402.31 6.617-1.005 9.882-1.843a97.127 97.127 0 0 1 6.463-.532c2.26.154 4.503.349 6.733.613 3.405.828 6.763 2.07 10.25 1.787.803.192 1.61.396 2.417.617 4.663 1.28 9.415 3.146 13.851 5.383.44.221.879.443 1.312.671 2.277 1.206 3.855 2.34 4.049 5.213.014.192.012.386.018.58.14 3.54-.588 7.19-.993 10.665-.843 7.215-1.716 14.424-2.499 21.648-.856 7.907-1.6 15.816-2.35 23.735-.143 1.5-.308 3.005-.483 4.512a221.969 221.969 0 0 0-32.796-2.422c-10.49 0-20.852.74-31.01 2.173-.111-.983-.218-1.965-.314-2.945-.776-7.918-1.487-15.833-2.337-23.742-.793-7.38-1.708-14.738-2.541-22.11-.439-3.865-1.232-7.854-1.081-11.776zm69.659 109.43l-.277-.806c1.666 1.074 3.06 1.879 4.45 3.221 3.618 3.756 4.73 11 3.06 16.1-1.112 3.757-7.233 8.586-9.459 2.415-1.39-4.294 3.895-9.124 4.173-13.418.278-2.682-.558-5.366-1.947-7.512zM61.745 213.718H5.515c2.703-18.986 7.936-37.458 15.655-55.239 7.013 6.134 14.865 10.4 23.026 14.037 3.801 1.696 7.681 3.134 11.514 4.73 3.415 1.417 7.007 3.184 10.557 4.035.989.236 1.565-1.013.945-1.887-4.445-6.242-12.623-8.872-18.859-11.722-8.727-3.988-17.045-8.28-24.615-14.832l-.02-.014a222.581 222.581 0 0 1 22.152-37.347c1.188 2.41 4.163 4.43 5.672 5.803a271.242 271.242 0 0 0 12.11 10.358c3.964 3.197 7.943 6.384 11.841 9.688 3.32 2.814 6.381 6.213 9.995 8.514.504.322 1.183-.207.998-.892-.993-3.692-3.438-6.537-5.807-9.115-3.14-3.416-6.483-6.577-9.889-9.623-6.377-5.71-13.111-10.954-19.207-17.078a2.847 2.847 0 0 0-.285-.767c-.43-.733-.882-1.556-1.593-1.954 8.362-10.751 17.758-20.816 28.133-30.143 5.526 8.36 11.705 16.106 17.942 23.744a344.492 344.492 0 0 0 8.2 9.707c2.509 2.85 4.973 6.598 8.2 8.267.547.283 1.035-.171.95-.849-.462-3.693-2.812-6.849-4.747-9.746-2.554-3.825-5.326-7.448-8.17-10.985a466.054 466.054 0 0 1-18.02-23.96 244.822 244.822 0 0 1 34.326-24.588c1.422 3.09 3.272 6.02 4.865 8.95 2.315 4.257 4.632 8.512 7.016 12.719 2.512 4.428 5.058 8.837 7.682 13.177 2.428 4.014 4.768 8.603 7.92 11.907.713.748 1.943.035 1.657-1.123-1.17-4.731-3.687-9.122-5.748-13.388-2.23-4.614-4.616-9.13-6.961-13.668-2.23-4.314-4.577-8.548-6.874-12.814-1.529-2.838-2.946-5.849-4.578-8.639 12.95-7.286 26.577-13.428 40.723-18.377 1.403 4.359 3.558 8.444 4.837 12.91 1.537 5.37 2.658 10.903 3.914 16.366 1.227 5.323 2.56 10.664 4.347 15.773 1.37 3.912 2.866 8.348 5.988 10.752.312.238.595-.154.555-.496-.524-4.527-2.29-8.921-3.285-13.359-1.21-5.395-2.081-10.884-3.081-16.335-1.013-5.52-2.214-10.989-3.758-16.343-1.017-3.522-2.2-7.815-4.16-11.076a263.815 263.815 0 0 1 40.095-9.647c-.05 2.605.456 5.332.75 7.765a2977.07 2977.07 0 0 1 2.682 22.677c.983 8.621 1.983 17.209 3.22 25.787.201 1.396.393 2.803.59 4.213-37.6 6.12-72.212 21.911-99.878 45.974-27.99 24.348-46.305 54.91-53.292 88.153zm300.764-13.353c-1.756 4.09-4.967 7.179-7.79 10.584-.946 1.145-1.754 2.29-2.419 3.46H147.544c-1.808-3.305-2.928-6.95-2.868-10.688.09-5.573 1.638-10.752 4.997-15.148 16.12-21.094-.052-24.665.31-24.952 3.314-2.649 7.018-3.572 11.098-1.86 4.54 1.903 8.139 5.273 10.784 9.273 2.929 4.432 4.08 8.65 3.238 13.92-.603 3.77-1.832 8.314.72 11.704 1.586 2.108 3.988 2.522 6.443 1.589 5.095-1.937 9.544-6.777 11.323-11.728 2.633-7.32.643-14.554-1.603-21.693-2.103-6.686-4.379-13.504-4.069-20.59.611-13.988 9.152-26.124 20.73-34.18.059-.04.13-.022.18.019.042-.12.075-.239.119-.36.223-.596 1.162-.363.996.265-3.137 11.76 7.128 21.458 11.37 31.73 1.823 4.413 2.84 9.063 2.665 13.832-.17 4.655-1.44 8.478-2.936 12.847-.73 2.129-1.665 4.516-1.498 6.796.153 2.064 1.578 4.562 4.034 4.492 4.323-.124 8.224-4.172 8.91-8.122.949-5.473-.283-11.06.397-16.582 1.024-8.323 7.734-14.805 10.915-22.364 1.406-3.334.13-7.966 2.199-10.914 1.191 7.05 5.557 11.465 8.438 17.794 2.71 5.947 3.416 12.445 1.836 18.78-1.761 7.081-5.68 12.864-8.83 19.364-3.242 6.705-4.941 14.9.8 20.83 2.144 2.215 5.4 4.376 8.696 3.144 3.383-1.268 4.838-3.926 4.943-7.296.16-5.225-1.537-13.744.52-18.897 3.578-8.973 11.917-14.51 12.094-13.38 1.513 9.506 14.755 13.224 14.47 23.6-.098 3.597-1.379 7.043-1.901 10.586-.222 1.495-.46 3.265-.103 4.798.855 1.017 2.226 1.704 3.618 2.05 2.166.538 3.946-.278 5.395-1.86 2.808-3.07 5.468-6.738 6.113-10.862 1.202-7.713-2.126-15.088-1.935-22.768.178-7.03 2.858-12.874 6.442-18.876 3.761-6.304 7.801-12.294 7.535-19.876-.01-.34.018-.598.287-.815 3.864 1.284 17.4 12.202 20.865 27.587.74 3.289 1.626 5.943 1.157 9.202-.447 3.114-.978 6.213-1.375 9.332-.468 3.654-.937 7.364-.984 11.048-.029 2.458-.148 6.232 1.68 8.227 2.17 2.369 6.844-.022 8.217-2.15 2.938-4.562 1.896-10.285 2.83-15.354-.395-.252.088-.468 0 0 8.032 5.109 20.23 13.937 15.703 24.462zm76.747 13.353c-6.988-33.243-25.301-63.806-53.294-88.152-27.227-23.682-61.18-39.362-98.093-45.686.213-1.508.419-3.011.637-4.501 1.249-8.575 2.24-17.166 3.219-25.787.857-7.563 1.753-15.124 2.681-22.677.286-2.338.76-4.951.753-7.465a263.512 263.512 0 0 1 39.81 9.853c-1.612 2.924-2.628 6.528-3.585 9.6-1.645 5.279-2.84 10.781-3.856 16.264-1.016 5.472-1.897 10.977-3.058 16.41-1.023 4.773-2.94 9.483-3.502 14.332-.04.342.244.735.554.496 3.146-2.422 4.574-6.84 5.99-10.752 1.835-5.074 3.114-10.466 4.345-15.773 1.265-5.466 2.424-10.973 3.914-16.365 1.191-4.296 3.232-8.193 4.644-12.336a253.857 253.857 0 0 1 40.48 18.597c-3.21 5.744-5.593 12.447-8.043 18.513-1.642 4.068-3.24 8.16-4.901 12.218-1.819 4.457-4.148 8.995-5.26 13.77-.272 1.161.932 1.873 1.656 1.125 5.633-5.824 9.15-15.306 12.608-22.953 1.703-3.763 3.29-7.598 4.963-11.38 1.245-2.813 2.734-5.53 4.024-8.333 12.025 7.248 23.422 15.497 34.047 24.715-4.872 7.21-9.436 14.717-13.928 22.25a212.64 212.64 0 0 0-5.898 10.518c-1.509 2.885-4.082 6.553-4.05 10.048.007.486.41.86.82.725 2.689-.885 4.72-4.395 6.417-6.812a171.433 171.433 0 0 0 6.41-9.809c4.729-7.804 9.66-15.415 14.58-23.052 12.064 10.99 22.767 22.997 32.051 35.917a3.159 3.159 0 0 0-.93.641c-1.627 1.622-3.229 3.275-4.85 4.902-3.465 3.478-6.997 6.874-10.39 10.451-3.069 3.236-6.035 6.563-8.879 10.067-2.42 2.98-4.741 5.949-5.803 9.931-.18.683.495 1.218 1 .894 2.977-1.916 5.35-4.632 7.894-7.23 3.115-3.18 6.335-6.237 9.528-9.309 3.287-3.163 6.53-6.386 9.786-9.593a498.774 498.774 0 0 0 4.249-4.237c.71-.717 1.183-1.35 1.536-2.032a222.463 222.463 0 0 1 16.31 28.085 221.915 221.915 0 0 1 6.522 14.764c-6.684 1.78-13.378 3.536-19.961 5.786-6.608 2.258-14.519 5.293-19.417 11.176-.533.64-.201 2.053.686 1.927 6.84-.963 13.57-4.774 20.17-7.042 6.84-2.35 13.844-4.01 20.78-5.94a213.126 213.126 0 0 1 10.86 43.238h-56.226v.003z"/>
</svg>
