<svg xmlns="http://www.w3.org/2000/svg" width="64" height="64" viewBox="0 0 64 64">
    <g fill="#C4A782" fill-rule="nonzero">
        <path d="M31.965.209C14.365.209.07 14.504.07 32.104S14.365 64 31.965 64s31.896-14.296 31.896-31.896S49.565.21 31.965.21zm0 62.26c-16.765 0-30.4-13.634-30.4-30.4 0-16.765 13.635-30.4 30.4-30.4s30.4 13.635 30.4 30.4c0 16.766-13.635 30.4-30.4 30.4z"/>
        <path d="M31.965 4.417c-15.27 0-27.687 12.418-27.687 27.687 0 15.27 12.418 27.687 27.687 27.687 15.27 0 27.687-12.417 27.687-27.687 0-15.27-12.417-27.687-27.687-27.687zm0 53.844C17.53 58.26 5.81 46.539 5.81 32.104c0-14.434 11.721-26.156 26.156-26.156 14.435 0 26.157 11.722 26.157 26.156 0 14.435-11.722 26.157-26.157 26.157z"/>
        <path d="M20.904 21.635a4.35 4.35 0 0 0 4.348-4.348 4.35 4.35 0 0 0-4.348-4.348c-2.4 0-4.382 1.948-4.382 4.348s1.948 4.348 4.382 4.348zm0-7.2a2.865 2.865 0 0 1 2.853 2.852 2.865 2.865 0 0 1-2.853 2.852 2.865 2.865 0 0 1-2.852-2.852c0-1.6 1.287-2.852 2.852-2.852zM46.609 28a4.35 4.35 0 0 0 4.348-4.348 4.35 4.35 0 0 0-4.348-4.348c-2.4 0-4.383 1.948-4.383 4.348.035 2.4 1.983 4.348 4.383 4.348zm0-7.2a2.865 2.865 0 0 1 2.852 2.852 2.865 2.865 0 0 1-2.852 2.852 2.865 2.865 0 0 1-2.852-2.852c.034-1.565 1.286-2.852 2.852-2.852zM19.096 30.678a4.35 4.35 0 0 0-4.348-4.348 4.35 4.35 0 0 0-4.348 4.348 4.35 4.35 0 0 0 4.348 4.348 4.35 4.35 0 0 0 4.348-4.348zm-4.348 2.852a2.865 2.865 0 0 1-2.852-2.852 2.865 2.865 0 0 1 2.852-2.852 2.865 2.865 0 0 1 2.852 2.852 2.865 2.865 0 0 1-2.852 2.852zM36.835 46.748a4.35 4.35 0 0 0-4.348 4.348 4.35 4.35 0 0 0 4.348 4.347 4.35 4.35 0 0 0 4.348-4.347 4.35 4.35 0 0 0-4.348-4.348zm0 7.2a2.865 2.865 0 0 1-2.852-2.852 2.865 2.865 0 0 1 2.852-2.853 2.865 2.865 0 0 1 2.852 2.853 2.865 2.865 0 0 1-2.852 2.852zM36.974 35.583a4.35 4.35 0 0 0-4.348-4.348c-2.4 0-4.383 1.948-4.383 4.348s1.948 4.347 4.383 4.347a4.306 4.306 0 0 0 4.348-4.347zm-7.2 0a2.865 2.865 0 0 1 2.852-2.853 2.865 2.865 0 0 1 2.852 2.853 2.865 2.865 0 0 1-2.852 2.852 2.865 2.865 0 0 1-2.852-2.852zM32.66 23.27c.28.034.557.034.87.034 1.148 0 2.4-.243 3.444-.695 1.287-.557 2.574-1.53 3.443-2.644 1.079-1.391 1.392-2.817.87-4.07-.348-.869-1.078-1.495-2.052-1.773-.905-.279-1.913-.209-2.852.174h-.035l-.974-2.33c-.348-.836-1.287-1.253-2.087-.94l-1.983.835c-.8.348-1.147 1.287-.765 2.156l.974 2.33h-.035c-.939.383-1.704 1.08-2.121 1.914-.453.904-.522 1.843-.14 2.713.453 1.287 1.705 2.087 3.444 2.296zm-2.017-4.244a2.678 2.678 0 0 1 1.392-1.217h.035l.521 1.217a.793.793 0 0 1-.382-.104.775.775 0 0 0-.974.452c-.14.383.07.835.452.974.417.139.8.209 1.148.209.626 0 1.078-.174 1.148-.21.07-.034.104-.069.174-.104.034-.034.034-.034.07-.034a.76.76 0 0 0 .103-.174c0-.035.035-.035.035-.07.035-.07.035-.139.035-.174 0-.034.035-.07.035-.104 0-.07-.035-.14-.035-.209 0-.035 0-.07-.035-.104l-2.47-5.878c-.034-.07-.034-.14-.034-.14l1.948-.834c.034 0 .07.035.104.139l2.47 5.878c.034.07.104.174.139.209.035.035.035.035.07.035a.76.76 0 0 0 .173.104c.035 0 .035.035.07.035.07.035.174.035.243.035h.035c.104 0 .174 0 .278-.07.105-.035 1.079-.487 1.6-1.635a.764.764 0 0 0-.382-1.009.764.764 0 0 0-1.009.383c-.07.14-.14.244-.209.348l-.521-1.217h.034c.626-.244 1.253-.314 1.844-.14.522.174.904.487 1.078.905.383.904-.139 1.878-.66 2.539-.696.904-1.775 1.704-2.853 2.156-1.043.453-2.4.661-3.513.522-.835-.104-1.913-.382-2.296-1.322-.139-.417-.104-.904.14-1.39zM23.374 38.609c-2.4-1.392-6.47-1.913-7.93.626-.94 1.6-.174 3.791 1.704 4.87h.035l-1.253 2.19c-.208.383-.278.8-.208 1.183.07.452.348.8.73 1.009l1.878 1.078c.244.14.487.209.73.209a1.71 1.71 0 0 0 1.462-.87l1.252-2.191h.035a4.21 4.21 0 0 0 2.156.591c1.218 0 2.33-.556 2.922-1.565 1.391-2.504-1.113-5.739-3.513-7.13zm2.122 6.434c-.522.87-1.844 1.079-2.992.418h-.034l.66-1.148c.07.104.14.209.174.348a.785.785 0 0 0 .73.522c.07 0 .14 0 .244-.035.418-.14.626-.557.487-.94-.382-1.217-1.287-1.773-1.391-1.843-.035-.035-.07-.035-.14-.035-.069-.034-.104-.034-.173-.07h-.314c-.034 0-.034.036-.069.036-.07.034-.139.034-.208.104-.035.035-.035.07-.07.07-.035.034-.104.07-.104.139l-3.2 5.53c-.035.07-.105.104-.105.104L17.148 47.2s-.035-.07.035-.174l3.2-5.53c.034-.035.034-.105.034-.14 0-.034.035-.104.035-.139v-.174-.139c0-.07-.035-.104-.07-.174-.034-.034-.034-.07-.034-.104-.035-.035-.105-.07-.14-.104-.034-.035-.069-.07-.104-.07-.104-.07-1.043-.556-2.26-.278a.78.78 0 0 0-.592.904.78.78 0 0 0 .905.592c.139-.035.278-.035.417-.035l-.661 1.148h-.035c-1.148-.661-1.67-1.913-1.148-2.818.905-1.565 4.07-1.078 5.879-.07 1.774 1.044 3.791 3.548 2.887 5.148zM49.217 31.27c-1.356-.21-2.99-.035-4.313.452-2.574.974-5.6 3.756-4.591 6.504.487 1.287 1.809 2.087 3.304 2.087.522 0 1.044-.104 1.53-.278h.036l.87 2.365c.138.383.417.73.8.94.243.138.486.208.73.208.174 0 .347-.035.521-.105l2.018-.765c.8-.313 1.182-1.252.87-2.121l-.87-2.366h.035a4.321 4.321 0 0 0 2.226-1.843c.487-.87.59-1.844.278-2.713-.522-1.252-1.74-2.087-3.444-2.365zm1.81 4.313c-.314.521-.8.939-1.427 1.147h-.035l-.452-1.252c.14.035.244.035.383.105.104.034.208.07.278.07a.71.71 0 0 0 .696-.488c.173-.382-.035-.835-.418-1.008-1.182-.487-2.191-.14-2.295-.105-.035 0-.07.035-.105.07-.07.035-.104.07-.174.104-.07.07-.104.104-.139.174l-.035.035a.855.855 0 0 0-.034.591l2.226 5.983c.034.07 0 .139.034.139l-1.982.73c-.035 0-.07-.035-.105-.139l-2.226-5.982c-.034-.07-.07-.105-.104-.174-.035-.035-.035-.07-.035-.07-.035-.035-.07-.07-.104-.07-.035-.034-.07-.07-.14-.104h-.069c-.07-.035-.139-.035-.208-.035-.035 0-.07 0-.14.035-.07 0-.104 0-.174.035-.104.035-1.113.452-1.67 1.565-.173.383-.034.835.349 1.009.104.07.243.07.348.07.278 0 .556-.14.695-.418.07-.14.14-.243.209-.348l.452 1.252h-.035c-1.217.453-2.539.035-2.887-.904-.626-1.704 1.774-3.826 3.687-4.557 1.079-.382 2.435-.556 3.548-.382.835.139 1.878.487 2.226 1.391.174.557.14 1.078-.139 1.53zM28.974 26.748a.772.772 0 0 0 .765-.765.772.772 0 0 0-.765-.766h-.348a.772.772 0 0 0-.765.766c0 .417.348.765.765.765h.348zM22.713 31.791a.772.772 0 0 0-.765.766c0 .417.348.765.765.765h.348a.772.772 0 0 0 .765-.765.772.772 0 0 0-.765-.766h-.348zM38.33 41.391a.772.772 0 0 0-.765.766c0 .417.348.765.765.765h.348a.772.772 0 0 0 .765-.765.772.772 0 0 0-.765-.766h-.348zM24.974 51.13h-.348a.772.772 0 0 0-.765.766c0 .417.348.765.765.765h.348a.772.772 0 0 0 .765-.765.772.772 0 0 0-.765-.766zM45.635 47.34h-.348a.772.772 0 0 0-.765.764c0 .418.348.766.765.766h.348a.772.772 0 0 0 .765-.766.772.772 0 0 0-.765-.765zM53.009 28.73h-.348a.772.772 0 0 0-.765.766c0 .417.347.765.765.765h.348a.772.772 0 0 0 .765-.765.75.75 0 0 0-.765-.766zM14.157 22.957h.347a.772.772 0 0 0 .766-.766.772.772 0 0 0-.766-.765h-.347a.772.772 0 0 0-.766.765c0 .418.348.766.766.766zM45.252 15.826h.348a.772.772 0 0 0 .765-.765.772.772 0 0 0-.765-.765h-.348a.772.772 0 0 0-.765.765.75.75 0 0 0 .765.765zM40.278 28.104a.772.772 0 0 0-.765-.765h-.348a.772.772 0 0 0-.765.765c0 .418.348.766.765.766h.348a.75.75 0 0 0 .765-.766z"/>
    </g>
</svg>
